<?xml version="1.0" standalone="no"?>
<!DOCTYPE svg PUBLIC "-//W3C//DTD SVG 20010904//EN"
 "http://www.w3.org/TR/2001/REC-SVG-20010904/DTD/svg10.dtd">
<svg version="1.0" xmlns="http://www.w3.org/2000/svg"
 width="800.000000pt" height="800.000000pt" viewBox="0 0 800.000000 800.000000"
 preserveAspectRatio="xMidYMid meet">
<metadata>
Created by potrace 1.14, written by Peter Selinger 2001-2017
</metadata>
<g transform="translate(0.000000,800.000000) scale(0.100000,-0.100000)"
fill="#000000" stroke="none">
<path d="M3859 7586 c-2 -2 -49 -6 -104 -10 -55 -4 -113 -9 -130 -11 -97 -15
-235 -36 -265 -41 -81 -13 -363 -85 -465 -119 -382 -127 -807 -368 -1094 -620
-241 -211 -406 -388 -565 -605 -42 -58 -80 -109 -84 -115 -16 -23 -84 -129
-101 -158 -10 -18 -37 -66 -60 -107 -24 -41 -46 -82 -51 -90 -103 -175 -274
-639 -314 -850 -2 -14 -9 -47 -16 -75 -33 -143 -30 -142 87 30 220 324 338
469 558 690 143 144 182 178 300 271 291 228 618 394 939 480 55 14 111 28
125 30 14 3 33 7 41 9 66 20 292 39 450 39 190 0 328 -13 523 -49 61 -12 256
-65 322 -89 39 -14 90 -32 115 -41 95 -33 370 -177 478 -249 175 -117 249
-181 503 -436 320 -321 446 -412 636 -461 291 -74 633 73 819 352 100 151 135
274 140 489 2 85 0 171 -6 190 -5 19 -12 51 -15 70 -19 113 -98 305 -171 417
-101 154 -265 339 -389 438 -27 22 -59 48 -70 58 -29 26 -200 138 -280 184
-137 77 -339 165 -490 213 -174 55 -376 103 -530 125 -22 4 -51 8 -65 11 -14
2 -52 6 -85 10 -33 3 -71 8 -85 11 -28 6 -595 14 -601 9z"/>
<path d="M1882 5109 c-271 -232 -438 -414 -599 -654 -213 -317 -354 -680 -399
-1025 -18 -140 -23 -393 -10 -505 14 -117 18 -144 32 -215 70 -353 211 -680
427 -984 429 -605 1104 -1053 1871 -1241 77 -19 155 -37 171 -39 17 -3 41 -8
55 -10 14 -3 41 -7 60 -10 72 -10 136 -19 155 -22 49 -9 253 -18 400 -18 174
1 294 9 425 29 19 3 52 8 74 11 21 3 48 8 60 10 11 2 37 7 56 10 137 22 432
111 635 191 698 276 1171 686 1328 1154 127 377 43 770 -217 1017 -112 106
-230 169 -366 194 -206 39 -417 -19 -644 -176 -110 -76 -169 -128 -409 -366
-293 -288 -319 -311 -485 -421 -214 -142 -526 -267 -737 -295 -27 -3 -53 -8
-56 -10 -14 -8 -174 -18 -289 -18 -163 1 -227 7 -385 38 -333 66 -686 258
-938 510 -337 338 -529 742 -564 1191 -11 142 -5 386 12 474 2 10 6 36 9 57 4
22 9 55 12 74 4 19 8 42 9 50 2 8 8 35 15 60 7 25 14 54 16 66 11 61 85 282
139 414 25 61 184 387 205 420 36 57 98 170 92 169 -4 0 -76 -59 -160 -130z"/>
<path d="M2971 4205 c-265 -62 -490 -234 -624 -477 -26 -48 -90 -218 -82 -218
2 0 0 -11 -5 -24 -20 -53 -29 -219 -17 -311 12 -89 20 -123 44 -195 76 -231
255 -435 473 -542 82 -40 180 -74 238 -83 21 -3 49 -8 62 -10 59 -13 234 -6
313 11 9 2 27 6 39 9 205 45 429 201 553 387 171 254 210 573 106 857 -103
280 -319 485 -611 579 -91 29 -119 33 -260 37 -105 3 -142 0 -229 -20z"/>
</g>
</svg>
