<?xml version="1.0" standalone="no"?>
<!DOCTYPE svg PUBLIC "-//W3C//DTD SVG 1.1//EN" "http://www.w3.org/Graphics/SVG/1.1/DTD/svg11.dtd" >
<svg xmlns="http://www.w3.org/2000/svg">
<metadata>Generated by IcoMoon</metadata>
<defs>
<font id="font-awesome-pro-6-thin" horiz-adv-x="1024">
<font-face units-per-em="1024" ascent="960" descent="-64" />
<missing-glyph horiz-adv-x="1024" />
<glyph unicode="&#x20;" horiz-adv-x="512" d="" />
<glyph unicode="&#xe900;" glyph-name="00" horiz-adv-x="1280" d="M576 608v-320c0-159-129-288-288-288-159.060 0-288 129-288 288v320c0 159.060 128.94 288 288 288 159 0 288-128.94 288-288zM32 288c0-141.4 114.62-256 256-256 141.4 0 256 114.6 256 256v320c0 141.4-114.6 256-256 256-141.38 0-256-114.6-256-256v-320zM1280 608v-320c0-159-129-288-288-288s-288 129-288 288v320c0 159.060 129 288 288 288s288-128.94 288-288zM736 288c0-141.4 114.6-256 256-256s256 114.6 256 256v320c0 141.4-114.6 256-256 256s-256-114.6-256-256v-320z" />
<glyph unicode="&#xe901;" glyph-name="0" horiz-adv-x="640" d="M320 895.98c-176.74 0-320-143.26-320-320v-254.2c0-176.74 143.26-320 320-320s320 143.26 320 320v254.22c0 176.8-143.2 319.98-320 319.98zM608 320c0-158.8-129.2-288-288-288s-288 129.2-288 288v256c0 158.8 129.2 288 288 288s288-129.2 288-288v-256z" />
<glyph unicode="&#xe902;" glyph-name="1" horiz-adv-x="512" d="M512 16c0-8.812-7.156-16-16-16h-480c-8.844 0-16 7.2-16 16s7.156 16 16 16h224v820.12l-167.94-97.92c-7.66-4.4-17.4-1.8-21.88 5.8s-1.86 17.38 5.76 21.82l192 112c4.968 2.876 11.062 2.938 16.032 0.063s8.028-8.143 8.028-13.883v-848h224c8.8 0 16-7.2 16-16z" />
<glyph unicode="&#xe903;" glyph-name="2" horiz-adv-x="640" d="M640 16c0-8.8-7.2-16-17.8-16h-606.208c-6.656 0-12.594 4.124-14.938 10.312-2.376 6.188-0.656 13.25 4.312 17.624l453 403.2c103.38 89.18 115.38 240.2 27.54 343.8-43.6 51.5-105.060 82.82-173 88.12-68.306 5.484-134.246-15.896-185.826-60.276l-67.68-58.18c-6.68-5.8-16.78-5.2-22.56 1.6s-5 16.84 1.68 22.6l67.68 58.24c58.080 49.94 132.8 74.060 209.2 68.060 76.54-6.062 145.76-41.38 194.94-99.44 99.32-117.24 85.76-286.2-30.9-388.6l-421.4-375.2h564.2c10.56 0.14 17.76-7.060 17.76-15.86z" />
<glyph unicode="&#xe904;" glyph-name="3" horiz-adv-x="640" d="M640 248.6c0-137-111.6-248.6-248.6-248.6h-215.28c-79.66 0-150.12 50.82-175.32 126.38-2.782 8.376 1.75 17.438 10.124 20.24 8.438 2.75 17.438-1.75 20.24-10.124 20.836-62.496 79.096-104.496 144.956-104.496h215.2c119.44 0 216.6 97.18 216.6 216.6s-97.18 216.6-216.6 216.6h-247.32c-6.594 0-12.5 4.062-14.906 10.188s-0.774 13.212 4.066 17.612l401.84 371h-518.994c-8.844 0-14.2 7.188-14.2 16s5.356 16 14.2 16h558.2c6.594 0 12.5-4.062 14.906-10.188 2.406-6.124 0.781-13.124-4.062-17.562l-400.2-371h206.4c137.15-0.050 248.75-111.65 248.75-248.65z" />
<glyph unicode="&#xe905;" glyph-name="4" horiz-adv-x="768" d="M766.2 273.8c0-8.812-7.156-16-16-16l-110.2-0.008-0.001-238.2c0-8.812-7.156-16-16-16s-16 7.188-16 16v240h-592c-5.5 0-10.594 2.812-13.532 7.438-2.906 4.626-3.282 10.438-0.937 15.438l288 608c3.844 8 13.376 11.312 21.32 7.562 8-3.75 11.406-13.312 7.624-21.32l-277.2-585.2h566.8v398.29c0 8.812 7.156 16 16 16s16-7.188 16-16v-400h112c8.726 0 14.126-9 14.126-16z" />
<glyph unicode="&#xe906;" glyph-name="5" horiz-adv-x="640" d="M640 248.6c0-137-111.6-248.6-248.6-248.6h-211.92c-81.18 0-152.96 51.76-178.66 128.76-2.782 8.376 1.75 17.438 10.124 20.24 8.438 2.75 17.438-1.75 20.24-10.124 21.316-63.876 80.916-106.876 148.296-106.876h210.2c119.44 0 216.6 97.18 216.6 216.6s-97.18 216.6-216.6 216.6h-373.674c-4.906 0-9.532 2.25-12.562 6.124-3.031 3.876-4.125 8.876-3 13.676l94.2 398.8c3.556 7.14 9.956 12.2 17.356 12.2h446.2c8.844 0 14.2-7.188 14.2-16s-3.6-16-12.4-16h-435.4l-88.28-366.8h355c137.080 0 248.68-111.6 248.68-248.6z" />
<glyph unicode="&#xe907;" glyph-name="6" horiz-adv-x="640" d="M0 320c0-176.44 143.56-320 320-320s320 143.56 320 320-143.6 320-320 320c-42 0-81.8-8.6-118.6-23.4l242.2 252.4c6.124 6.376 5.876 16.5-0.5 22.62-3.1 2.88-8.9 4.38-11.1 4.38-4.188 0-8.376-1.625-11.562-4.938-340.758-353.262-420.438-407.262-420.438-571.062zM608 320c0-158.82-129.18-288-288-288s-288 129.2-288 288 129.18 288 288 288 288-129.2 288-288z" />
<glyph unicode="&#xe908;" glyph-name="7" horiz-adv-x="640" d="M637.6 871.5l-544-864c-3.1-4.9-8.28-7.5-13.6-7.5-2.938 0-5.876 0.812-8.5 2.438-7.5 4.75-9.75 14.624-5.062 22.060l528.562 839.502h-579c-8.812 0-16 7.18-16 16s7.188 16 16 16h608c5.812 0 11.188-3.188 14-8.25 2.8-5.13 2.6-11.37-0.4-16.25z" />
<glyph unicode="&#xe909;" glyph-name="8" horiz-adv-x="640" d="M462.4 456.8c76.4 38 129.6 116.2 129.6 207.2 0 127.94-105.8 232-232 232h-80c-127.94 0-232-104.060-232-232 0-91 53.14-169.14 129.58-207.2-101.64-24.6-177.58-115.6-177.58-224.8 0-126.2 104.060-232 232-232h176c126.2 0 232 105.8 232 232 0 109.2-76 200.2-177.6 224.8zM80 664c0 110.24 89.76 200 200 200h80c110.26 0 200-89.76 200-200s-89.8-200-200-200h-80c-110.24 0-200 89.8-200 200zM408 32h-176c-110.26 0-200 89.76-200 200s89.76 200 200 200h176c110.26 0 200-89.76 200-200s-89.8-200-200-200z" />
<glyph unicode="&#xe90a;" glyph-name="9" horiz-adv-x="640" d="M640 576c0 176.44-143.56 320-320 320s-320-143.56-320-320 143.56-320 320-320c41.98 0 81.88 8.622 118.66 23.4l-242.2-252.4c-6.124-6.376-5.876-16.5 0.5-22.62 3.040-2.98 5.24-4.38 11.040-4.38 4.188 0 8.376 1.625 11.562 4.938 340.838 355.062 420.438 407.262 420.438 571.062zM32 576c0 158.82 129.18 288 288 288s288-129.18 288-288-129.18-288-288-288-288 129.2-288 288z" />
<glyph unicode="&#xe90b;" glyph-name="degrees" horiz-adv-x="1280" d="M158.38 544h-44.2l218.2 261.8c3.938 4.782 4.812 11.406 2.188 17.032s-8.368 9.168-14.568 9.168h-304c-8.812 0-16-7.16-16-16s7.188-16 16-16h269.8l-218.12-261.8c-3.92-4.8-4.8-11.4-2.18-17s8.32-9.2 14.5-9.2h78.38c106.82 0 193.62-86.8 193.62-193.6v-28.76c0-106.84-86.8-193.64-193.62-193.64-54.24 0-104.76 25.82-128.62 65.82-4.562 7.594-14.5 10.094-21.94 5.532-7.624-4.532-10.062-14.376-5.562-21.96 29.982-50.192 89.802-81.392 156.122-81.392 124.42 0 225.62 101.2 225.62 225.6v28.76c0 124.44-101.2 225.64-225.62 225.64zM992 832c-88.26 0-158.2-71.78-158.2-160v-448c0-88.22 71.74-160 158.2-160s158.2 71.78 158.2 160v448c1.8 88.22-70 160-158.2 160zM1120 224c0-70.6-57.44-128-128-128s-128 57.4-128 128v448c0 70.6 57.44 128 128 128s128-57.4 128-128v-448zM608 544c-52.54 0-98.82-25.78-128-64.98v77.98c0 103.94 66.32 195.56 165.060 228l47.94 15.75c8.376 2.75 12.938 11.782 10.188 20.18-2.688 8.344-11.5 13-20.18 10.188l-48.008-15.678c-111.8-36.72-187-140.64-187-258.44v-333c0-88.22 71.74-160 158.2-160s158.2 71.78 158.2 160l3.6 160c0 88.2-71.8 160-160 160zM736 224c0-70.6-57.44-128-128-128s-128 57.4-128 128v160c0 70.6 57.44 128 128 128s128-57.4 128-128v-160zM1216 960c-35.34 0-62.2-28.66-62.2-64s28.66-64 62.2-64c35.4 0 64 28.66 64 64s-28.6 64-64 64zM1216 864c-17.644 0-32 14.356-32 32s14.356 32 32 32 32-14.356 32-32-14.4-32-32-32z" />
<glyph unicode="&#xe90c;" glyph-name="a" horiz-adv-x="768" d="M766.8 22.2l-368 864.88c-5 11.886-24.44 11.886-29.44 0l-368.072-864.88c-3.468-8.132 0.312-17.516 8.438-21.020 8.25-3.19 17.53 0.313 21 8.508l91.26 214.4h524l91.26-214.4c2.554-6.088 8.554-9.688 12.954-9.688 2.094 0 4.218 0.438 6.282 1.251 9.918 3.549 13.718 12.949 10.318 20.949zM135.6 256.2l248.4 583.78 248.4-583.8h-496.8z" />
<glyph unicode="&#xe90d;" glyph-name="abacus" horiz-adv-x="1152" d="M1024 896h-896c-70.7 0-128-57.3-128-128v-640c0-70.7 57.3-128 128-128h896c70.7 0 128 57.3 128 128v640c0 70.7-57.4 128-128 128zM848 864v-96h-16c-35.34 0-64-28.66-64-64s28.66-62.2 62.2-62.2l17.8-1.8v-80h-288v80l16 0.001c35.4-0.001 64 28.599 64 63.999s-28.66 64-64 64h-16v96h288zM928 704c0-17.674-14.326-32-30.2-32h-67.6c-17.674 0-30.2 14.328-30.2 32s14.326 30.2 30.2 30.2h64c19.4 1.8 33.8-12.6 33.8-30.2zM480 704c0 17.674 14.326 30.2 30.2 30.2h64c17.674 0 30.2-14.326 30.2-30.2s-14.326-32-30.2-32h-64c-15.8 0-30.2 14.4-30.2 32zM528 864v-96h-16c-35.34 0-64-28.66-64-64s28.66-62.2 62.2-62.2l17.8-1.8v-80h-224v80l16 0.001c35.4-0.001 64 28.599 64 63.999s-28.6 64-64 64h-16v96h224zM224 704c0 17.674 14.326 30.2 30.2 30.2h64c19.4 1.8 33.8-12.6 33.8-30.2s-14.4-32-32-32h-64c-17.6 0-32 14.4-32 32zM32 768c0 53.020 42.98 96 96 96h144v-96h-17.8c-33.6 0-62.2-28.6-62.2-64s28.66-62.2 62.2-62.2l17.8-1.8v-80h-240v208zM128 32c-53.020 0-96 42.98-96 96v400h240v-80h-17.8c-33.6 0-62.2-28.6-62.2-64s28.66-62.2 62.2-62.2l17.8-1.8v-64l-16 0.001c-35.4-0.001-64-28.601-64-64.001s28.66-62.2 62.2-62.2l17.8-1.8v-96h-144zM352 384c0-17.674-14.326-32-30.2-32h-64c-19.4 0-33.8 14.4-33.8 32s14.326 30.2 30.2 30.2h64c19.4 1.8 33.8-12.6 33.8-30.2zM352 192c0-17.674-14.326-32-30.2-32h-64c-19.4 0-33.8 14.4-33.8 32s14.326 30.2 30.2 30.2h64c19.4 1.8 33.8-12.6 33.8-30.2zM304 32v96l16 0.001c35.4-0.001 64 28.599 64 63.999s-28.66 64-62.2 64h-17.8v64l16 0.001c35.4-0.001 64 28.599 64 63.999s-28.66 64-62.2 64h-17.8v80h224v-80h-17.8c-33.6 0-62.2-28.6-62.2-64s28.66-62.2 62.2-62.2l17.8-1.8v-64l-16 0.001c-35.4-0.001-64-28.601-64-64.001s28.66-62.2 64-62.2l16-0.001v-96h-224zM608 384c0-17.674-14.326-32-30.2-32h-67.6c-15.8 0-30.2 14.4-30.2 32s14.326 30.2 30.2 30.2h64c19.4 1.8 33.8-12.6 33.8-30.2zM608 192c0-17.674-14.326-32-30.2-32h-67.6c-17.674 0-30.2 14.328-30.2 32s14.326 30.2 30.2 30.2h64c19.4 1.8 33.8-12.6 33.8-30.2zM560 32v96h16c35.34 0 64 28.66 64 62.2s-28.66 64-62.2 64l-17.8 1.8v64l16 0.001c35.4-0.001 64 28.599 64 63.999s-28.66 64-62.2 64h-17.8v80h288v-272l-16 0.001c-35.4-0.001-64-28.601-64-64.001s28.66-62.2 64-62.2l16-0.001v-96h-288zM928 192c0-17.674-14.326-32-30.2-32h-67.6c-17.674 0-30.2 14.328-30.2 32s14.326 30.2 30.2 30.2h64c19.4 1.8 33.8-12.6 33.8-30.2zM1120 128c0-53.020-42.98-96-96-96h-144v96h16c35.34 0 64 28.66 64 62.2s-28.66 64-62.2 64l-17.8 1.8v272h240v-400zM880 560v80l16 0.001c35.4-0.001 64 28.599 64 63.999s-28.66 64-64 64l-16-0.001v96h144c53.020 0 96-42.98 96-96v-208h-240z" />
<glyph unicode="&#xe90e;" glyph-name="accent-grave" horiz-adv-x="384" d="M189.28 928c15.036-0.003 29.4-3.73 41.56-10.774 23.12-13.368 38.94-36.040 43.42-62.2l45.14-263.4c3.344-19.414-7.738-38.38-26.36-45.14-4.44-1.686-9.24-2.486-14.040-2.486-14.536 0-28.1 7.75-35.4 20.22l-135.4 230.76c-13.394 22.88-15.89 50.34-6.824 75.32 12.104 33.44 49.064 57.7 87.904 57.7zM189.3 959.997c-50.12 0-100.46-30.26-116.2-78.78-14.1-33.937-10.74-71.277 7.5-102.437l135.38-230.8c13.376-22.86 37.68-36.060 63.020-36.060 8.328 0 16.762 1.423 24.96 4.4 33.18 12.034 52.96 45.98 46.98 80.62l-45.14 263.4c-6.090 35.62-27.58 66.4-58.9 84.5-17.7 10.378-37.7 15.153-57.6 15.157 0 0 0 0 0 0z" />
<glyph unicode="&#xe90f;" glyph-name="acorn" horiz-adv-x="896" d="M0.003 640c0 0 0 0 0 0s0 0 0 0zM894.2 640c0 0 0 0 0 0s0 0 0 0zM704 831.92l-240-0.003c0.031 2.382 1.316 57.040 57.6 99.26 7.062 5.312 8.5 15.344 3.218 22.4-5.312 7.062-15.344 8.532-22.4 3.218-69.6-52.22-70.4-121.92-70.4-124.86 0-0.031 0 0.031 0 0l-240.018-0.015c-105.98 0-191.98-85.96-190.2-191.94-1.789-35.18 26.96-63.98 62.2-63.98h32v-71.28c0-165.22 97.060-383 259.4-461.6l85.54-41.56c2.26-0.96 4.66-1.56 7.060-1.56s4.782 0.531 7 1.594l85.5 41.56c162.5 78.446 259.5 296.246 259.5 461.646v71.2h32c35.24 0 62.2 28.74 62.2 63.96 0 106.040-86 191.96-190.2 191.96zM768 504.8c0-155.34-90.32-359.6-241.4-432.8l-78.6-38.2-78.56 38.18c-151.040 73.020-241.44 277.42-241.44 432.82v71.2h640v-71.2zM832 608h-768c-17.636 0-30.2 14.378-30.2 32-1.78 88.2 70 159.92 158.2 159.92h512c88.2 0 159.98-71.76 158.2-159.94 0-17.58-12.6-31.98-30.2-31.98z" />
<glyph unicode="&#xe910;" glyph-name="address-book" d="M800 960h-640c-53.020 0-96-42.98-96-96v-832c0-53 42.98-96 96-96h640c53.020 0 96 42.98 96 96v832c0 53.020-43 96-96 96zM864 32c0-35.28-28.72-64-64-64h-640c-35.28 0-64 28.72-64 64v832c0 35.28 28.72 64 64 64h640c35.28 0 64-28.72 64-64v-832zM480 448c70.7 0 128 57.3 128 128s-57.3 128-128 128c-70.68 0-128-57.3-128-128s57.4-128 128-128zM480 672c53 0 96-43 96-96s-43.060-96-96-96-96 43-96 96 43 96 96 96zM992 832h-16c-8.8 0-16-7.16-16-16s7.164-16 16-16h16v-128h-16c-8.8 0-16-7.2-16-16s7.2-16 16-16h16c17.6 0 32 14.4 32 32v128c0 17.68-14.4 32-32 32zM992 320h-16c-8.8 0-16-7.2-16-16s7.164-16 16-16h16v-128h-16c-8.836 0-16-7.164-16-16s7.2-16 16-16h16c17.672 0 32 14.328 32 32v128c0 17.6-14.4 32-32 32zM992 576h-16c-8.8 0-16-7.2-16-16s7.164-16 16-16h16v-128h-16c-8.8 0-16-7.2-16-16s7.2-16 16-16h16c17.6 0 32 14.4 32 32v128c0 17.6-14.4 32-32 32zM544 384h-128c-88.2 0-160-71.8-160-160v-16c0-8.8 7.2-16 16-16s16 7.156 16 16v16c0 70.6 57.4 128 128 128h128c70.6 0 128-57.4 128-128v-16c0-8.844 7.156-16 16-16s16 7.2 16 16v16c0 88.2-71.8 160-160 160z" />
<glyph unicode="&#xe911;" glyph-name="address-card" horiz-adv-x="1152" d="M1008 336h-288c-8.8 0-16-7.2-16-16s7.156-16 16-16h288c8.844 0 16 7.156 16 16s-7.2 16-16 16zM352 448c70.7 0 128 57.3 128 128s-57.3 128-128 128c-70.68 0-128-57.3-128-128s57.4-128 128-128zM352 672c53 0 96-43 96-96s-43-96-96-96-96 43-96 96 43 96 96 96zM1024 896h-896c-70.7 0-128-57.3-128-128v-640c0-70.7 57.3-128 128-128h896c70.7 0 128 57.3 128 128v640c0 70.7-57.4 128-128 128zM1120 128c0-53.020-42.98-96-96-96h-896c-53.020 0-96 42.98-96 96v640c0 53.020 42.98 96 96 96h896c53.020 0 96-42.98 96-96v-640zM1008 464h-288c-8.8 0-16-7.2-16-16s7.156-16 16-16h288c8.8 0 16 7.2 16 16s-7.2 16-16 16zM1008 592h-288c-8.8 0-16-7.2-16-16s7.156-16 16-16h288c8.8 0 16 7.2 16 16s-7.2 16-16 16zM416 384h-128c-88.22 0-160-71.8-160-160v-16c0-8.8 7.16-16 16-16s16 7.156 16 16v16c0 70.6 57.4 128 128 128h128c70.6 0 128-57.4 128-128v-16c0-8.8 7.2-16 16-16s16 7.2 16 16v16c0 88.2-71.8 160-160 160z" />
<glyph unicode="&#xe912;" glyph-name="air-conditioner" horiz-adv-x="1152" d="M1024 960h-896c-70.7 0-128-57.3-128-128v-192c0-70.7 57.3-126.2 128-126.2h896c70.7 0 128 57.3 128 126.2v192c0 70.7-57.4 128-128 128zM1120 640c0-53.020-42.98-94.2-96-94.2h-896c-53.020 0-96 42.98-96 94.2v192c0 53.020 42.98 96 96 96h896c53.020 0 96-42.98 96-96v-192zM1008 704h-864c-8.844 0-16-7.156-16-16s7.156-16 16-16h864c8.844 0 16 7.156 16 16s-7.2 16-16 16zM496 448c-8.844 0-16-7.156-16-16v-320c0-79.4-64.6-144-144-144s-144 64.6-144 144v16c0 70.6 57.4 128 128 128 8.844 0 16 7.156 16 14.2s-7.156 16-16 16c-88.22 0-160-71.78-160-160v-15.998c0-97.060 78.94-176 176-176s176 78.94 176 176v321.798c0 8.8-7.2 16-16 16zM832 352c-8.844 0-16-7.156-16-16s7.156-14.2 16-14.2c70.6 0 128-57.4 128-128v-16c0-79.4-64.6-144-144-144s-144 64.6-144 144v256c0 8.844-7.156 16-16 16s-16-7.156-16-16v-254.2c0-97.060 78.94-176 176-176s176 78.94 176 176v15.998c0 84.602-71.8 156.402-160 156.402z" />
<glyph unicode="&#xe913;" glyph-name="airplay" horiz-adv-x="1152" d="M1008 896h-864c-79.38 0-144-64.62-144-144v-480c0-79.4 64.62-144 144-144h48c8.812 0 16 7.188 16 16s-7.2 16-16 16h-48c-61.76 0-112 50.24-112 112v480c0 61.76 50.24 112 112 112h864c61.76 0 112-50.24 112-112v-480c0-61.76-50.24-112-112-112h-48c-8.812 0-16-7.188-16-16s7.2-16 16-16h48c79.38 0 144 64.62 144 144v480c0 79.38-64.6 144-144 144zM615.2 367.8c-11 10.8-25 16.2-39.2 16.2-14.11 0-28.18-5.406-38.9-16.218l-265-273.6c-34.5-34.582-9.9-94.182 39.3-94.182h529.4c49.2 0 73.78 59.54 39.080 94.26l-264.68 273.54zM862.2 46.4c-1.8-2.6-7.6-14.4-21.6-14.4h-529.2c-13.98 0-19.644 10.032-21.42 14.344-1.789 4.312-4.882 15.414 5.336 25.64l264.6 273.2c4.284 4.416 8.284 6.816 16.084 6.816 6.18 0 12.012-2.43 16.054-6.468l265-272.2c9.946-11.532 5.146-22.732 5.146-26.932z" />
<glyph unicode="&#xe914;" glyph-name="alarm-clock" d="M187.44 959.999c49.16 0 93.96-18.983 127.36-48.199 6.6-7.8 7-17.92 1-24.4s-16.2-6.86-22.6-0.86c-27.8 25.74-65 41.46-105.76 41.46-85.84 0-155.44-69.6-155.44-155.44 0-30.76 8.9-59.36 24.24-83.36 4.76-7.4 2.56-17.4-4.9-22.2-7.44-4.6-17.34-2.4-22.080 5-18.53 29-29.26 63.6-29.26 100.56 0 103.52 83.92 187.44 187.44 187.44v-0.001zM528 359.6l152.2-123.2c8.6-5.4 9.8-15.4 4.2-20.6-5.4-8.6-15.4-9.8-22.4-4.2l-160 128c-3.8 3-7.8 7.6-7.8 12.4v272c0 8.8 9 16 16 16 10.6 0 17.8-7.2 17.8-16v-264.4zM68.68-59.4c-6.24 6.4-6.24 16.4 0 22.8l115.42 115.4c-74.52 80-120.1 189-120.1 305.2 0 247.4 200.6 448 448 448s448-200.6 448-448c0-116.2-45.6-225.2-120.2-305.2l115.6-115.4c6.2-6.4 6.2-16.4 0-22.8-6.4-6.2-16.4-6.2-22.8 0l-115.4 115.6c-80-74.6-189-120.2-305.2-120.2-118 0-225.2 45.6-305.2 120.2l-115.48-115.6c-6.26-6.2-16.38-6.2-22.64 0v0zM512-32c229.8 0 416 186.2 416 416s-186.2 416-416 416c-229.8 0-416-186.2-416-416s186.2-416 416-416zM709.2 911.8c33.4 29.216 78.2 48.199 127.4 48.199 103.4 0 187.4-83.919 187.4-187.439 0-36.96-10.8-71.56-29.2-100.56-6.6-7.4-14.6-9.6-22.2-5-7.4 4.8-9.6 14.8-4.8 22.2 15.4 24 24.2 52.6 24.2 83.36 0 85.84-69.6 155.44-155.4 155.44-40.8 0-78-15.72-105.8-41.46-6.4-6-16.6-5.62-22.6 0.86-6 6.46-5.6 16.6 1 24.4v0z" />
<glyph unicode="&#xe915;" glyph-name="alarm-exclamation" d="M187.44 959.999c49.16 0 93.96-18.983 127.36-48.199 6.6-7.8 7-17.92 1-24.4s-16.2-6.86-22.6-0.86c-27.8 25.74-65 41.46-105.76 41.46-85.84 0-155.44-69.6-155.44-155.44 0-30.76 8.9-59.36 24.24-83.36 4.76-7.4 2.56-17.4-4.9-22.2-7.44-4.6-17.34-2.4-22.080 5-18.53 29-29.26 63.6-29.26 100.56 0 103.52 83.92 187.44 187.44 187.44v-0.001zM544 192c0-17.6-14.4-32-32-32s-32 14.4-32 32c0 17.6 14.4 32 32 32s32-14.4 32-32zM528 304c0-8.8-7.2-16-16-16s-16 7.2-16 16v320c0 8.8 7.2 16 16 16s16-7.2 16-16v-320zM68.68-59.4c-6.24 6.4-6.24 16.4 0 22.8l115.42 115.4c-74.52 80-120.1 189-120.1 305.2 0 247.4 200.6 448 448 448s448-200.6 448-448c0-116.2-45.6-225.2-120.2-305.2l115.6-115.4c6.2-6.4 6.2-16.4 0-22.8-6.4-6.2-16.4-6.2-22.8 0l-115.4 115.6c-80-74.6-189-120.2-305.2-120.2-118 0-225.2 45.6-305.2 120.2l-115.48-115.6c-6.26-6.2-16.38-6.2-22.64 0v0zM512-32c229.8 0 416 186.2 416 416s-186.2 416-416 416c-229.8 0-416-186.2-416-416s186.2-416 416-416zM1024 772.56c0-36.96-10.8-71.56-29.2-100.56-6.6-7.4-14.6-9.6-22.2-5-7.4 4.8-9.6 14.8-4.8 22.2 15.4 24 24.2 52.6 24.2 83.36 0 85.84-69.6 155.44-155.4 155.44-40.8 0-78-15.72-105.8-41.46-6.4-6-16.6-5.62-22.6 0.86-6 6.46-5.6 16.6 1 24.4 33.4 29.214 78.2 48.197 127.4 48.197 103.4 0 187.4-83.917 187.4-187.437v0z" />
<glyph unicode="&#xe916;" glyph-name="alarm-plus" d="M187.44 959.999c49.16 0 93.96-18.983 127.36-48.199 6.6-7.8 7-17.92 1-24.4s-16.2-6.86-22.6-0.86c-27.8 25.74-65 41.46-105.76 41.46-85.84 0-155.44-69.6-155.44-155.44 0-30.76 8.9-59.36 24.24-83.36 4.76-7.4 2.56-17.4-4.9-22.2-7.44-4.6-17.34-2.4-22.080 5-18.53 29-29.26 63.6-29.26 100.56 0 103.52 83.92 187.44 187.44 187.44v-0.001zM512 592c8.8 0 16-7.2 16-16v-176h176c8.8 0 16-7.2 16-16s-7.2-16-16-16h-176v-176c0-8.8-7.2-16-16-16s-16 7.2-16 16v176h-176c-8.8 0-16 7.2-16 16s7.2 16 16 16h176v176c0 8.8 7.2 16 16 16zM68.68-59.4c-6.24 6.4-6.24 16.4 0 22.8l115.42 115.4c-74.52 80-120.1 189-120.1 305.2 0 247.4 200.6 448 448 448s448-200.6 448-448c0-116.2-45.6-225.2-120.2-305.2l115.6-115.4c6.2-6.4 6.2-16.4 0-22.8-6.4-6.2-16.4-6.2-22.8 0l-115.4 115.6c-80-74.6-189-120.2-305.2-120.2-118 0-225.2 45.6-305.2 120.2l-115.48-115.6c-6.26-6.2-16.38-6.2-22.64 0v0zM512-32c229.8 0 416 186.2 416 416s-186.2 416-416 416c-229.8 0-416-186.2-416-416s186.2-416 416-416zM1024 772.56c0-36.96-10.8-71.56-29.2-100.56-6.6-7.4-14.6-9.6-22.2-5-7.4 4.8-9.6 14.8-4.8 22.2 15.4 24 24.2 52.6 24.2 83.36 0 85.84-69.6 155.44-155.4 155.44-40.8 0-78-15.72-105.8-41.46-6.4-6-16.6-5.62-22.6 0.86-6 6.46-5.6 16.6 1 24.4 33.4 29.214 78.2 48.197 127.4 48.197 103.4 0 187.4-83.917 187.4-187.437v0z" />
<glyph unicode="&#xe917;" glyph-name="alarm-snooze" d="M315.8 887.4c-6-6.48-16.2-6.86-22.6-0.86-27.8 25.74-65 41.46-105.76 41.46-85.84 0-155.44-69.6-155.44-155.44 0-30.76 8.9-59.36 24.24-83.36 4.76-7.4 2.56-17.4-4.9-22.2-7.44-4.6-17.34-2.4-22.080 5-18.53 29-29.26 63.6-29.26 100.56 0 103.52 83.92 187.44 187.44 187.44 49.16 0 93.96-18.984 127.36-48.2 6.6-7.8 7-17.92 1-24.4v0zM640 576c6 0 11.6-3.4 14.2-8.8 2.8-5.4 2.2-11.8-1.2-16.6l-237.6-326.6h224.6c8.8 0 16-7.2 16-16s-7.2-16-16-16h-256c-7.8 0-11.6 3.4-14.2 8.8-2.8 7-2.2 11.8 1.2 16.6l237.6 326.6h-224.6c-8.8 0-16 7.2-16 16s7.2 16 16 16h256zM206.8 56.2l-115.48-115.6c-6.26-6.2-16.38-6.2-22.64 0-6.24 6.4-6.24 16.4 0 22.8l115.42 115.4c-74.52 80-120.1 189-120.1 305.2 0 247.4 200.6 448 448 448s448-200.6 448-448c0-116.2-45.6-225.2-120.2-305.2l115.6-115.4c6.2-6.4 6.2-16.4 0-22.8-6.4-6.2-16.4-6.2-22.8 0l-115.4 115.6c-80-74.6-189-120.2-305.2-120.2-118 0-225.2 45.6-305.2 120.2v0zM512 800c-229.8 0-416-186.2-416-416s186.2-416 416-416c229.8 0 416 186.2 416 416s-186.2 416-416 416zM709.2 911.8c33.4 29.216 78.2 48.199 127.4 48.199 103.4 0 187.4-83.919 187.4-187.439 0-36.96-10.8-71.56-29.2-100.56-6.6-7.4-14.6-9.6-22.2-5-7.4 4.8-9.6 14.8-4.8 22.2 15.4 24 24.2 52.6 24.2 83.36 0 85.84-69.6 155.44-155.4 155.44-40.8 0-78-15.72-105.8-41.46-6.4-6-16.6-5.62-22.6 0.86-6 6.46-5.6 16.6 1 24.4v0z" />
<glyph unicode="&#xe918;" glyph-name="album" horiz-adv-x="896" d="M512 448c0-35.4-28.6-64-64-64s-64 28.6-64 64c0 35.4 28.6 64 64 64s64-28.6 64-64zM448 480c-17.6 0-32-14.4-32-32s14.4-32 32-32c17.6 0 32 14.4 32 32s-14.4 32-32 32zM128 448c0 176.8 143.2 320 320 320s320-143.2 320-320c0-176.8-143.2-320-320-320s-320 143.2-320 320zM448 160c159 0 288 129 288 288s-129 288-288 288c-159 0-288-129-288-288s129-288 288-288zM768 896c70.6 0 128-57.3 128-128v-640c0-70.6-57.4-128-128-128h-640c-70.7 0-128 57.4-128 128v640c0 70.7 57.3 128 128 128h640zM768 864h-640c-53.020 0-96-42.98-96-96v-640c0-53 42.98-96 96-96h640c53 0 96 43 96 96v640c0 53.020-43 96-96 96z" />
<glyph unicode="&#xe919;" glyph-name="album-circle-plus" horiz-adv-x="1152" d="M768 864h-641.8c-51.22 0-96-42.98-96-96v-640c0-53 44.78-96 96-96h442.8c7.2-11.2 15-21.8 23.4-32h-464.4c-70.7 0-128 57.4-128 128v640c0 70.7 57.3 128 128 128h640c70.6 0 128-57.3 128-128v-193.4c-10.6 1-21.2 1.4-32 1.4v192c0 53.020-43 96-96 96v0zM446.2 768c140.4 0 258.4-88 302.8-211.2-10.2-3.6-20-7.4-29.8-11.8-39.8 111.4-146.2 191-273 191-157.2 0-288-129-288-288s130.8-288 288-288c25.4 0 48.2 2.8 70.2 8.2 1.6-10.6 3.8-21.2 6.4-31.4-24-5.8-49-8.8-76.6-8.8-175 0-320 143.2-320 320s145 320 320 320v0zM510.2 448c0-35.4-26.8-64-64-64-33.6 0-64 28.6-64 64s30.4 64 64 64c37.2 0 64-28.6 64-64zM446.2 480c-15.8 0-32-14.4-32-32s16.2-32 32-32c19.4 0 32 14.4 32 32s-12.6 32-32 32zM880 241.8h128c8.8 0 16-9 16-16 0-10.6-7.2-16-16-16h-128v-128c0-10.6-7.2-16-16-16s-16 5.4-16 16v128h-128c-8.8 0-16 5.4-16 16 0 7 7.2 16 16 16h128v128c0 7 7.2 16 16 16s16-9 16-16v-128zM1152 224c0-159-129-288-288-288s-289.8 129-289.8 288c0 159 130.8 288 289.8 288s288-129 288-288zM864 480c-141.4 0-256-114.6-256-256s114.6-256 256-256c141.4 0 256 114.6 256 256s-114.6 256-256 256z" />
<glyph unicode="&#xe91a;" glyph-name="album-circle-user" horiz-adv-x="1152" d="M768 864h-641.8c-51.22 0-96-42.98-96-96v-640c0-53 44.78-96 96-96h442.8c7.2-11.2 15-21.8 23.4-32h-464.4c-70.7 0-128 57.4-128 128v640c0 70.7 57.3 128 128 128h640c70.6 0 128-57.3 128-128v-193.4c-10.6 1-21.2 1.4-32 1.4v192c0 53.020-43 96-96 96v0zM446.2 768c140.4 0 258.4-88 302.8-211.2-10.2-3.6-20-7.4-29.8-11.8-39.8 111.4-146.2 191-273 191-157.2 0-288-129-288-288s130.8-288 288-288c25.4 0 48.2 2.8 70.2 8.2 1.6-10.6 3.8-21.2 6.4-31.4-24-5.8-49-8.8-76.6-8.8-175 0-320 143.2-320 320s145 320 320 320v0zM510.2 448c0-35.4-26.8-64-64-64-33.6 0-64 28.6-64 64s30.4 64 64 64c37.2 0 64-28.6 64-64zM446.2 480c-15.8 0-32-14.4-32-32s16.2-32 32-32c19.4 0 32 14.4 32 32s-12.6 32-32 32zM768 288c0 53 43 96 96 96s96-43 96-96c0-53-43-96-96-96s-96 43-96 96zM864 224c35.4 0 64 28.6 64 64s-28.6 64-64 64c-35.4 0-64-28.6-64-64s28.6-64 64-64zM1152 224c0-159-129-288-288-288s-289.8 129-289.8 288c0 159 130.8 288 289.8 288s288-129 288-288zM1013 35.8c-19 38-57.6 60.2-100.2 60.2h-97.6c-42.6 0-83-22.2-100.2-60.2l-6.8-15c43.2-33.2 97.2-52.8 155.8-52.8s112.6 19.6 155.8 52.8l-6.8 15zM1120 224c0 141.4-114.6 256-256 256s-256-114.6-256-256c0-71 28.8-135 75.4-181.4l3 5.8c24.4 48.8 74.2 79.6 128.8 79.6h97.6c54.6 0 104.4-30.8 128.8-79.6l3-5.8c46.6 46.4 75.4 110.4 75.4 181.4z" />
<glyph unicode="&#xe91b;" glyph-name="album-collection" d="M120 960h768c35.4 0 64-28.6 64-64v-16c0-8.8-7.2-16-16-16s-16 7.2-16 16v16c0 17.6-14.4 32-32 32h-768c-17.6 0-32-14.4-32-32v-16c0-8.8-7.2-16-16-16s-16 7.2-16 16v16c0 35.4 28.6 64 64 64zM24 736c0 35.4 28.6 64 64 64h832c35.4 0 64-28.6 64-64v-16c0-8.8-7.2-16-16-16s-16 7.2-16 16v16c0 17.6-14.4 32-32 32h-832c-17.6 0-32-14.4-32-32v-16c0-8.8-7.2-16-16-16s-16 7.2-16 16v16zM0.4 534.8c-5.4 56.4 39 105.2 95.6 105.2h816c56.6 0 101-48.8 95.6-105.2l-48.8-512c-4.6-49.2-46-86.8-95.6-86.8h-718.4c-49.4 0-90.8 37.6-95.6 86.8l-48.8 512zM96 608c-37.8 0-67.2-32.4-63.8-70l48.8-512c3.2-32.8 30.8-58 63.8-58h718.4c33 0 60.6 25 63.8 58l48.8 512c3.6 37.6-26 70-63.8 70h-816zM824 280c0 60.6-32.6 117.8-90.2 161s-138.8 71-229.8 71-172-27.6-229.8-71-90.2-100.4-90.2-161 32.6-117.8 90.2-161 138.8-71 229.8-71 172 27.6 229.8 71 90.2 100.4 90.2 161zM856 280c0-145.8-157.6-264-352-264s-352 118.2-352 264 157.6 264 352 264 352-118.2 352-264zM555.6 222.8c-14.6-9.8-33-14.8-51.6-14.8s-37 5-51.6 14.8c-14.4 9.6-28.4 26.4-28.4 49.2s14 39.6 28.4 49.2c14.6 9.8 33 14.8 51.6 14.8s37-5 51.6-14.8c14.4-9.6 28.4-26.4 28.4-49.2s-14-39.6-28.4-49.2zM504 240c26.6 0 48 14.4 48 32s-21.4 32-48 32-48-14.4-48-32 21.4-32 48-32z" />
<glyph unicode="&#xe91c;" glyph-name="album-collection-circle-plus" horiz-adv-x="1280" d="M896 960c35.4 0 64-28.66 64-64v-16c0-8.84-7.2-16-16-16s-16 7.16-16 16v16c0 17.68-14.4 32-32 32h-768c-17.68 0-32-14.32-32-32v-16c0-8.84-7.16-16-16-16s-16 7.16-16 16v16c0 35.34 28.66 64 64 64h768zM32 736c0 35.34 28.66 64 64 64h832c35.4 0 64-28.66 64-64v-16c0-8.8-7.2-16-16-16s-16 7.2-16 16v16c0 17.6-14.4 32-32 32h-832c-17.68 0-32-14.4-32-32v-16c0-8.8-7.16-16-16-16s-16 7.2-16 16v16zM8.414 534.8c-5.368 56.4 38.946 105.2 95.566 105.2h816.020c42.4 0 77.8-27.2 90.8-64.4-6.2 0.2-12.6 0.4-18.8 0.4-5.4 0-11-0.2-16.4-0.4-10.8 19.2-31.6 32.4-55.6 32.4h-816.020c-37.74 0-67.28-32.4-63.72-70l48.78-512c3.12-33 30.7-58 63.7-58h597.66c12.2-11.6 25.4-22.2 39.2-32h-636.86c-49.5 0-90.88 37.6-95.56 86.8l-48.766 512zM512 544c90.2 0 172.6-25.4 234.8-67.4-7.6-7.6-15.2-15.4-22.2-23.6-56 36.4-130.2 59-212.6 59-91 0-173.8-27.6-229.8-71-57.6-43.2-90.2-100.4-90.2-161s32.6-117.8 90.2-161c56-43.4 138.8-71 229.8-71 58.4 0 112.6 11.4 159.2 31 4.4-9.8 9.2-19.4 14.6-28.6-51.4-22-110.6-34.4-173.8-34.4-194.4 0-352 118.2-352 264s157.6 265.8 352 265.8v-1.8zM563.6 222.8c-14.6-9.8-33-14.8-51.6-14.8s-37 5-51.6 14.8c-16.2 9.6-28.4 26.4-28.4 49.2s12.2 39.6 28.4 49.2c14.6 9.8 33 14.8 51.6 14.8s37-5 51.6-14.8c14.4-9.6 28.4-26.4 28.4-49.2s-14-39.6-28.4-49.2zM512 240c26.6 0 48 14.4 48 32s-21.4 32-48 32c-26.6 0-48-14.4-48-32s21.4-32 48-32zM1008 241.8h128c8.8 0 16-9 16-16 0-10.6-7.2-16-16-16h-128v-128c0-10.6-7.2-16-16-16s-16 5.4-16 16v128h-128c-8.8 0-16 5.4-16 16 0 7 7.2 16 16 16h128v128c0 7 7.2 16 16 16s16-9 16-16v-128zM1280 224c0-159-129-288-288-288s-288 129-288 288c0 159 129 288 288 288s288-129 288-288zM992 480c-141.4 0-256-114.6-256-256s114.6-256 256-256c141.4 0 256 114.6 256 256s-114.6 256-256 256z" />
<glyph unicode="&#xe91d;" glyph-name="album-collection-circle-user" horiz-adv-x="1280" d="M896 960c35.4 0 64-28.66 64-64v-16c0-8.84-7.2-16-16-16s-16 7.16-16 16v16c0 17.68-14.4 32-32 32h-768c-17.68 0-32-14.32-32-32v-16c0-8.84-7.16-16-16-16s-16 7.16-16 16v16c0 35.34 28.66 64 64 64h768zM32 736c0 35.34 28.66 64 64 64h832c35.4 0 64-28.66 64-64v-16c0-8.8-7.2-16-16-16s-16 7.2-16 16v16c0 17.6-14.4 32-32 32h-832c-17.68 0-32-14.4-32-32v-16c0-8.8-7.16-16-16-16s-16 7.2-16 16v16zM8.414 534.8c-5.368 56.4 38.946 105.2 95.566 105.2h816.020c42.4 0 77.8-27.2 90.8-64.4-6.2 0.2-12.6 0.4-18.8 0.4-5.4 0-11-0.2-16.4-0.4-10.8 19.2-31.6 32.4-55.6 32.4h-816.020c-37.74 0-67.28-32.4-63.72-70l48.78-512c3.12-33 30.7-58 63.7-58h597.66c12.2-11.6 25.4-22.2 39.2-32h-636.86c-49.5 0-90.88 37.6-95.56 86.8l-48.766 512zM512 544c90.2 0 172.6-25.4 234.8-67.4-7.6-7.6-15.2-15.4-22.2-23.6-56 36.4-130.2 59-212.6 59-91 0-173.8-27.6-229.8-71-57.6-43.2-90.2-100.4-90.2-161s32.6-117.8 90.2-161c56-43.4 138.8-71 229.8-71 58.4 0 112.6 11.4 159.2 31 4.4-9.8 9.2-19.4 14.6-28.6-51.4-22-110.6-34.4-173.8-34.4-194.4 0-352 118.2-352 264s157.6 265.8 352 265.8v-1.8zM563.6 222.8c-14.6-9.8-33-14.8-51.6-14.8s-37 5-51.6 14.8c-16.2 9.6-28.4 26.4-28.4 49.2s12.2 39.6 28.4 49.2c14.6 9.8 33 14.8 51.6 14.8s37-5 51.6-14.8c14.4-9.6 28.4-26.4 28.4-49.2s-14-39.6-28.4-49.2zM512 240c26.6 0 48 14.4 48 32s-21.4 32-48 32c-26.6 0-48-14.4-48-32s21.4-32 48-32zM896 288c0 53 43 96 96 96s96-43 96-96c0-53-43-96-96-96s-96 43-96 96zM992 224c35.4 0 64 28.6 64 64s-28.6 64-64 64c-35.4 0-64-28.6-64-64s28.6-64 64-64zM1280 224c0-159-129-288-288-288s-288 129-288 288c0 159 129 288 288 288s288-129 288-288zM1141 35.8c-19 38-57.6 60.2-100.2 60.2h-97.6c-42.6 0-83-22.2-100.2-60.2l-6.8-15c43.2-33.2 97.2-52.8 155.8-52.8s112.6 19.6 155.8 52.8l-6.8 15zM1248 224c0 141.4-114.6 256-256 256s-256-114.6-256-256c0-71 28.8-135 75.4-181.4l3 5.8c24.4 48.8 74.2 79.6 128.8 79.6h97.6c54.6 0 104.4-30.8 128.8-79.6l3-5.8c46.6 46.4 75.4 110.4 75.4 181.4z" />
<glyph unicode="&#xe91e;" glyph-name="alicorn" horiz-adv-x="1280" d="M928 830.62c-17.672 0-32-14.328-32-32s14.328-32 32-32 32 14.328 32 32-14.4 32-32 32zM1264 896l-186.78-0.001c4.316 8.324 8.242 16.872 10.122 26.16 1.875 9.25-0.5 18.812-6.562 26.18-6.062 7.406-15 11.656-24.5 11.656h-248.8c-137.76 0-255-115.46-263.4-255.6-177.68 3.805-214.48 171.525-215.88 178.785-1.4 6.72-7 11.84-13.8 12.7-6.6 0.56-13.4-2.82-16.4-8.98-2.4-5.18-44.2-95.020-41.8-195.1-30.18-10.836-57.12-28.44-78.24-51.86h-33.96c-79.38 0-144-64.6-144-144v-160c0-8.844 7.188-16 16-16s16 7.156 16 16v160c0 61.76 50.24 112 112 112h10.624c-16.484-28.34-26.624-60.74-26.624-95.94 0-58.84 27.040-110.86 68.72-146.080l-22.22-43.52c-39.38-76.8-46.5-90.8-46.5-124.2 0-9.812 1.812-24.76 4.188-33.96l47.94-191.9c5.124-20.34 25.62-36.32 46.56-36.32h125.312c14.876 0 28.68 6.718 37.82 18.468 9.124 11.718 12.312 26.72 8.438 42.1l-61.060 194.060 55.38 110.76 167.422-58.008v-259.6c0-26.46 21.58-46.2 48-46.2l112-1.6c26.44 0 48 21.54 48 48v321.8c39.020 35.14 62.2 85.64 62.2 142.28 0 0.070 0-0.070 0 0l1.8 208.12 11.376-4.062 33.76-67.22c13.594-27.020 41.38-43.040 70.14-43.040 9.602 0 19.296 1.781 28.62 5.532l63.060 25.22c27.5 10.968 49 42.82 49 72.46l-0.121 144.22 182.3 75.96c7.062 2.938 11.062 10.438 9.562 17.906-1.497 7.444-8.097 12.824-15.697 12.824zM1027 602.2l-63.14-25.24c-22.14-8.922-47.74 1.367-58.2 22.18l-33.76 67.22c-6.656 13.25-37.44 30.62-58.4 15.86-8.5-6.020-13.5-15.62-13.5-26.020 0 0-0.016-208.6 0-209-0.234-45-19.18-86.74-53.42-117.58-6.78-6.020-10.58-14.82-10.58-23.82v-321.8c0-8.82-7.18-16-16-16h-112c-8.828 0-16 7.18-16 16v259.6c0 14.688-9.992 27.48-24.24 31.040l-167.36 57.76c-12.75 3.188-28.9-1.734-36.4-16.734l-55.38-110.76c-3.704-7.422-4.39-16-1.898-23.92l60.56-192.28c3.118-12.306-5.882-20.706-15.282-20.706h-125.4c-6.296 0-13.984 6.008-15.516 12.070l-48 192.14c-1.604 6.59-3.084 18.79-3.084 25.99 0 25 3.632 32.8 43 109.64l22.24 43.54c6.758 13.25 3.5 29.4-7.852 39-36.468 30.82-57.388 75.22-57.388 121.62 0 66.4 40.92 122.92 98.68 147 3.72-28.6 11.52-57.4 25.72-84.6 39.12-75.18 116.94-123.040 231.4-142.22 0.875-0.156 1.75-0.219 2.624-0.219 7.688 0 14.438 5.532 15.75 13.344 1.5 8.718-4.376 16.968-13.124 18.438-104.050 17.457-174.050 59.657-208.25 125.257-43.6 83.8-20 188.060-1.2 244.060 25.2-59.3 89-157.66 232.4-160.46l32-0.6 0.006 32c8.328 123.66 111.82 222.2 231.4 222.2h248.4c-3.204-15.242-11.546-29.080-24.14-40.040-15.39-13.376-13.188-34.54-2.304-46.1 14.188-15.062 26.36-24.68 26.36-46.32l0.125-150.54c-1.647-14.8-13.447-34.8-28.847-41zM1082.8 821.86c-3.536 9.868-8.672 19.11-15.976 26.96l-14.046 15.094c0.063 0.055-0.063-0.055 0 0l131.222 0.086-101.2-42.14z" />
<glyph unicode="&#xe91f;" glyph-name="alien" horiz-adv-x="896" d="M234.2 537.8h-72c-18.16 0-34.2-17.8-34.2-36 0-99.28 80.72-179.98 178.2-179.98h72c20-0.020 37.8 15.98 37.8 35.98 0 97.6-80.8 180-181.8 180zM378.2 353.8h-72c-79.8 0-146.2 64.6-146.2 148 0 2.282 1.719 4 3.998 4h72c81.602 0 148.002-68.2 148.002-148 0-4-1.8-4-5.8-4zM730.2 537.8h-72c-97.4 0-178.2-82.4-178.2-180 0-19.968 15.782-34.2 35.74-34.2l72.24-0.001c99.22-1.799 180.020 77.201 180.020 178.201 0 18.2-17.8 36-37.8 36zM586.2 353.8h-72c-0.4 0-2.2 0-2.2 4 0 81.6 66.4 147.98 146.2 147.98h72c2.282 0 4.002-1.719 4.002-4 1.798-83.38-64.602-147.98-148.002-147.98zM448 960c-247.6 0-448-174.2-448-465 0-223.4 268.6-449 389.8-539.8 17.2-12.8 37.8-19.2 58.2-19.2s41 6.438 58.24 19.312c121.36 92.488 389.76 316.288 389.76 539.688 0 290.8-200.4 465-448 465zM487.2-19c-11.4-8.6-25-13-39.2-13s-27.76 4.48-39.080 12.93c-113.32 84.87-376.92 304.67-376.92 514.070 0 255 171.060 433 416 433s416-178.040 416-433c0-209.4-263.6-429.2-376.8-514z" />
<glyph unicode="&#xe920;" glyph-name="alien-8bit" horiz-adv-x="1152" d="M1120 704h-64c-17.75 0-32-14.25-32-30.2v-160h-64v94.2c0 17.75-14.25 32-32 32h-96v128h64c17.75 0 32 14.25 32 30.2v64c0 17.75-14.25 32-32 32l-96-0.001c-17.75 0-32-14.25-32-32v-30.2h-32c-17.75 0-32-14.25-32-32v-96h-256v96c0 17.75-14.25 32-32 32l-32 0.001v32c0 17.75-14.25 32-32 32h-96c-17.75 0-32-14.25-32-32v-64c0-17.75 14.25-30.2 32-30.2h64v-128h-96c-17.75 0-32-14.25-32-32v-96h-64v158.2c0 17.8-14.24 32-32 32h-64c-17.75 0-32-14.25-32-30.2v-256c0-17.75 14.25-32 32-32h96v-160c0-17.75 14.25-32 32-32h96v-160c0-17.75 14.25-32 32-32h192c17.75 0 32 14.25 32 30.2v62.2c0 17.75-14.25 32-32 32h-96v64h384v-64h-96c-17.75 0-32-14.25-32-32v-62.2c0-17.75 14.25-30.2 32-30.2h192c17.75 0 32 14.25 32 32v160h96c17.75 0 32 14.25 32 32v160h96c17.75 0 32 14.25 32 32v256c0 16-14.2 30.2-32 30.2zM480 96v-64h-192v160l64 0.001v-96h128zM864 32h-192v64h128v96l64-0.001v-159.999zM1120 416h-128v-192h-832v192h-128v256l64 0.001v-192l128-0.001v128h128v192h-96v64h96v-64h64v-128h320v128h64v64h96v-64h-96v-192h128v-128l128 0.001v192l64-0.001v-256zM416 512l-64-0.001c-17.672 0-32-14.324-32-32v-128c0-17.672 14.328-32 32-32h64c17.672 0 32 14.328 32 32v128c0 17.601-14.4 32.001-32 32.001zM416 352l-64-0.001v128h64v-127.999zM800 512l-64 0.001c-17.672 0-32-14.324-32-32v-128c0-17.672 14.328-32 32-32h64c17.672 0 32 14.328 32 32v128c0 17.599-14.4 31.999-32 31.999zM800 352l-64 0.001v127.999h64v-128z" />
<glyph unicode="&#xe921;" glyph-name="align-center" horiz-adv-x="896" d="M688 848c8.8 0 16-7.16 16-16s-7.2-16-16-16h-480c-8.84 0-16 7.16-16 16s7.16 16 16 16h480zM880 592c8.8 0 16-7.2 16-16s-7.2-16-16-16h-864c-8.836 0-16 7.2-16 16s7.164 16 16 16h864zM192 320c0 8.8 7.16 16 16 16h480c8.8 0 16-7.2 16-16s-7.2-16-16-16h-480c-8.84 0-16 7.2-16 16zM880 80c8.8 0 16-7.2 16-16s-7.2-16-16-16h-864c-8.836 0-16 7.2-16 16s7.164 16 16 16h864z" />
<glyph unicode="&#xe922;" glyph-name="align-justify" horiz-adv-x="896" d="M880 848c8.8 0 16-7.16 16-16s-7.2-16-16-16h-864c-8.836 0-16 7.16-16 16s7.164 16 16 16h864zM0 576c0 8.8 7.164 16 16 16h864c8.8 0 16-7.2 16-16s-7.2-16-16-16h-864c-8.836 0-16 7.2-16 16zM880 336c8.8 0 16-7.2 16-16s-7.2-16-16-16h-864c-8.836 0-16 7.2-16 16s7.164 16 16 16h864zM880 80c8.8 0 16-7.2 16-16s-7.2-16-16-16h-864c-8.836 0-16 7.2-16 16s7.164 16 16 16h864z" />
<glyph unicode="&#xe923;" glyph-name="align-left" horiz-adv-x="896" d="M560 848c8.8 0 16-7.16 16-16s-7.2-16-16-16h-544c-8.836 0-16 7.16-16 16s7.164 16 16 16h544zM880 592c8.8 0 16-7.2 16-16s-7.2-16-16-16h-864c-8.836 0-16 7.2-16 16s7.164 16 16 16h864zM0 320c0 8.8 7.164 16 16 16h544c8.8 0 16-7.2 16-16s-7.2-16-16-16h-544c-8.836 0-16 7.2-16 16zM880 80c8.8 0 16-7.2 16-16s-7.2-16-16-16h-864c-8.836 0-16 7.2-16 16s7.164 16 16 16h864z" />
<glyph unicode="&#xe924;" glyph-name="align-right" horiz-adv-x="896" d="M880 848c8.8 0 16-7.16 16-16s-7.2-16-16-16h-544c-8.8 0-16 7.16-16 16s7.2 16 16 16h544zM880 592c8.8 0 16-7.2 16-16s-7.2-16-16-16h-864c-8.836 0-16 7.2-16 16s7.164 16 16 16h864zM880 304h-544c-8.8 0-16 7.2-16 16s7.2 16 16 16h544c8.8 0 16-7.2 16-16s-7.2-16-16-16zM880 80c8.8 0 16-7.2 16-16s-7.2-16-16-16h-864c-8.836 0-16 7.2-16 16s7.164 16 16 16h864z" />
<glyph unicode="&#xe925;" glyph-name="align-slash" horiz-adv-x="1280" d="M1272.2-35.4c8.6-5.6 9.8-15.6 4.4-20.8-5.6-8.6-15.6-9.8-22.6-4.4l-1247.956 992.080c-6.917 5.5-8.068 15.558-2.568 22.476 5.498 6.917 15.564 8.068 22.484 2.568l1246.24-991.924zM549.4 337.8l40.6-33.8h-383.8c-7.040 0-16 7.2-16 17.8 0 7 8.96 16 16 16h343.2zM1054.8 304l-40.6 33.8h57.8c8.8 0 16-9 16-16 0-10.6-7.2-17.8-16-17.8h-17.2zM1072 561.8h-341.4l-42.4 32h383.8c8.8 0 16-9 16-16 0-10.6-7.2-16-16-16zM206.2 561.8c-7.040 0-16 5.4-16 16 0 7 8.96 16 16 16h19l40.6-32h-59.6zM1088 833.8c0-10.64-7.2-16-16-16h-665.8l-40.4 32h706.2c8.8 0 16-8.96 16-16v0zM206.2 48c-7.040 0-16 7.2-16 16s8.96 16 16 16h667.6l40.4-32h-708z" />
<glyph unicode="&#xe926;" glyph-name="alt" horiz-adv-x="1280" d="M832 80c0-8.836 7.164-16 16-16h416c8.836 0 16 7.164 16 16s-7.164 16-16 16h-416c-8.8 0-16-7.2-16-16zM1280 816c0 8.82-7.2 16-16 16h-273.6c-44.62 0-85.94-20.12-113.44-55.24l-499.16-637.76c-21.4-27.4-53.4-43-88.2-43h-273.6c-8.812 0-16-7.2-16-16s7.188-16 16-16h273.6c44.62 0 85.94 20.12 113.44 55.24l499.2 637.8c21.36 27.28 53.36 42.96 88.16 42.96h273.6c8.8 0 16 7.18 16 16z" />
<glyph unicode="&#xe927;" glyph-name="ampersand" horiz-adv-x="768" d="M763.6 27l-158.24 166.6 159.74 229.2c5.062 7.25 3.25 17.218-4 22.28-7.124 5-17.124 3.312-22.24-3.968l-154.2-223.8-268.060 280.288 151.68 121.16c37.94 29.76 59.68 74 59.68 121.38-1.76 85.96-71.76 155.86-160.16 155.86h-95.6c-88.32 0-162-69.9-162-155.8 0-47.18 18.062-92.32 50.88-127.12l106.56-112.18-193.32-155.9c-47.24-37-74.32-92.040-74.32-151.040 0-106.96 89.5-193.96 199.5-193.96h139.12c82.12 0 158.82 39.32 205.2 105.26l42.88 61.56 153.68-161.84c3.22-3.38 7.42-4.98 9.82-4.98 3.938 0 7.938 1.469 11 4.406 8.2 5.994 8.4 16.194 2.4 22.594zM186.12 635c-27.18 28.8-43.92 66.2-43.92 105.2 0 68.26 59.2 123.8 130 123.8h95.62c70.68 0 128.18-55.54 128.18-123.82 0-37.5-17.312-72.56-47.56-96.28l-153.84-122.9-108.48 114zM517.6 123.6c-40.4-57.4-107.2-91.6-179-91.6h-139.12c-92.38 0-167.5 72.66-167.5 161.94 0 49.1 22.62 94.94 62.18 125.94l197.38 157.72 272.6-287-46.54-67z" />
<glyph unicode="&#xe928;" glyph-name="amp-guitar" d="M896 768h-72.7c-29.1 33-166.7 192-311.3 192s-284-159-311.4-192h-72.6c-70.7 0-128-57.4-128-128v-576c0-70.7 57.3-128 128-128h768c70.7 0 128 57.3 128 128v576c0 70.6-57.4 128-128 128zM512 928c109.7 0 222.2-108.98 268.8-160h-537.6c46.6 51.020 159 160 268.8 160zM992 64c0-52.94-43.060-96-96-96h-768c-52.94 0-96 43.060-96 96v352h960v-352zM992 448h-960v192c0 52.94 43.060 96 96 96h768c52.94 0 96-43.060 96-96v-192zM704 256c17.672 0 32 14.328 32 32s-14.4 32-32 32-32-14.328-32-32 14.4-32 32-32zM704 128c-17.672 0-32-14.328-32-32s14.4-32 32-32 32 14.328 32 32-14.4 32-32 32zM640 160c17.672 0 32 14.328 32 32s-14.328 32-32 32-32-14.328-32-32 14.4-32 32-32zM832 256c17.672 0 32 14.328 32 32s-14.4 32-32 32-32-14.328-32-32 14.4-32 32-32zM832 128c-17.672 0-32-14.328-32-32s14.4-32 32-32 32 14.328 32 32-14.4 32-32 32zM768 160c17.672 0 32 14.328 32 32s-14.328 32-32 32-32-14.328-32-32 14.4-32 32-32zM448 128c-17.672 0-32-14.328-32-32s14.4-32 32-32 32 14.328 32 32-14.4 32-32 32zM320 128c-17.672 0-32-14.328-32-32s14.4-32 32-32 32 14.328 32 32-14.4 32-32 32zM576 256c17.672 0 32 14.328 32 32s-14.4 32-32 32-32-14.328-32-32 14.4-32 32-32zM576 128c-17.672 0-32-14.328-32-32s14.4-32 32-32 32 14.328 32 32-14.4 32-32 32zM512 160c17.672 0 32 14.328 32 32s-14.328 32-32 32-32-14.4-32-32 14.4-32 32-32zM192 64c17.672 0 32 14.328 32 32s-14.4 32-32 32-32-14.328-32-32 14.32-32 32-32zM192 256c17.672 0 32 14.328 32 32s-14.4 32-32 32-32-14.328-32-32 14.32-32 32-32zM320 256c17.672 0 32 14.328 32 32s-14.4 32-32 32-32-14.328-32-32 14.4-32 32-32zM384 160c17.672 0 32 14.328 32 32s-14.4 32-32 32-32-14.4-32-32 14.4-32 32-32zM256 160c17.672 0 32 14.328 32 32s-14.4 32-32 32-32-14.4-32-32 14.4-32 32-32zM448 256c17.672 0 32 14.328 32 32s-14.4 32-32 32-32-14.328-32-32 14.4-32 32-32zM640 640c-35.34 0-64-28.66-64-64s28.66-64 64-64 64 28.66 64 64c0 35.4-28.6 64-64 64zM640 544c-17.644 0-32 14.356-32 32s14.356 32 32 32 32-14.356 32-32-14.4-32-32-32zM832 640c-35.34 0-64-28.66-64-64s28.66-64 64-64 64 28.66 64 64c0 35.4-28.6 64-64 64zM832 544c-17.644 0-32 14.356-32 32s14.356 32 32 32 32-14.356 32-32-14.4-32-32-32zM192 640c-35.34 0-64-28.6-64-64 0-35.34 28.66-64 64-64s64 28.66 64 64c0 35.4-28.6 64-64 64zM192 544c-17.64 0-32 14.4-32 32s14.36 32 32 32 32-14.4 32-32-14.4-32-32-32zM384 640c-35.4 0-64-28.6-64-64 0-35.34 28.66-64 64-64s64 28.66 64 64c0 35.4-28.6 64-64 64zM384 544c-17.6 0-32 14.4-32 32s14.4 32 32 32 32-14.4 32-32-14.4-32-32-32z" />
<glyph unicode="&#xe929;" glyph-name="anchor" horiz-adv-x="1152" d="M736 800c0-83-63.2-151.2-145.8-159.2 0-0.2 1.8-0.6 1.8-0.8v-96h160c8.8 0 16-7.2 16-16s-7.2-16-16-16h-160v-544h16c203.2 0 368 164.8 368 368v54.4l-116.2-129.2c-7.6-6.4-16-7-22.6-1-6.4 7.6-7 16-1 22.6l144 160c3 5 7.2 5.2 11.8 5.2s8.8-0.2 11.8-5.2l144-160c6-6.6 5.4-15-1-22.6-6.6-6-16.8-5.4-22.6 1l-116.2 129.2v-54.4c0-221-179-400-400-400h-64c-221 0-400 179-400 400v54.4l-116.1-129.2c-5.92-6.4-16.036-7-22.604-1-6.567 7.6-7.1 16-1.188 22.6l143.992 160c3.040 5 7.36 5.2 11.9 5.2s8.86-0.2 11.9-5.2l143.9-160c6-6.6 5.4-15-1-22.6-6.6-6-16.8-5.4-22.6 1l-116.2 129.2v-54.4c0-203.2 164.8-368 368-368h16v544h-160c-8.8 0-16 7.2-16 16s7.2 16 16 16h160v96c0 0.2 0 0.6 0 0.8-80.8 8-144 76.2-144 159.2 0 88.36 71.6 160 160 160s160-71.64 160-160v0zM576 672c70.6 0 128 57.4 128 128 0 70.7-57.4 128-128 128s-128-57.3-128-128c0-70.6 57.4-128 128-128z" />
<glyph unicode="&#xe92a;" glyph-name="anchor-circle-check" horiz-adv-x="1280" d="M736 800c0-83-63.2-151.2-145.8-159.2 0-0.2 1.8-0.6 1.8-0.8v-96h160c8.8 0 16-7.2 16-16s-7.2-16-16-16h-160v-544h16c42.8 0 82.2 7.4 122.2 20.8 6-7 16-17 24.6-25-45.4-18-95-27.8-146.8-27.8h-64c-221 0-400 179-400 400v54.4l-116.1-129.2c-5.92-6.4-16.036-7-22.604-1-6.568 7.6-7.1 16-1.188 22.6l143.992 160c3.040 5 7.36 5.2 11.9 5.2s8.86-0.2 11.9-5.2l143.9-160c6-6.6 5.4-15-1-22.6-6.6-6-16.8-5.4-22.6 1l-116.2 129.2v-54.4c0-203.2 164.8-368 368-368h16v544h-160c-8.8 0-16 7.2-16 16s7.2 16 16 16h160v96c0 0.2 0 0.6 0 0.8-80.8 8-144 76.2-144 159.2 0 88.36 71.6 160 160 160s160-71.64 160-160v0zM576 672c70.6 0 128 57.4 128 128 0 70.7-57.4 128-128 128s-128-57.3-128-128c0-70.6 57.4-128 128-128zM1131.4 315.4c6.2-6.4 6.2-16.4 0-22.8l-160-160c-6.4-6.2-16.4-6.2-22.8 0l-96 96c-6.2 6.4-6.2 16.4 0 22.8 6.4 6.2 16.4 6.2 22.8 0l84.6-84.8 148.6 148.8c6.4 6.2 16.4 6.2 22.8 0v0zM704 224c0 159 129 288 288 288s288-129 288-288c0-159-129-288-288-288s-288 129-288 288zM992-32c141.4 0 256 114.6 256 256s-114.6 256-256 256c-141.4 0-256-114.6-256-256s114.6-256 256-256z" />
<glyph unicode="&#xe92b;" glyph-name="anchor-circle-exclamation" horiz-adv-x="1280" d="M736 800c0-83-63.2-151.2-145.8-159.2 0-0.2 1.8-0.6 1.8-0.8v-96h160c8.8 0 16-7.2 16-16s-7.2-16-16-16h-160v-544h16c42.8 0 82.2 7.4 122.2 20.8 6-7 16-17 24.6-25-45.4-18-95-27.8-146.8-27.8h-64c-221 0-400 179-400 400v54.4l-116.1-129.2c-5.92-6.4-16.036-7-22.604-1-6.568 7.6-7.1 16-1.188 22.6l143.992 160c3.040 5 7.36 5.2 11.9 5.2s8.86-0.2 11.9-5.2l143.9-160c6-6.6 5.4-15-1-22.6-6.6-6-16.8-5.4-22.6 1l-116.2 129.2v-54.4c0-203.2 164.8-368 368-368h16v544h-160c-8.8 0-16 7.2-16 16s7.2 16 16 16h160v96c0 0.2 0 0.6 0 0.8-80.8 8-144 76.2-144 159.2 0 88.36 71.6 160 160 160s160-71.64 160-160v0zM576 672c70.6 0 128 57.4 128 128 0 70.7-57.4 128-128 128s-128-57.3-128-128c0-70.6 57.4-128 128-128zM960 96c0 17.6 14.4 32 32 32s32-14.4 32-32c0-17.6-14.4-32-32-32s-32 14.4-32 32zM990.2 400c10.6 0 16-7.2 16-16v-192c0-8.8-5.4-16-16-16-7 0-16 7.2-16 16v192c0 8.8 9 16 16 16zM1280 224c0-159-129-288-288-288s-288 129-288 288c0 159 129 288 288 288s288-129 288-288zM992 480c-141.4 0-256-114.6-256-256s114.6-256 256-256c141.4 0 256 114.6 256 256s-114.6 256-256 256z" />
<glyph unicode="&#xe92c;" glyph-name="anchor-circle-xmark" horiz-adv-x="1280" d="M736 800c0-83-63.2-151.2-145.8-159.2 0-0.2 1.8-0.6 1.8-0.8v-96h160c8.8 0 16-7.2 16-16s-7.2-16-16-16h-160v-544h16c42.8 0 82.2 7.4 122.2 20.8 6-7 16-17 24.6-25-45.4-18-95-27.8-146.8-27.8h-64c-221 0-400 179-400 400v54.4l-116.1-129.2c-5.92-6.4-16.036-7-22.604-1-6.568 7.6-7.1 16-1.188 22.6l143.992 160c3.040 5 7.36 5.2 11.9 5.2s8.86-0.2 11.9-5.2l143.9-160c6-6.6 5.4-15-1-22.6-6.6-6-16.8-5.4-22.6 1l-116.2 129.2v-54.4c0-203.2 164.8-368 368-368h16v544h-160c-8.8 0-16 7.2-16 16s7.2 16 16 16h160v96c0 0.2 0 0.6 0 0.8-80.8 8-144 76.2-144 159.2 0 88.36 71.6 160 160 160s160-71.64 160-160v0zM576 672c70.6 0 128 57.4 128 128 0 70.7-57.4 128-128 128s-128-57.3-128-128c0-70.6 57.4-128 128-128zM1115.4 123.4c6.2-6.4 6.2-16.4 0-22.8-6.4-6.2-16.4-6.2-22.8 0l-100.6 100.8-100.6-100.8c-6.4-6.2-16.4-6.2-22.8 0-6.2 6.4-6.2 16.4 0 22.8l100.8 100.6-100.8 100.6c-6.2 6.4-6.2 16.4 0 22.8 6.4 6.2 16.4 6.2 22.8 0l100.6-100.8 100.6 100.8c6.4 6.2 16.4 6.2 22.8 0 6.2-6.4 6.2-16.4 0-22.8l-100.8-100.6 100.8-100.6zM1280 224c0-159-129-288-288-288s-288 129-288 288c0 159 129 288 288 288s288-129 288-288zM992 480c-141.4 0-256-114.6-256-256s114.6-256 256-256c141.4 0 256 114.6 256 256s-114.6 256-256 256z" />
<glyph unicode="&#xe92d;" glyph-name="anchor-lock" horiz-adv-x="1280" d="M736 800c0-83-63.2-151.2-145.8-159.2 0-0.2 1.8-0.6 1.8-0.8v-96h160c8.8 0 16-7.2 16-16s-7.2-16-16-16h-160v-544h16c57.4 0 111.6 13.2 160 36.6v-4.6c0-10 1.2-19.8 3.4-29.2-50-22.4-105.2-34.8-163.4-34.8h-64c-221 0-400 179-400 400v54.4l-116.1-129.2c-5.92-6.4-16.036-7-22.604-1-6.568 7.6-7.1 16-1.188 22.6l143.992 160c3.040 5 7.36 5.2 11.9 5.2s8.86-0.2 11.9-5.2l143.9-160c6-6.6 5.4-15-1-22.6-6.6-6-16.8-5.4-22.6 1l-116.2 129.2v-54.4c0-203.2 164.8-368 368-368h16v544h-160c-8.8 0-16 7.2-16 16s7.2 16 16 16h160v96c0 0.2 0 0.6 0 0.8-80.8 8-144 76.2-144 159.2 0 88.36 71.6 160 160 160s160-71.64 160-160v0zM576 672c70.6 0 128 57.4 128 128 0 70.7-57.4 128-128 128s-128-57.3-128-128c0-70.6 57.4-128 128-128zM1056 576c70.6 0 128-57.4 128-128v-128h32c35.4 0 64-28.6 64-64v-256c0-35.4-28.6-64-64-64h-320c-35.4 0-64 28.6-64 64v256c0 35.4 28.6 64 64 64h32v128c0 70.6 57.4 128 128 128zM1056 544c-53 0-96-43-96-96v-128h192v128c0 53-43 96-96 96zM864 256v-256c0-17.6 14.4-32 32-32h320c17.6 0 32 14.4 32 32v256c0 17.6-14.4 32-32 32h-320c-17.6 0-32-14.4-32-32z" />
<glyph unicode="&#xe92e;" glyph-name="angel" horiz-adv-x="1280" d="M426.2 779.4c6.812 5.624 7.782 15.718 2.124 22.5-8.124 9.92-12.324 20.040-12.324 30.1 0 45.4 90.2 96 224 96 130.2 0 224-50.6 224-96 0-10.062-4.156-20.18-12.312-30.1-5.656-6.782-4.688-16.876 2.124-22.5 2.988-2.46 6.588-3.68 10.188-3.68 4.594 0 9.156 1.969 12.312 5.812 13.088 15.748 17.888 32.748 17.888 50.468 0 71.78-112.44 128-254.2 128s-256-56.22-256-128c0-17.718 6.62-34.72 19.682-50.46 5.518-6.82 15.718-7.7 22.518-2.14zM1207.4 53.8l-76.32 157.26c-13.25 27-13.25 59.24 0 86.26 9.5 19.5 17.31 33.24 23.8 44.24 19 33 28.94 52.94 28.94 106.44 0 102.26-93.74 192-200.8 192-49.74 0-97.94-20.5-132.68-56.24l-145.14-146.76c-25.34 8.442-48.56 10.906-65.16 10.906-16.57 0-39.7-2.51-64.86-10.834l-146.98 146.328c-35 36-83.38 56.38-132.88 56.38-107 0-201-89.62-201-191.88 0-53.5 8.2-73.5 29-106.5 6.5-11 14.25-24.5 23.74-44 13.25-27 13.25-59.24 0-86.26l-76.18-157.5c-12.746-25.76-11.060-55.5 3.936-79.76 16.704-23.68 42.324-37.88 70.324-37.88h988.2c27.76 0 53.38 14.25 68.38 38 16.68 24.2 18.48 54.2 5.68 79.8zM145.020-32c-16.82 0-32.32 8.632-41.28 22.84-9.274 14.988-10.218 33.2-2.414 48.98l76.18 157.34c17.586 35.84 17.586 78.62 0.039 114.36-10.005 22.28-18.145 34.68-24.805 45.88-17.58 32.4-24.72 44.8-24.72 90.6 0 85.24 78.96 160 169 160 41.020 0 81.14-17.058 110.26-47.020l136.2-137.38c-39.28-19.8-69.080-50.6-88.68-90l-184.6-365.6h-125.18zM307.8-32l175.6 351.2c40 80.2 120.6 96.8 154.8 96.8 35.82 0 116.54-16.648 156.62-96.8l177.38-351.2h-664.4zM1176.4-9c-9.2-14.4-24.6-23-41.2-23h-127.26l-182.74 365.6c-19.648 39.3-51.040 70.080-88.42 89.92l136.62 138.020c28.8 29.46 68.8 46.46 109.8 46.46 89.9 0 168.74-74.76 168.74-160 0-45.76-7.14-59.98-24.56-90.22-6.832-11.562-14.98-26.020-24.92-46.44-17.586-35.82-17.586-78.62-0.066-114.3l76.42-157.6c7.786-13.64 6.786-33.64-2.414-48.44zM480 672c0-88.5 71.5-160 158.2-160s158.2 71.5 158.2 160-68 160-156.4 160-160-71.5-160-160zM766.2 672c0-70.58-57.42-128-126.2-128s-126.2 57.42-126.2 128c0 70.58 57.42 128 126.2 128s126.2-57.4 126.2-128z" />
<glyph unicode="&#xe92f;" glyph-name="angle" horiz-adv-x="896" d="M41.88 32h838.12c8.8 0 16-7.2 16-16s-7.2-16-16-16h-864c-5.544 0-10.696 2.8-13.61 7.6-2.915 4.8-3.18 10.6-0.7 15.6l431.91 863.96c4 7.9 13.6 11.1 21.6 7.16 7.8-3.96 11-13.58 7.2-21.48l-420.52-840.84zM588 458.6c5.6-7.2 3.6-17.6-4.2-22.6-7.2-4.6-16.6-2.8-21.8 5.8-36.8 46.8-80.4 89.8-129.6 126-8.2 4.6-8.6 13.2-5 20.4 4.2 8.8 15.4 11.6 23.2 7.6 52.2-40 98.6-85.6 137.4-137.2v0zM627.4 332.8c-3.6 7.4-1.2 16.4 5.8 20.8 8 5 18.6 2.2 22.6-6.4 30-62.4 50.4-130.2 59.2-201.6 1.2-9.4-6.2-17.6-15.8-17.6-8.2 0-15 6.2-16 14.4-8.6 67.4-27.8 131.4-55.8 190.4v0z" />
<glyph unicode="&#xe930;" glyph-name="angle-90" horiz-adv-x="896" d="M880 32h-848v848c0 8.84-7.16 16-16 16s-16-7.16-16-16v-864c0-8.8 7.156-16 16-16h864c8.844 0 16 7.188 16 16s-7.2 16-16 16zM697.2 112c0.75 0 1.531 0.063 2.282 0.188 8.75 1.25 14.844 9.312 13.594 18.062-7.75 54.18-22 107.38-42.34 158-3.312 8.25-12.562 12.062-20.82 8.938-8.188-3.312-12.156-12.624-8.876-20.82 19.376-48.32 32.96-99 40.34-150.62 1.22-7.948 8.020-13.748 15.82-13.748zM553.8 429.6c3.156-4.124 7.906-6.282 12.718-6.282 3.406 0 6.812 1.063 9.718 3.282 7 5.376 8.376 15.406 3 22.44-37.54 49.1-81.4 92.96-130.46 130.34-6.976 5.42-16.976 4.22-22.376-2.98-5.376-7.032-4-17.062 3.032-22.4 46.768-35.6 88.568-77.4 124.368-124.4zM125.76 681.4c51.64-7.4 102.24-21 150.64-40.4 1.969-0.781 3.968-1.156 5.968-1.156 6.344 0 12.344 3.782 14.844 10.032 3.282 8.218-0.688 17.532-8.876 20.82-50.736 20.304-103.876 34.504-158.076 42.304-8.5 2.8-16.86-4.8-18.1-13.6-1.26-8.6 4.84-16.8 13.6-18z" />
<glyph unicode="&#xe931;" glyph-name="angle-down" horiz-adv-x="768" d="M382.2 256c-2.2 0-7.938 1.469-11.062 4.438l-302.198 287.962c-6.374 6.094-6.624 16.25-0.5 22.62 6.188 6.376 16.312 6.562 22.62 0.5l293-277.4 293 277.4c6.438 6.062 16.562 5.876 22.62-0.5 6.124-6.376 5.874-16.532-0.5-22.62l-302.2-288c-6.78-3-10.78-4.4-14.78-4.4z" />
<glyph unicode="&#xe932;" glyph-name="angle-left" horiz-adv-x="512" d="M64 449.8c0 2.2 1.469 7.938 4.438 11.062l288 302.2c6.094 6.374 16.25 6.624 22.62 0.5 6.376-6.188 6.562-16.312 0.5-22.62l-277.398-291.142 277.4-293c6.062-6.438 5.876-16.562-0.5-22.62-6.376-6.124-16.532-5.874-22.62 0.5l-288 302.32c-2.98 4.8-4.44 8.8-4.44 12.8z" />
<glyph unicode="&#xe933;" glyph-name="angle-right" horiz-adv-x="512" d="M448 448c0-2.2-1.469-7.938-4.438-11.062l-288-302.2c-6.094-6.374-16.25-6.624-22.62-0.5-6.376 6.188-6.562 16.312-0.5 22.62l277.4 293-277.422 291.142c-6.060 6.4-5.88 16.4 0.5 22.56 6.376 6.124 16.532 5.874 22.62-0.5l288-302.2c3.060-4.86 4.46-8.86 4.46-12.86z" />
<glyph unicode="&#xe934;" glyph-name="angles-down" horiz-adv-x="768" d="M677 379.6l-293-277.4-292.94 277.4c-6.3 6-16.44 5.8-22.62-0.6-6.12-6.4-5.88-16.4 0.5-22.6l302.2-288c3.124-2.968 7.062-4.438 11.062-4.438s7.938 1.469 11.062 4.438l304 288c6.374 6.094 6.624 16.25 0.5 22.62-4.364 6.38-14.364 6.58-20.764 0.58zM373 452.4c3-3 5.2-2.6 9.2-2.6s7.938 1.469 11.062 4.438l304 288c6.374 6.094 6.624 16.25 0.5 22.62-6.062 6.376-16.186 6.562-22.62 0.5l-292.942-279.158-291.14 277.38c-6.3 6.060-16.44 5.88-22.62-0.5-6.12-6.28-5.88-16.48 0.5-22.68l304.060-288z" />
<glyph unicode="&#xe935;" glyph-name="angles-left" horiz-adv-x="896" d="M379.6 155l-277.44 294.8 277.44 291.2c6.062 6.312 5.876 16.436-0.5 22.62-6.5 6.060-16.5 5.82-22.7-0.56l-287.96-304.060c-2.98-3-4.44-5.2-4.44-9.2s1.469-7.938 4.438-11.062l288-304c6.094-6.374 16.25-6.624 22.62-0.5 6.342 4.362 6.542 14.362 0.542 20.762zM452.4 459c-2.968-3.124-4.438-7.062-4.438-11.062s1.469-7.938 4.438-11.062l288-304c6.094-6.374 16.25-6.624 22.62-0.5 6.376 6.062 6.562 16.186 0.5 22.62l-277.4 293 277.48 293.004c6.062 6.312 5.876 16.436-0.5 22.62-6.376 6.124-16.532 5.874-22.62-0.5l-288.080-304.12z" />
<glyph unicode="&#xe936;" glyph-name="angles-right" horiz-adv-x="896" d="M516.4 741l277.4-293-277.4-293c-6.062-6.312-5.876-16.436 0.5-22.62 6.376-6.124 16.532-5.874 22.62 0.5l288 302.2c2.968 3.124 4.438 7.062 4.438 11.062 0 2.2-1.469 7.938-4.438 11.062l-287.92 305.856c-6.094 6.374-16.25 6.624-22.62 0.5-6.38-6.16-6.58-16.16-0.58-22.56zM443.6 437c3 4.8 2.6 7 2.6 11 0 2.2-1.469 7.938-4.438 11.062l-286.222 303.998c-6.1 6.38-16.24 6.62-22.62 0.5-6.38-6.16-6.56-16.16-0.5-22.56l277.4-293-277.4-293c-6.062-6.312-5.876-16.436 0.5-22.62 6.376-6.124 16.532-5.874 22.62 0.5l288.060 304.12z" />
<glyph unicode="&#xe937;" glyph-name="angles-up" horiz-adv-x="768" d="M91.060 516.4l293 277.4 293-277.4c6.312-6.062 16.436-5.876 22.62 0.5 6.124 6.376 5.874 16.532-0.5 22.62l-302.2 288c-6.78 3.020-8.98 4.48-12.98 4.48s-8-1.46-11-4.44l-304.060-287.96c-6.374-6.094-6.624-16.25-0.5-22.62 6.060-6.38 16.18-6.58 22.62-0.58zM395 443.6c-4.8 3-7 4.4-11 4.4s-8-1.4-11-4.4l-304-288c-6.374-6.094-6.624-16.25-0.5-22.62 6.062-6.376 16.186-6.562 22.62-0.5l293 277.4 293-277.4c6.312-6.062 16.436-5.876 22.62 0.5 6.124 6.376 5.874 16.532-0.5 22.62l-304.24 288z" />
<glyph unicode="&#xe938;" glyph-name="angle-up" horiz-adv-x="768" d="M384 640c2.2 0 7.938-1.469 11.062-4.438l302.2-288c6.374-6.094 6.624-16.25 0.5-22.62-6.188-6.376-16.312-6.562-22.62-0.5l-291.142 277.358-292.94-277.4c-6.438-6.062-16.562-5.876-22.62 0.5-6.124 6.376-5.874 16.532 0.5 22.62l302.2 288c4.86 3.080 8.86 4.48 12.86 4.48z" />
<glyph unicode="&#xe939;" glyph-name="ankh" horiz-adv-x="640" d="M560 400h-201.4c85.58 89.2 168.4 220 168.4 326.6 0 143.96-79.4 233.4-207 233.4s-206.94-89.44-206.94-233.4c0-106.56 82.82-237.4 168.4-326.6h-201.46c-8.82 0-16-7.2-16-16s7.188-16 16-16h224v-416c0-8.8 7.2-16 16-16s16 7.156 16 16v416h224c8.8 0 16 7.2 16 16s-7.2 16-16 16zM320 928c109.56 0 174.94-75.28 174.94-201.4 0-110.32-100.82-247.6-174.94-320.4-74.2 72.8-174.94 210.2-174.94 320.4 0 126.12 65.34 201.4 174.94 201.4z" />
<glyph unicode="&#xe93a;" glyph-name="apartment" horiz-adv-x="1152" d="M640 272c-26.6 0-48 21.4-48 48v64c0 26.6 21.4 48 48 48h64c26.6 0 48-21.4 48-48v-64c0-26.6-21.4-48-48-48h-64zM720 384c0 8.8-7.2 16-16 16h-64c-8.8 0-16-7.2-16-16v-64c0-8.8 7.2-16 16-16h64c8.8 0 16 7.2 16 16v64zM1008 128c0-26.6-21.4-48-48-48h-64c-26.6 0-48 21.4-48 48v64c0 26.6 21.4 48 48 48h64c26.6 0 48-21.4 48-48v-64zM960 112c8.8 0 16 7.2 16 16v64c0 8.8-7.2 16-16 16h-64c-8.8 0-16-7.2-16-16v-64c0-8.8 7.2-16 16-16h64zM192 272c-26.5 0-48 21.4-48 48v64c0 26.6 21.5 48 48 48h64c26.6 0 48-21.4 48-48v-64c0-26.6-21.4-48-48-48h-64zM272 384c0 8.8-7.2 16-16 16h-64c-8.84 0-16-7.2-16-16v-64c0-8.8 7.16-16 16-16h64c8.8 0 16 7.2 16 16v64zM304 128c0-26.6-21.4-48-48-48h-64c-26.5 0-48 21.4-48 48v64c0 26.6 21.5 48 48 48h64c26.6 0 48-21.4 48-48v-64zM256 112c8.8 0 16 7.2 16 16v64c0 8.8-7.2 16-16 16h-64c-8.84 0-16-7.2-16-16v-64c0-8.8 7.16-16 16-16h64zM448 272c-26.6 0-48 21.4-48 48v64c0 26.6 21.4 48 48 48h64c26.6 0 48-21.4 48-48v-64c0-26.6-21.4-48-48-48h-64zM528 384c0 8.8-7.2 16-16 16h-64c-8.8 0-16-7.2-16-16v-64c0-8.8 7.2-16 16-16h64c8.8 0 16 7.2 16 16v64zM752 704c0-26.6-21.4-48-48-48h-64c-26.6 0-48 21.4-48 48v64c0 26.5 21.4 48 48 48h64c26.6 0 48-21.5 48-48v-64zM640 784c-8.8 0-16-7.16-16-16v-64c0-8.8 7.2-16 16-16h64c8.8 0 16 7.2 16 16v64c0 8.84-7.2 16-16 16h-64zM512 816c26.6 0 48-21.5 48-48v-64c0-26.6-21.4-48-48-48h-64c-26.6 0-48 21.4-48 48v64c0 26.5 21.4 48 48 48h64zM528 768c0 8.84-7.2 16-16 16h-64c-8.8 0-16-7.16-16-16v-64c0-8.8 7.2-16 16-16h64c8.8 0 16 7.2 16 16v64zM752 512c0-26.6-21.4-48-48-48h-64c-26.6 0-48 21.4-48 48v64c0 26.6 21.4 48 48 48h64c26.6 0 48-21.4 48-48v-64zM704 496c8.8 0 16 7.2 16 16v64c0 8.8-7.2 16-16 16h-64c-8.8 0-16-7.2-16-16v-64c0-8.8 7.2-16 16-16h64zM896 272c-26.6 0-48 21.4-48 48v64c0 26.6 21.4 48 48 48h64c26.6 0 48-21.4 48-48v-64c0-26.6-21.4-48-48-48h-64zM976 384c0 8.8-7.2 16-16 16h-64c-8.8 0-16-7.2-16-16v-64c0-8.8 7.2-16 16-16h64c8.8 0 16 7.2 16 16v64zM304 512c0-26.6-21.4-48-48-48h-64c-26.5 0-48 21.4-48 48v64c0 26.6 21.5 48 48 48h64c26.6 0 48-21.4 48-48v-64zM256 496c8.8 0 16 7.2 16 16v64c0 8.8-7.2 16-16 16h-64c-8.84 0-16-7.2-16-16v-64c0-8.8 7.16-16 16-16h64zM448 464c-26.6 0-48 21.4-48 48v64c0 26.6 21.4 48 48 48h64c26.6 0 48-21.4 48-48v-64c0-26.6-21.4-48-48-48h-64zM528 576c0 8.8-7.2 16-16 16h-64c-8.8 0-16-7.2-16-16v-64c0-8.8 7.2-16 16-16h64c8.8 0 16 7.2 16 16v64zM160-64c-70.7 0-128 57.4-128 128v576c0 70.6 57.3 128 128 128h128v64c0 70.7 57.4 128 128 128h320c70.6 0 128-57.3 128-128v-256h128c70.6 0 128-57.4 128-128v-384c0-70.6-57.4-128-128-128h-832zM320 736h-160c-53.020 0-96-43-96-96v-576c0-53 42.98-96 96-96h320v128c0 53 43 96 96 96s96-43 96-96v-128h320c53 0 96 43 96 96v384c0 53-43 96-96 96h-160v288c0 53.020-43 96-96 96h-320c-53 0-96-42.98-96-96v-96zM576 160c-35.4 0-64-28.6-64-64v-128h128v128c0 35.4-28.6 64-64 64z" />
<glyph unicode="&#xe93b;" glyph-name="aperture" d="M512 960c-282.8 0-512-229.2-512-512s229.2-512 512-512 512 229.2 512 512-229.2 512-512 512zM604.4 288h-184.8l-92.4 161.8 92.4 158.2h184.76l92.38-160.020-92.34-159.98zM641.2 608h322.8c17.8-50.2 28-103.8 28-160 0-106.48-35.28-204.6-94.18-284.4l-256.62 444.4zM951.6 640h-513.6l161.44 279.6c158.16-29.28 289.36-136.080 352.16-279.6zM512 928c18.14 0 35.98-1.219 53.6-3.188l-256.8-444.812-161.34 279.4c88.14 103 218.74 168.6 364.54 168.6zM126.18 732.4l256.62-444.4h-322.8c-17.8 50.2-28 103.8-28 160 0 106.4 35.28 204.6 94.18 284.4zM72.36 256h513.6l-161.44-279.6c-158.12 29.2-289.24 136-352.16 279.6zM512-32c-18.14 0-35.98 1.219-53.6 3.188l256.8 444.8 161.34-279.4c-88.14-102.988-218.74-168.588-364.54-168.588z" />
<glyph unicode="&#xe93c;" glyph-name="apostrophe" horiz-adv-x="384" d="M384 736c0 88.36-71.6 160-160 160s-160-71.64-160-160c0-88.4 71.64-160 160-160 52.58 0 98.84 25.7 128 64.88v-48.88c0-97.060-78.94-176-176-176h-32c-8.82 0-16-7.2-16-16s7.18-16 16-16h32c114.6 0 208 93.4 208 208v128c0 1.223-1.039 1.988-1.297 3.128 0.297 4.272 1.297 8.472 1.297 12.872zM224 608c-70.58 0-128 57.42-128 128s57.42 128 128 128 128-57.42 128-128-57.4-128-128-128z" />
<glyph unicode="&#xe93d;" glyph-name="apple-core" horiz-adv-x="768" d="M384 736c153.8 0 191.76 99.74 191.76 192-1.137 17.074-14.746 30.86-31.82 30.2-178.4 0-191.9-130.6-191.9-190.24-0.040-16.16 14.16-30.76 31.96-31.96zM542.8 928c0.699-0.047 1.645-5.496 1.645-14.356 0-39.2-18.48-145.22-158.28-145.72-0.765 0.056-3.965 7.076-3.965 18.136 0 41.8 21 141.36 160.6 141.94zM574.2 352c0 124.98 65.2 234.4 163.38 296.8-54.94 54.32-115.7 55.22-131.16 55.22-76.88 0-179.42-39.040-224.2-64.12-43.38 24.34-147.14 64.24-224.6 64.24-15.378 0-75.74-0.982-130.68-55.34 99.88-62.4 163.26-171.8 163.26-296.8 0-122.22-62.48-229.8-157.040-293 66.4-92.96 136.26-122.84 204.2-122.84 70.16 0 125.96 32.8 144.84 32.8 19.6 0.040 75.4-32.96 146-32.96 68.84 0 138.8 30.44 204.8 123-94.6 63.2-158.8 170.8-158.8 293zM528.2-32c-68.040 0-114.76 32.96-144.14 32.96-29.64 0-78.060-32.8-144.84-32.8-59.080 0-110.94 27.16-158.92 84.38 90.54 72.66 143.7 182.26 143.7 299.46 0 117.020-52.54 225.6-142.48 298.2 33.58 20.46 63.44 21.6 72.54 21.6 101.8 0 201-52.32 229.8-68.58 28.88 16.174 128.42 68.62 229.8 68.62 8.824 0 38.9-1.078 72.7-21.64-89.76-72.6-142.36-181.2-142.36-298.2 0-117.28 53.22-227 143.92-299.6-47.32-56.8-99.72-84.4-159.72-84.4z" />
<glyph unicode="&#xe93e;" glyph-name="apple-whole" horiz-adv-x="896" d="M889.8 461.8c-10.632 62.7-30.64 114.74-59.92 156.12-33.34 46.7-75.82 74.54-127.78 83.88-63.46 10.628-181.98-21.48-254-61.84-71.7 40.24-190.16 72.66-252.2 62.020-53.78-9.38-96.36-37.38-129.7-84.18-29.34-41.38-49.34-93.42-59.98-156.12-24-147.82 24.16-311.8 97.94-410.4 145.42-196.28 308.8-82.5 343.8-82.5 33.020 0 198.24-114.16 343.8 82.5 76.040 101.52 121.64 266.52 98.040 410.52zM766 70.6c-131.94-178.26-264.4-69.52-318-69.52-55.62 0-186.46-108.18-318.2 69.66-69.52 92.82-114.2 249.2-92 385.8 14.262 84.1 56.54 195.040 161.58 212.2 33.020 5.524 132.5-2.046 248.6-67.18 115.32 64.58 214.6 72.84 248.2 67.24 105.3-18.954 147.58-129.16 161.94-213.8 22.48-135.2-23.92-291.2-92.12-384.4zM448 736c153.8 0 191.76 99.74 191.76 192-1.137 17.074-14.746 30.86-31.82 30.2-176.040 0-191.4-126.4-191.9-189.98-1.84-14.42 13.96-31.020 31.96-32.22zM606.8 928c3.8-0.258 14.762-159.46-156.64-160.080-3.96 0.28-19.96 159.34 156.64 160.080z" />
<glyph unicode="&#xe93f;" glyph-name="archway" d="M0 880c0 8.8 7.2 16 16 16h992c8.8 0 16-7.2 16-16s-7.2-16-16-16h-48v-832h48c8.8 0 16-7.2 16-16s-7.2-16-16-16h-288c-8.8 0-16 7.2-16 16v240c0 106-86 192-192 192s-192-86-192-192v-240c0-8.8-7.2-16-16-16h-288c-8.8 0-16 7.2-16 16s7.2 16 16 16h48v832h-48c-8.8 0-16 7.2-16 16zM96 864v-832h192v224c0 123.8 100.2 224 224 224s224-100.2 224-224v-224h192v832h-832zM208 672h608c8.8 0 16-7.2 16-16s-7.2-16-16-16h-608c-8.8 0-16 7.2-16 16s7.2 16 16 16z" />
<glyph unicode="&#xe940;" glyph-name="arrow-down" horiz-adv-x="768" d="M736.4 345.8l-341-341c-6.28-6.28-16.452-6.28-22.74 0l-341.020 341c-6.28 6.28-6.28 16.452 0 22.74 6.28 6.28 16.452 6.28 22.74 0l313.6-313.6v824.98c0 8.854 7.192 16.068 16.076 16.068s16.072-7.214 16.072-16.068v-825l313.6 313.6c6.28 6.28 16.452 6.28 22.74 0 6.132-6.32 6.132-16.52-0.068-22.72z" />
<glyph unicode="&#xe941;" glyph-name="arrow-down-1-9" d="M704 544c-8.844 0-16-7.188-16-16s7.158-15.996 16-15.996l128-0.004c8.844 0 16 7.188 16 16s-7.2 16-16 16h-48v336c0 5.562-2.876 10.688-7.594 13.624-4.718 2.876-10.624 3.188-15.562 0.688l-64-32c-7.906-3.938-11.094-13.562-7.156-21.44 3.968-7.938 13.5-11.062 21.46-7.188l40.852 20.436v-310.12h-48zM752 432c-79.4 0-144-64.62-144-144s64.6-144 144-144c45.46 0 85.58 21.6 112 54.62v-54.62c0-61.76-50.24-112-112-112h-48c-8.844 0-16-7.188-16-16s7.2-16 16-16h48c79.4 0 144 64.62 144 144v144c0 79.4-64.6 144-144 144zM752 176c-61.76 0-112 50.24-112 112s50.24 112 112 112 112-50.24 112-112-50.2-112-112-112zM420.2 218.6l-148.2-161.6v823c0 8.82-7.2 16-16 16s-16-7.18-16-16v-823l-148.2 161.7c-3.192 3.438-7.504 5.188-11.816 5.188-3.876 0-7.75-1.375-10.812-4.188-6.5-6.004-6.938-16.128-1-22.64l176-192.040c6.124-6.624 17.5-6.624 23.62 0l176 192.040c5.938 6.504 5.5 16.628-1 22.64-6.392 5.9-16.592 5.5-22.592-1.1z" />
<glyph unicode="&#xe942;" glyph-name="arrow-down-9-1" d="M420.2 218.6l-148.2-161.6v823c0 8.82-7.2 16-16 16s-16-7.18-16-16v-823l-148.2 161.7c-3.192 3.438-7.504 5.188-11.816 5.188-3.876 0-7.75-1.375-10.812-4.188-6.5-6.004-6.938-16.128-1-22.64l176-192.040c6.124-6.624 17.5-6.624 23.62 0l176 192.040c5.938 6.504 5.5 16.628-1 22.64-6.392 5.9-16.592 5.5-22.592-1.1zM832 32h-48v336c0 5.562-2.876 10.688-7.594 13.624-4.718 2.876-10.624 3.188-15.562 0.688l-64-32c-7.906-3.938-11.094-13.562-7.156-21.44 3.968-7.938 13.5-11.062 21.46-7.188l40.852 20.516v-310.2h-48c-8.844 0-16-7.188-16-16s7.2-16 16-16h128c8.844 0 16 7.188 16 16s-7.2 16-16 16zM752 896c-79.4 0-144-64.62-144-144s64.6-144 144-144c45.46 0 85.58 21.6 112 54.62v-54.62c0-61.76-50.24-112-112-112h-48c-8.844 0-16-7.188-16-16s7.2-16 16-16h48c79.4 0 144 64.6 144 144v144c0 79.38-64.6 144-144 144zM752 640c-61.8 0-112 50.2-112 112s50.24 112 112 112 112-50.24 112-112-50.2-112-112-112z" />
<glyph unicode="&#xe943;" glyph-name="arrow-down-arrow-up" d="M763.4 891.4l224-224c6.2-6.2 6.2-16.4 0-22.6s-16.4-6.2-22.6 0l-196.8 196.6v-825.4c0-8.8-7.2-16-16-16s-16 7.2-16 16v825.4l-196.6-196.6c-6.2-6.2-16.4-6.2-22.6 0s-6.2 16.4 0 22.6l224 224c6.2 6.2 16.4 6.2 22.6 0zM475.4 228.8l-224-224c-6.2-6.2-16.4-6.2-22.6 0l-224 224c-6.2 6.2-6.2 16.4 0 22.6s16.4 6.2 22.6 0l196.6-196.8v825.4c0 8.8 7.2 16 16 16s16-7.2 16-16v-825.4l196.6 196.6c6.2 6.2 16.4 6.2 22.6 0s6.2-16.4 0-22.6z" />
<glyph unicode="&#xe944;" glyph-name="arrow-down-a-z" d="M420.2 218.6l-148.2-161.6v823c0 8.816-7.188 16.004-16 16.004s-16-7.184-16-16.004v-823l-148.2 161.7c-3.188 3.438-7.5 5.188-11.812 5.188-3.876 0-7.75-1.375-10.812-4.188-6.5-6.004-6.938-16.128-1-22.64l176-192.040c6.124-6.624 17.5-6.624 23.62 0l176 192.040c5.938 6.504 5.5 16.628-1 22.64-6.396 5.9-16.596 5.5-22.596-1.1zM912 32h-254.2l266.6 325.8c3.938 4.75 4.75 11.376 2.062 17-2.662 5.6-8.262 9.2-14.462 9.2h-288c-8.812 0-16-7.188-16-16s7.188-16 16-16h254.2l-266.6-325.8c-3.938-4.75-4.75-11.376-2.062-17 2.662-5.6 8.262-9.2 14.462-9.2h288c8.812 0 16 7.188 16 16s-7.2 16-16 16zM958.4 535.2l-176 352c-5.376 10.876-23.24 10.876-28.62 0l-176-352c-3.938-7.876-0.75-17.5 7.188-21.44 7.624-3.812 17.5-0.812 21.44 7.188l51.392 103.052h220.2l51.56-103.12c3.040-5.68 8.64-8.88 14.44-8.88 2.438 0 4.876 0.563 7.124 1.688 7.876 3.912 11.076 13.512 7.276 21.512zM673.8 656l94.2 188.24 94.2-188.24h-188.4z" />
<glyph unicode="&#xe945;" glyph-name="arrow-down-big-small" d="M960 896h-382.2c-35.34 0-64-28.66-64-64v-320c0-35.34 28.66-64 64-64h382.2c35.34 0 64 28.66 64 64v320c0 35.34-28.6 64-64 64zM992 512c0-17.644-14.356-32-32-32h-382.2c-17.644 0-32 14.356-32 32v320c0 17.644 14.356 32 32 32h382.2c17.644 0 32-14.356 32-32v-320zM832 320h-254.2c-35.2 0-64-28.8-64-64v-192c0-35.2 28.8-64 64-64h254.2c35.2 0 64 28.8 64 64v192c0 35.2-28.8 64-64 64zM864 64c0-17.644-14.356-32-32-32h-254.2c-17.644 0-32 14.356-32 32v192c0 17.644 14.356 32 32 32h254.2c17.644 0 32-14.356 32-32v-192zM356.2 218.6l-148.2-161.6v823c0 8.82-7.2 16-16 16s-16-7.18-16-16v-823l-148.2 161.7c-3.188 3.438-7.5 5.188-11.812 5.188-3.876 0-7.75-1.375-10.812-4.188-6.5-6.004-6.938-16.128-1-22.64l176-192.040c6.124-6.624 17.5-6.624 23.62 0l176 192.040c5.938 6.504 5.5 16.628-1 22.64-6.396 5.9-16.596 5.5-22.596-1.1z" />
<glyph unicode="&#xe946;" glyph-name="arrow-down-from-dotted-line" horiz-adv-x="896" d="M640 801.8c17.672 0 32 14.328 32 32s-14.328 32-32 32-32-14.328-32-32 14.4-32 32-32zM448 801.8c17.672 0 32 14.328 32 32s-14.328 32-32 32-32-14.328-32-32 14.4-32 32-32zM832 801.8c17.672 0 32 14.328 32 32s-14.328 32-32 32-32-14.328-32-32 14.4-32 32-32zM256 801.8c17.672 0 32 14.328 32 32s-14.328 32-32 32-32-14.328-32-32 14.4-32 32-32zM64 801.8c17.672 0 32 14.328 32 32s-14.328 32-32 32-32-14.328-32-32 14.32-32 32-32zM436.6 4.6c6.25-6.25 16.376-6.25 22.62 0l304 304c3.18 3.2 4.78 7.2 4.78 13.2s-1.563 8.188-4.688 11.312c-6.25 6.25-16.376 6.25-22.62 0l-276.692-278.512v571.2c0 8.812-7.156 16-16 16s-16-7.188-16-16v-569.4l-276.68 275c-6.25 6.25-16.376 6.25-22.62 0s-6.25-16.376 0-22.62l303.9-304.18z" />
<glyph unicode="&#xe947;" glyph-name="arrow-down-from-line" horiz-adv-x="768" d="M372.6 4.6c6.25-6.25 16.376-6.25 22.62 0l304 304c3.18 3.2 4.78 7.2 4.78 11.4s-1.563 8.188-4.688 11.312c-6.25 6.25-16.376 6.25-22.62 0l-276.692-276.712v633.4c0 8.812-7.156 15.936-16 15.936s-16-7.136-16-15.936v-633.4l-276.68 276.8c-6.25 6.25-16.376 6.25-22.62 0s-6.25-16.376 0-22.62l303.9-304.18zM16 864h736c8.8 0 16 7.16 16 16s-7.2 16-16 16h-736c-8.836 0-16-7.16-16-16s7.164-16 16-16z" />
<glyph unicode="&#xe948;" glyph-name="arrow-down-left" horiz-adv-x="640" d="M15.998 640c8.838 0 15.998-7.16 15.998-15.998v-441.4l580.6 580.6c6.232 6.232 16.374 6.254 22.62 0s6.232-16.396 0-22.62l-580.6-580.6h441.4c8.784 0.018 15.984-7.182 15.984-15.982s-7.2-16-16-16h-480.002c-8.838 0-15.998 7.2-15.998 16v481.8c0 7 7.154 14.2 15.998 14.2z" />
<glyph unicode="&#xe949;" glyph-name="arrow-down-left-and-arrow-up-right-to-center" d="M91.54 5l324.6 324.6v-281.4c0-8.84 7.046-16.116 15.882-16.116 8.84 0 16.114 7.264 16.114 16.116v320c0 8.832-7.152 15.996-16 15.996h-320c-8.878 0-16.114-7.3-16.114-16.114 0-8.84 7.274-15.882 16.114-15.882h281.4l-324.6-324.6c-14.996-15 7.644-37.6 22.604-22.6zM591.8 511.8h320c8.878 0 16.11 7.296 16.11 16.114 0 8.84-7.27 15.882-16.11 15.882h-281.4l324.6 324.6c14.938 14.93-7.632 37.62-22.62 22.62l-324.6-324.6v281.344c0 8.84-7.050 16.116-15.886 16.116-8.84 0-16.11-7.268-16.11-16.116v-320c0.016-8.76 7.216-15.96 16.016-15.96z" />
<glyph unicode="&#xe94a;" glyph-name="arrow-down-long" horiz-adv-x="640" d="M308.6-59.4c6.2-6.2 16.4-6.2 22.6 0l304 304c6.2 6.2 6.2 16.4 0 22.6s-16.4 6.2-22.6 0l-276.6-276.6v953.4c0 8.8-7.2 16-16 16s-16-7.2-16-16v-953.4l-276.6 276.8c-6.2 6.2-16.4 6.2-22.6 0s-6.2-16.4 0-22.6l304-304z" />
<glyph unicode="&#xe94b;" glyph-name="arrow-down-right" horiz-adv-x="640" d="M640 625.8v-480c0-10.6-7.2-17.8-16-17.8h-481.8c-7.040 0-14.2 7.2-14.2 16s7.16 15.998 15.998 15.998h441.4l-580.716 580.602c-6.232 6.232-6.254 16.374 0 22.62s16.396 6.232 22.62 0l580.6-580.6v443.18c0.098 7 7.298 14.2 16.098 14.2s16-7.2 16-14.2z" />
<glyph unicode="&#xe94c;" glyph-name="arrow-down-short-wide" horiz-adv-x="1152" d="M420.2 218.6l-148.2-161.6v823c0 8.82-7.2 16-16 16s-16-7.18-16-16v-823l-148.2 161.7c-3.188 3.438-7.5 5.188-11.812 5.188-3.876 0-7.75-1.375-10.812-4.188-6.5-6.004-6.938-16.128-1-22.64l176-192.040c6.124-6.624 17.5-6.624 23.62 0l176 192.040c5.938 6.504 5.5 16.628-1 22.64-6.396 5.9-16.596 5.5-22.596-1.1zM528 576h288c8.8 0 16 7.2 16 16s-7.2 16-16 16h-288c-8.8 0-16-7.2-16-16s7.2-16 16-16zM528 832h160c8.8 0 16 7.18 16 16s-7.2 16-16 16h-160c-8.8 0-16-7.18-16-16s7.2-16 16-16zM528 320h416c8.8 0 16 7.2 16 16s-7.2 16-16 16h-416c-8.8 0-16-7.2-16-16s7.2-16 16-16zM1072 96h-544c-8.8 0-16-7.2-16-16s7.2-16 16-16h544c8.812 0 16 7.188 16 16s-7.2 16-16 16z" />
<glyph unicode="&#xe94d;" glyph-name="arrow-down-small-big" d="M576 576h256c35.34 0 64 28.66 64 64v192c0 35.2-28.8 64-64 64h-254.2c-35.34 0-64-28.66-64-64v-192c-1.8-35.2 27-64 62.2-64zM544 832c0 17.644 14.356 32 32 32h256c17.644 0 32-14.356 32-32v-192c0-17.644-14.356-32-32-32h-254.2c-17.644 0-32 14.356-32 32v192zM960 448h-382.2c-35.34 0-64-28.66-64-64v-320c0-35.34 28.66-64 64-64h382.2c35.34 0 64 28.66 64 64v320c0 35.4-28.6 64-64 64zM992 64c0-17.644-14.356-32-32-32h-382.2c-17.644 0-32 14.356-32 32v320c0 17.644 14.356 32 32 32h382.2c17.644 0 32-14.356 32-32v-320zM356.2 218.6l-148.2-161.6v823c0 8.82-7.2 16-16 16s-16-7.18-16-16v-823l-148.2 161.7c-3.188 3.438-7.5 5.188-11.812 5.188-3.876 0-7.75-1.375-10.812-4.188-6.5-6.004-6.938-16.128-1-22.64l176-192.040c6.124-6.624 17.5-6.624 23.62 0l176 192.040c5.938 6.504 5.5 16.628-1 22.64-6.396 5.9-16.596 5.5-22.596-1.1z" />
<glyph unicode="&#xe94e;" glyph-name="arrow-down-square-triangle" d="M608 512l256 0.012c35.34 0 64 28.64 64 63.98v256.008c0 35.34-28.66 64-64 64h-256c-35.34 0-64-28.66-64-64v-256c0-35.4 28.6-64 64-64zM576 832c0 17.644 14.356 32 32 32h256c17.644 0 32-14.356 32-32v-256c0-17.644-14.356-32-32-32h-256c-17.644 0-32 14.356-32 32v256zM952.2 82.2l-166.26 274.2c-11.124 18.376-30.5 27.56-49.88 27.56s-38.76-9.188-49.88-27.56l-166.5-274.2c-21.88-36.4 5.52-82.2 50.12-82.2h332.6c44.4 0 71.8 45.8 49.8 82.2zM925.2 44.6c-4.4-7.8-13-12.6-23-12.6h-332.6c-9.89 0-18.458 4.718-22.92 12.622-2.238 3.964-5.176 11.98 0.273 21.020l166.52 274.2c6.632 10.954 17.946 12.136 22.5 12.136 4.558 0 15.872-1.184 22.52-12.152l166.22-274.2c5.687-9.026 2.687-17.026 0.487-21.026zM420.2 218.6l-148.2-161.6v823c0 8.816-7.188 16.004-16 16.004s-16-7.184-16-16.004v-823l-148.2 161.7c-3.188 3.438-7.5 5.188-11.812 5.188-3.876 0-7.75-1.375-10.812-4.188-6.5-6.004-6.938-16.128-1-22.64l176-192.040c6.124-6.624 17.5-6.624 23.62 0l176 192.040c5.938 6.504 5.5 16.628-1 22.64-6.396 5.9-16.596 5.5-22.596-1.1z" />
<glyph unicode="&#xe94f;" glyph-name="arrow-down-to-arc" d="M512-32c265 0 480 215 480 480 0 8.8 7.2 16 16 16s16-7.2 16-16c0-282.8-229.2-512-512-512s-512 229.2-512 512c0 8.8 7.164 16 16 16 8.84 0 16-7.2 16-16 0-265 215-480 480-480zM524.2 261.6c-3-1.8-7.4-5.6-12.2-5.6s-9.2 3.8-12.2 5.6l-256 304c-5.8 6.8-4.8 17 1.8 22.6 6.8 5.8 17 4.8 22.6-1.8l226-270.6v628.2c0 8.836 9 16 16 16 10.6 0 17.8-7.164 17.8-16v-628.2l227.8 270.6c5.6 6.6 15.8 7.6 22.6 1.8 6.6-5.6 5.8-15.8 1.8-22.6l-256-304z" />
<glyph unicode="&#xe950;" glyph-name="arrow-down-to-bracket" horiz-adv-x="896" d="M896 16v160c0 8.844-7.156 16-16 16s-16-7.156-16-16v-160c0-26.46-21.54-48-48-48h-736c-26.46 0-48 21.54-48 48v160c0 8.8-7.16 16-16 16s-16-7.2-16-16v-160c0-44.2 35.88-80 80-80h736c44.2 0 80 35.8 80 80zM459.4 196.6l368 368c3 3.2 4.6 7.2 4.6 11.4s-1.563 8.188-4.688 11.312c-6.25 6.25-16.376 6.25-22.62 0l-340.692-340.712v697.4c0 8.812-7.2 16-16 16s-16-7.188-16-16v-697.4l-340.68 340.8c-6.25 6.25-16.376 6.25-22.62 0-3.14-3.2-4.7-7.2-4.7-11.4s1.563-8.188 4.688-11.312l368-368c3.112-3.088 5.512-4.688 11.312-4.688s8.2 1.6 11.4 4.6z" />
<glyph unicode="&#xe951;" glyph-name="arrow-down-to-dotted-line" horiz-adv-x="896" d="M256 96c-17.672 0-32-14.328-32-32s14.328-32 32-32 32 14.328 32 32-14.4 32-32 32zM448 96c-17.672 0-32-14.328-32-32s14.328-32 32-32 32 14.328 32 32-14.4 32-32 32zM64 96c-17.672 0-32-14.328-32-32s14.328-32 32-32 32 14.328 32 32-14.32 32-32 32zM640 96c-17.672 0-32-14.328-32-32s14.328-32 32-32 32 14.328 32 32-14.4 32-32 32zM832 96c-17.672 0-32-14.328-32-32s14.328-32 32-32 32 14.328 32 32-14.4 32-32 32zM436.6 228.6c6.25-6.25 16.376-6.25 22.62 0l304 304c3.18 3.2 4.78 7.2 4.78 13.2s-1.563 8.188-4.688 11.312c-6.25 6.25-16.376 6.25-22.62 0l-276.692-278.512v571.2c0 8.812-7.156 16-16 16s-16-7.188-16-16v-569.4l-276.68 275c-6.25 6.25-16.376 6.25-22.62 0s-6.25-16.376 0-22.62l303.9-304.18z" />
<glyph unicode="&#xe952;" glyph-name="arrow-down-to-line" horiz-adv-x="768" d="M372.6 196.6c6.25-6.25 16.376-6.25 22.62 0l304 304c3.18 3.2 4.78 7.2 4.78 11.4s-1.563 8.188-4.688 11.312c-6.25 6.25-16.376 6.25-22.62 0l-276.692-276.712v633.4c0 8.82-7.2 16-16 16s-16-7.18-16-16v-633.4l-276.68 276.8c-6.25 6.25-16.376 6.25-22.62 0s-6.25-16.376 0-22.62l303.9-304.18zM16 0h736c8.836 0 16 7.164 16 16s-7.164 16-16 16h-736c-8.836 0-16-7.2-16-16s7.164-16 16-16z" />
<glyph unicode="&#xe953;" glyph-name="arrow-down-to-square" d="M747.4 516.6c6.2 6.2 6.2 16.4 0 22.6s-16.4 6.2-22.6 0l-196.8-196.6v601.4c0 8.8-7.2 16-16 16s-16-7.2-16-16v-601.4l-196.6 196.6c-6.2 6.2-16.4 6.2-22.6 0s-6.2-16.4 0-22.6l224-224c6.2-6.2 16.4-6.2 22.6 0l224 224zM112 896c-61.8 0-112-50.2-112-112v-736c0-61.8 50.2-112 112-112h800c61.8 0 112 50.2 112 112v736c0 61.8-50.2 112-112 112h-96c-8.8 0-16-7.2-16-16s7.2-16 16-16h96c44.2 0 80-35.8 80-80v-736c0-44.2-35.8-80-80-80h-800c-44.2 0-80 35.8-80 80v736c0 44.2 35.8 80 80 80h96c8.8 0 16 7.2 16 16s-7.2 16-16 16h-96z" />
<glyph unicode="&#xe954;" glyph-name="arrow-down-triangle-square" d="M864 384l-256-0.021c-35.34 0-64-28.66-64-64v-255.979c0-35.34 28.66-64 64-64l256 0.020c35.34 0 64 28.64 64 63.98v254.2c0 37.2-28.6 65.8-64 65.8zM896 64c0-17.644-14.356-32-32-32h-256c-17.644 0-32 14.356-32 32v254.2c0 17.644 14.356 30.2 32 30.2h256c17.644 0 32-14.356 32-32v-252.4zM952.2 594.2l-166.2 274.24c-11.2 18.38-30.4 27.56-49.8 27.56s-38.76-9.188-49.88-27.56l-166.5-274.2c-22-36.5 5.5-82.24 50-82.24h332.6c44.38 0 71.78 45.8 49.78 82.2zM925.2 556.6c-4.464-7.902-13.036-12.622-22.92-12.622h-332.6c-9.89 0-18.458 4.718-22.92 12.618-2.238 3.964-5.176 11.98 0.273 21.020l166.52 274.2c6.647 11.004 18.047 12.184 22.647 12.184 4.558 0 15.872-1.184 22.52-12.148l166.22-274.2c5.46-9.052 2.46-17.052 0.26-21.052zM420.2 218.6l-148.2-161.6v823c0 8.816-7.188 16.004-16 16.004s-16-7.184-16-16.004v-823l-148.2 161.7c-3.192 3.438-7.504 5.188-11.816 5.188-3.876 0-7.75-1.375-10.812-4.188-6.5-6.004-6.938-16.128-1-22.64l176-192.040c6.124-6.624 17.5-6.624 23.62 0l176 192.040c5.938 6.504 5.5 16.628-1 22.64-6.392 5.9-16.592 5.5-22.592-1.1z" />
<glyph unicode="&#xe955;" glyph-name="arrow-down-up-across-line" horiz-adv-x="1152" d="M116.68 132.6c-6.24 6.4-6.24 16.4 0 22.8 6.26 6.2 16.38 6.2 22.64 0l164.68-164.8v443.2h-288c-8.836 0-16 5.4-16 16 0 7 7.164 16 16 16h800v439.58l-164.6-164.78c-6.4-6.2-16.4-6.2-22.8 0-6.2 6.4-6.2 16.4 0 22.72l192 191.994c6.4 6.248 16.4 6.248 22.8 0l192-191.994c6.2-6.32 6.2-16.32 0-22.72-6.4-6.2-16.4-6.2-22.8 0l-164.6 164.78v-439.58h288c8.8 0 16-9 16-16 0-10.6-7.2-16-16-16h-800v-443.2l164.6 164.8c6.4 6.2 16.4 6.2 22.8 0 6.2-6.4 6.2-16.4 0-22.8l-192-192c-6.4-6.2-16.4-6.2-22.8 0l-191.92 192zM304 881.8c0 7.040 7.2 16 16 16s16-8.96 16-16v-304h-32v304zM848 321.8v-305.8c0-8.8-7.2-16-16-16s-16 7.2-16 16v305.8h32z" />
<glyph unicode="&#xe956;" glyph-name="arrow-down-up-lock" horiz-adv-x="1280" d="M244.6-59.4l-191.92 192c-6.24 6.4-6.24 16.4 0 22.8 6.26 6.2 16.38 6.2 22.64 0l164.68-164.8v441.4h-224c-8.836 0-16 7.2-16 16s7.164 16 16 16h608v441.38l-164.6-164.78c-6.4-6.2-16.4-6.2-22.8 0-6.2 6.4-6.2 16.4 0 22.72l192 191.994c6.4 6.248 16.4 6.248 22.8 0l192-191.994c6.2-6.32 6.2-16.32 0-22.72-6.4-6.2-16.4-6.2-22.8 0l-164.6 164.78v-441.38h181.2c-2.4-10.4-3.8-21-4.6-32h-560.6v-441.4l164.6 164.8c6.4 6.2 16.4 6.2 22.8 0 6.2-6.4 6.2-16.4 0-22.8l-192-192c-6.4-6.2-16.4-6.2-22.8 0v0zM240 576v304c0 8.84 7.2 16 16 16s16-7.16 16-16v-304h-32zM656 320v-304c0-8.8-7.2-16-16-16s-16 7.2-16 16v304h32zM1056 576c70.6 0 128-57.4 128-128v-128h32c35.4 0 64-28.6 64-64v-256c0-35.4-28.6-64-64-64h-320c-35.4 0-64 28.6-64 64v256c0 35.4 28.6 64 64 64h32v128c0 70.6 57.4 128 128 128zM1056 544c-53 0-96-43-96-96v-128h192v128c0 53-43 96-96 96zM864 256v-256c0-17.6 14.4-32 32-32h320c17.6 0 32 14.4 32 32v256c0 17.6-14.4 32-32 32h-320c-17.6 0-32-14.4-32-32z" />
<glyph unicode="&#xe957;" glyph-name="arrow-down-wide-short" horiz-adv-x="1152" d="M420.2 218.6l-148.2-161.6v823c0 8.82-7.2 16-16 16s-16-7.18-16-16v-823l-148.2 161.7c-3.188 3.438-7.5 5.188-11.812 5.188-3.876 0-7.75-1.375-10.812-4.188-6.5-6.004-6.938-16.128-1-22.64l176-192.040c6.124-6.624 17.5-6.624 23.62 0l176 192.040c5.938 6.504 5.5 16.628-1 22.64-6.396 5.9-16.596 5.5-22.596-1.1zM1072 864h-544c-8.8 0-16-7.18-16-16s7.2-16 16-16h544c8.8 0 16 7.18 16 16s-7.2 16-16 16zM944 608h-416c-8.8 0-16-7.2-16-16s7.2-16 16-16h416c8.8 0 16 7.2 16 16s-7.2 16-16 16zM816 352h-288c-8.8 0-16-7.2-16-16s7.2-16 16-16h288c8.8 0 16 7.2 16 16s-7.2 16-16 16zM688 96h-160c-8.8 0-16-7.2-16-16s7.2-16 16-16h160c8.812 0 16 7.188 16 16s-7.2 16-16 16z" />
<glyph unicode="&#xe958;" glyph-name="arrow-down-z-a" d="M420.2 218.6l-148.2-161.6v823c0 8.816-7.188 16.004-16 16.004s-16-7.184-16-16.004v-823l-148.2 161.7c-3.188 3.438-7.5 5.188-11.812 5.188-3.876 0-7.75-1.375-10.812-4.188-6.5-6.004-6.938-16.128-1-22.64l176-192.040c6.124-6.624 17.5-6.624 23.62 0l176 192.040c5.938 6.504 5.5 16.628-1 22.64-6.396 5.9-16.596 5.5-22.596-1.1zM910.2 544h-252.4l266.6 325.8c3.938 4.75 4.75 11.376 2.062 17-2.662 5.64-8.262 9.2-16.262 9.2h-288c-8.812 0-16-7.188-16-16s7.188-16 16-16h254.2l-266.6-325.8c-3.938-4.75-4.75-11.376-2.062-17 4.462-5.6 10.062-9.2 14.462-9.2h288c8.812 0 16 7.188 16 16s-5.4 16-16 16zM958.4 23.2l-176 352c-5.376 10.876-23.24 10.876-28.62 0l-176-352c-3.938-7.876-0.75-17.5 7.188-21.44 7.624-3.812 17.5-0.812 21.44 7.188l51.392 103.052h220.2l51.56-103.12c2.84-5.68 8.64-8.88 12.64-8.88 2.438 0 4.876 0.563 7.124 1.688 9.676 3.912 12.876 13.512 9.076 21.512zM673.8 144l94.12 188.26 94.28-188.26h-188.4z" />
<glyph unicode="&#xe959;" glyph-name="arrow-left" horiz-adv-x="896" d="M345.8 95.6l-341.090 341c-6.28 6.28-6.28 16.452 0 22.74l341 341c6.28 6.28 16.452 6.28 22.74 0s6.28-16.452 0-22.74l-313.57-311.8h825c8.854 0 16.072-7.194 16.072-16.080s-7.22-16.070-16.072-16.070h-825l313.6-313.6c6.28-6.28 6.28-16.452 0-22.74-6.28-7.91-18.28-7.91-22.68-1.71z" />
<glyph unicode="&#xe95a;" glyph-name="arrow-left-from-line" horiz-adv-x="896" d="M4.688 459.4c-6.25-6.25-6.25-16.376 0-22.62l304-304c3.112-3.18 7.112-4.78 11.312-4.78s8.188 1.563 11.312 4.688c6.25 6.25 6.25 16.376 0 22.62l-276.692 276.692h633.38c8.812 0 15.936 7.156 15.936 16s-7.136 16-15.936 16h-633.38l276.6 276.6c6.25 6.25 6.25 16.376 0 22.62s-16.376 6.25-22.62 0l-303.912-303.82zM864 816v-736c0-8.836 7.164-16 16-16s16 7.2 16 16v736c0 8.84-7.2 16-16 16s-16-7.16-16-16z" />
<glyph unicode="&#xe95b;" glyph-name="arrow-left-long" d="M4.6 459.4c-6.2-6.2-6.2-16.4 0-22.6l304-304c6.2-6.2 16.4-6.2 22.6 0s6.2 16.4 0 22.6l-276.6 276.6h953.4c8.8 0 16 7.2 16 16s-7.2 16-16 16h-953.4l276.8 276.6c6.2 6.2 6.2 16.4 0 22.6s-16.4 6.2-22.6 0l-304-304z" />
<glyph unicode="&#xe95c;" glyph-name="arrow-left-long-to-line" horiz-adv-x="1280" d="M0 816v-736c0-8.8 7.2-16 16-16s16 7.2 16 16v736c0 8.8-7.2 16-16 16s-16-7.2-16-16zM260.6 459.4c-6.2-6.2-6.2-16.4 0-22.6l304-304c6.2-6.2 16.4-6.2 22.6 0s6.2 16.4 0 22.6l-276.6 276.6h953.4c8.8 0 16 7.2 16 16s-7.2 16-16 16h-953.4l276.8 276.6c6.2 6.2 6.2 16.4 0 22.6s-16.4 6.2-22.6 0l-304-304z" />
<glyph unicode="&#xe95d;" glyph-name="arrow-left-to-line" horiz-adv-x="896" d="M196.68 459.4c-6.25-6.25-6.25-16.376 0-22.62l304-304c3.12-3.18 7.12-4.78 11.32-4.78s8.188 1.563 11.312 4.688c6.25 6.25 6.25 16.376 0 22.62l-276.712 276.692h633.4c8.8 0 16 7.2 16 16s-7.188 16-16 16h-633.4l276.6 276.6c6.25 6.25 6.25 16.376 0 22.62s-16.376 6.25-22.62 0l-303.9-303.82zM0 816v-736c0-8.8 7.164-16 16-16s16 7.164 16 16v736c0 8.84-7.16 16-16 16s-16-7.16-16-16z" />
<glyph unicode="&#xe95e;" glyph-name="arrow-pointer" horiz-adv-x="640" d="M0.001 109.8v739.84c0 25.6 20.759 46.36 46.379 46.36 11.34 0 22.3-4.16 30.8-11.72l548.020-487.080c9.4-8.4 14.8-20.4 14.8-33 0-24.4-19.8-44.2-44.2-44.2h-290l140.6-297.2c3.8-8 0.4-17.4-7.6-21.2s-17.4-0.4-21.2 7.6l-141 297.6-199.44-227.8c-8.36-9.6-20.44-15-33.14-15-24.31 0-44.020 19.8-44.020 45.8h0.001zM595.8 352c6.8 0 12.2 5.4 12.2 12.2 0 3.4-1.4 6.8-5.8 9l-546.28 487.16c-2.64 2.34-6.020 3.64-9.54 3.64-7.94 0-14.38-6.44-14.38-14.38v-739.82c0-8.4 5.38-13.8 12.020-13.8 3.48 0 6.78 1.4 9.060 4.2l209.12 240.8c6 8.8 16.6 11 25.8 11h307.8z" />
<glyph unicode="&#xe95f;" glyph-name="arrow-right" horiz-adv-x="896" d="M550.2 800.36l341-341c6.28-6.28 6.28-16.452 0-22.74l-341-341c-6.28-6.28-16.452-6.28-22.74 0-6.28 6.28-6.28 16.452 0 22.74l313.6 313.6h-824.986c-8.854 0-16.072 7.186-16.072 16.072s7.218 16.078 16.072 16.078h825l-313.6 313.6c-6.28 6.28-6.28 16.452 0 22.74 6.326 6.19 16.526 6.19 22.726-0.090z" />
<glyph unicode="&#xe960;" glyph-name="arrow-right-arrow-left" horiz-adv-x="896" d="M891.4 692.6c6.2 6.2 6.2 16.4 0 22.6l-208 208c-6.2 6.2-16.4 6.2-22.6 0s-6.2-16.4 0-22.6l180.6-180.6h-825.4c-8.8 0-16-7.2-16-16s7.2-16 16-16h825.4l-180.6-180.6c-6.2-6.2-6.2-16.4 0-22.6s16.4-6.2 22.6 0l208 208zM4.6 180.6l208-208c6.2-6.2 16.4-6.2 22.6 0s6.2 16.4 0 22.6l-180.6 180.8h825.4c8.8 0 16 7.2 16 16s-7.2 16-16 16h-825.4l180.6 180.6c6.2 6.2 6.2 16.4 0 22.6s-16.4 6.2-22.6 0l-208-208c-6.2-6.2-6.2-16.4 0-22.6z" />
<glyph unicode="&#xe961;" glyph-name="arrow-right-from-arc" d="M512-32c8.8 0 16-7.2 16-16s-7.2-16-16-16c-282.8 0-512 229.2-512 512s229.2 512 512 512c8.8 0 16-7.164 16-16 0-8.84-7.2-16-16-16-265 0-480-215-480-480s215-480 480-480zM1018.4 460.2c1.8-3 5.6-7.4 5.6-12.2s-3.8-9.2-5.6-12.2l-304-256c-6.8-4-17-4.8-22.6 1.8-5.8 6.8-4.8 17 1.8 22.6l270.6 227.8h-630c-7 0-16 7.2-16 16s9 16 16 16h630l-270.6 227.8c-6.6 5.6-7.6 15.8-1.8 22.6 5.6 6.6 15.8 7.6 22.6 1.8l304-256z" />
<glyph unicode="&#xe962;" glyph-name="arrow-right-from-bracket" d="M240 32h-160c-26.46 0-48 21.54-48 48v736c0 26.46 21.54 48 48 48h160c8.8 0 16 7.16 16 16s-7.2 16-16 16h-160c-44.12 0-80-35.88-80-80v-736c0-44.2 35.88-80 80-80h160c8.8 0 16 7.2 16 16s-7.2 16-16 16zM1019.4 459.4l-368 368c-3.2 3.040-7.2 4.6-11.4 4.6s-8.188-1.563-11.312-4.688c-6.25-6.25-6.25-16.376 0-22.62l340.712-340.692h-697.4c-8.8 0-16-7.2-16-16s7.188-16 16-16h697.4l-340.6-340.6c-6.25-6.25-6.25-16.376 0-22.62 3-3.18 7-4.78 11.2-4.78s8.188 1.563 11.312 4.688l368 368c3.088 3.112 4.688 7.312 4.688 11.312s-1.6 8.2-4.6 11.4z" />
<glyph unicode="&#xe963;" glyph-name="arrow-right-from-line" horiz-adv-x="896" d="M891.4 436.6c6.25 6.25 6.25 16.376 0 22.62l-304 304c-3.2 3.22-7.2 4.78-11.4 4.78s-8.188-1.563-11.312-4.688c-6.25-6.25-6.25-16.376 0-22.62l276.712-276.692h-633.4c-8.82 0-15.94-7.2-15.94-16s7.12-16 15.94-16h633.4l-276.6-276.6c-6.25-6.25-6.25-16.376 0-22.62s16.376-6.25 22.62 0l303.98 303.82zM32 80v736c0 8.84-7.16 16-16 16s-16-7.16-16-16v-736c0-8.8 7.164-16 16-16s16 7.2 16 16z" />
<glyph unicode="&#xe964;" glyph-name="arrow-right-long" d="M1019.4 436.6c6.2 6.2 6.2 16.4 0 22.6l-304 304c-6.2 6.2-16.4 6.2-22.6 0s-6.2-16.4 0-22.6l276.6-276.6h-953.4c-8.8 0-16-7.2-16-16s7.2-16 16-16h953.4l-276.8-276.6c-6.2-6.2-6.2-16.4 0-22.6s16.4-6.2 22.6 0l304 304z" />
<glyph unicode="&#xe965;" glyph-name="arrow-right-long-to-line" horiz-adv-x="1280" d="M1280 816v-736c0-8.8-7.2-16-16-16s-16 7.2-16 16v736c0 8.8 7.2 16 16 16s16-7.2 16-16zM1019.4 459.4c6.2-6.2 6.2-16.4 0-22.6l-304-304c-6.2-6.2-16.4-6.2-22.6 0s-6.2 16.4 0 22.6l276.6 276.6h-953.4c-8.8 0-16 7.2-16 16s7.2 16 16 16h953.4l-276.8 276.6c-6.2 6.2-6.2 16.4 0 22.6s16.4 6.2 22.6 0l304-304z" />
<glyph unicode="&#xe966;" glyph-name="arrow-right-to-arc" d="M992 448c0 265-215 480-480 480-8.8 0-16 7.16-16 16 0 8.836 7.2 16 16 16 282.8 0 512-229.2 512-512s-229.2-512-512-512c-8.8 0-16 7.2-16 16s7.2 16 16 16c265 0 480 215 480 480zM698.4 460.2c1.8-3 5.6-7.4 5.6-12.2s-3.8-9.2-5.6-12.2l-304-256c-6.8-4-17-4.8-22.6 1.8-5.8 6.8-4.8 17 1.8 22.6l270.6 227.8h-628.2c-8.836 0-16 7.2-16 16s7.164 16 16 16h628.2l-270.6 227.8c-6.6 5.6-7.6 15.8-1.8 22.6 5.6 6.6 15.8 7.6 22.6 1.8l304-256z" />
<glyph unicode="&#xe967;" glyph-name="arrow-right-to-bracket" d="M944 896h-160c-8.8 0-16-7.16-16-16s7.156-16 16-16h160c26.46 0 48-21.54 48-48v-736c0-26.46-21.54-48-48-48h-160c-8.844 0-16-7.156-16-16s7.2-16 16-16h160c44.12 0 80 35.88 80 80v736c0 44.12-35.8 80-80 80zM763.4 459.4l-368 368c-3.2 3.040-7.2 4.6-11.4 4.6s-8.2-1.56-11.4-4.68c-6.25-6.25-6.25-16.376 0-22.62l340.8-340.7h-697.4c-8.812 0-16-7.2-16-16s7.188-16 16-16h697.4l-340.6-340.6c-6.25-6.25-6.25-16.376 0-22.62 3-3.18 7-4.78 11.2-4.78s8.188 1.563 11.312 4.688l368 368c3.088 3.112 4.688 7.312 4.688 11.312s-1.6 8.2-4.6 11.4z" />
<glyph unicode="&#xe968;" glyph-name="arrow-right-to-city" horiz-adv-x="1280" d="M608 880c0 26.6 21.4 48 48 48h288c26.6 0 48-21.4 48-48v-320c0-8.8 7.2-16 16-16h192c26.6 0 48-21.4 48-48v-544c0-8.8 7.2-16 16-16s16 7.2 16 16v544c0 44.2-35.8 80-80 80h-48v176c0 8.8-7.2 16-16 16s-16-7.2-16-16v-176h-96v304c0 44.2-35.8 80-80 80h-288c-44.2 0-80-35.8-80-80v-928c0-8.8 7.2-16 16-16s16 7.2 16 16v928zM720 768v-64c0-26.6 21.4-48 48-48h64c26.6 0 48 21.4 48 48v64c0 26.6-21.4 48-48 48h-64c-26.6 0-48-21.4-48-48zM768 784h64c8.8 0 16-7.2 16-16v-64c0-8.8-7.2-16-16-16h-64c-8.8 0-16 7.2-16 16v64c0 8.8 7.2 16 16 16zM1024 432c-26.6 0-48-21.4-48-48v-64c0-26.6 21.4-48 48-48h64c26.6 0 48 21.4 48 48v64c0 26.6-21.4 48-48 48h-64zM1008 384c0 8.8 7.2 16 16 16h64c8.8 0 16-7.2 16-16v-64c0-8.8-7.2-16-16-16h-64c-8.8 0-16 7.2-16 16v64zM976 128v-64c0-26.6 21.4-48 48-48h64c26.6 0 48 21.4 48 48v64c0 26.6-21.4 48-48 48h-64c-26.6 0-48-21.4-48-48zM1024 144h64c8.8 0 16-7.2 16-16v-64c0-8.8-7.2-16-16-16h-64c-8.8 0-16 7.2-16 16v64c0 8.8 7.2 16 16 16zM768 560c-26.6 0-48-21.4-48-48v-64c0-26.6 21.4-48 48-48h64c26.6 0 48 21.4 48 48v64c0 26.6-21.4 48-48 48h-64zM752 512c0 8.8 7.2 16 16 16h64c8.8 0 16-7.2 16-16v-64c0-8.8-7.2-16-16-16h-64c-8.8 0-16 7.2-16 16v64zM720 256v-64c0-26.6 21.4-48 48-48h64c26.6 0 48 21.4 48 48v64c0 26.6-21.4 48-48 48h-64c-26.6 0-48-21.4-48-48zM768 272h64c8.8 0 16-7.2 16-16v-64c0-8.8-7.2-16-16-16h-64c-8.8 0-16 7.2-16 16v64c0 8.8 7.2 16 16 16zM315.4 651.4c-6.2 6.2-16.4 6.2-22.6 0s-6.2-16.4 0-22.6l164.6-164.8h-441.4c-8.8 0-16-7.2-16-16s7.2-16 16-16h441.4l-164.6-164.6c-6.2-6.2-6.2-16.4 0-22.6s16.4-6.2 22.6 0l192 192c6.2 6.2 6.2 16.4 0 22.6l-192 192z" />
<glyph unicode="&#xe969;" glyph-name="arrow-right-to-line" horiz-adv-x="896" d="M699.4 436.6c6.25 6.25 6.25 16.376 0 22.62l-304 304c-3.2 3.22-7.2 4.78-11.4 4.78s-8.2-1.56-11.4-4.68c-6.25-6.25-6.25-16.376 0-22.62l276.8-276.7h-633.4c-8.812 0-16-7.2-16-16s7.188-16 16-16h633.4l-276.6-276.6c-6.25-6.25-6.25-16.376 0-22.62s16.376-6.25 22.62 0l303.98 303.82zM896 80v736c0 8.84-7.2 16-16 16s-16-7.16-16-16v-736c0-8.836 7.164-16 16-16s16 7.2 16 16z" />
<glyph unicode="&#xe96a;" glyph-name="arrow-rotate-left" d="M512 912c-190.86 0-362-120.28-430.8-295.8l-40.14 200.42c-1.74 8.7-10.5 14.12-18.8 12.56-8.698-1.74-14.322-10.18-12.572-18.8l50.22-251c1.531-7.624 8.188-12.876 15.656-12.876 1.063 0 2.124 0.125 3.156 0.312l251.080 50.184c8.688 1.75 14.282 10.188 12.562 18.812-1.762 8.588-10.762 14.188-18.762 12.588l-220.6-44.1c58.14 174.5 223.8 295.7 409 295.7 238.2 0 432-193.82 432-432s-193.78-432-432-432c-88.88 0-174.26 26.76-246.8 77.44-7.124 5-17.188 3.376-22.28-4-5.062-7.25-3.282-17.188 3.968-22.24 77.912-54.4 169.712-83.2 265.112-83.2 255.8 0 464 208.2 464 464s-208.2 464-464 464z" />
<glyph unicode="&#xe96b;" glyph-name="arrow-rotate-right" d="M48 448c0-255.8 208.2-464 464-464 95.44 0 187.16 28.76 265.2 83.18 7.25 5.062 9.032 15 3.968 22.24-5.094 7.376-15.156 9-22.28 4-72.688-50.62-158.088-77.42-246.888-77.42-238.2 0-432 193.82-432 432s193.8 432 432 432c185.1 0 350.8-121.18 409-295.8l-220.6 44.1c-8.188 1.625-17.062-3.876-18.812-12.562-1.719-8.624 3.876-17.062 12.562-18.812l251-50.18c1.031-0.188 2.094-0.312 3.156-0.312 7.468 0 14.124 5.25 15.656 12.876l50.22 251c1.75 8.624-3.876 17.062-12.562 18.812-8.312 1.563-17.062-3.876-18.812-12.562l-40.1-200.4c-68.708 175.56-239.908 295.84-430.708 295.84-255.8 0-464-208.2-464-464z" />
<glyph unicode="&#xe96c;" glyph-name="arrows-cross" horiz-adv-x="896" d="M880 896h-318.2c-8.876 0-15.918-7.172-15.918-15.984 0-8.844 7.156-16 15.992-16h281.2l-838.172-836.416c-14.934-14.922 7.628-37.6 22.62-22.62l836.478 836.42v-281.2c0-8.844 7.156-16 15.988-16 8.812 0 16.012 7 16.012 17.6v318.22c0 8.82-7.2 15.98-16 15.98zM334.8 538.4c6.246-6.242 16.37-6.438 22.62-0.195 6.38 6.395 6.38 16.595 0.18 22.995l-330.080 329.9c-14.914 14.94-37.586-7.64-22.606-22.62l329.886-330.080zM880 351.8c-8.836 0-15.992-7.156-15.992-15.984v-281.2l-302.808 302.984c-6.246 6.242-16.368 6.040-22.62-0.203-6.246-6.25-6.25-16.172-0.004-22.42l303-303h-281.2c-8.836 0-15.992-7.156-15.992-15.992s6.816-15.985 15.616-15.985h318.2c10.6 0 17.8 7.2 17.8 16v320c0 8.8-7.2 15.8-16 15.8z" />
<glyph unicode="&#xe96d;" glyph-name="arrows-down-to-line" horiz-adv-x="1152" d="M1136 32c8.8 0 16-7.2 16-16s-7.2-16-16-16h-1120c-8.836 0-16 7.2-16 16s7.164 16 16 16h1120zM907.4 180.6c-6.4-6.2-16.4-6.2-22.8 0l-240 240c-6.2 6.4-6.2 16.4 0 22.8 6.4 6.2 16.4 6.2 22.8 0l212.6-212.8v649.4c0 8.84 7.2 16 16 16s16-7.16 16-16v-649.4l212.6 212.8c6.4 6.2 16.4 6.2 22.8 0 6.2-6.4 6.2-16.4 0-22.8l-240-240zM507.4 420.6l-240-240c-6.4-6.2-16.4-6.2-22.8 0l-239.914 240c-6.248 6.4-6.248 16.4 0 22.8 6.25 6.2 16.374 6.2 22.634 0l212.68-212.8v649.4c0 8.84 7.2 16 16 16s16-7.16 16-16v-649.4l212.6 212.8c6.4 6.2 16.4 6.2 22.8 0 6.2-6.4 6.2-16.4 0-22.8z" />
<glyph unicode="&#xe96e;" glyph-name="arrows-down-to-people" horiz-adv-x="1280" d="M272 944c0 8.836 7.2 15.999 16 15.999s16-7.163 16-15.999v-313.4l100.6 100.8c6.4 6.2 16.4 6.2 22.8 0 6.2-6.4 6.2-16.4 0-22.8l-128-128c-6.4-6.2-16.4-6.2-22.8 0l-127.92 128c-6.24 6.4-6.24 16.4 0 22.8 6.26 6.2 16.38 6.2 22.64 0l100.68-100.8v313.4zM875.4 731.4l100.6-100.8v313.4c0 8.836 7.2 16 16 16s16-7.164 16-16v-313.4l100.6 100.8c6.4 6.2 16.4 6.2 22.8 0 6.2-6.4 6.2-16.4 0-22.8l-128-128c-6.4-6.2-16.4-6.2-22.8 0l-128 128c-6.2 6.4-6.2 16.4 0 22.8 6.4 6.2 16.4 6.2 22.8 0v0zM912 368c0 44.2 35.8 80 80 80s80-35.8 80-80c0-44.2-35.8-80-80-80s-80 35.8-80 80zM992 320c26.6 0 48 21.4 48 48s-21.4 48-48 48c-26.6 0-48-21.4-48-48s21.4-48 48-48zM798.2 145.8c36.2 67.8 106.8 110.2 183.6 110.2h25.6c76.8 0 147.4-42.4 183.6-110.2l56-105c14-26.2 3.6-58.6-22.8-72-24.6-12.2-54.6-3.6-68.8 20l-48.8 81.4v-70.2c0-35.4-30.4-64-64-64h-96c-35.4 0-64 28.6-64 64v70.2l-48.8-81.4c-14.2-23.6-44-32.2-68.6-20-26.6 13.4-37 45.8-23 72l56 105zM981.8 224c-65 0-124.6-35.8-155.2-93.2l-56.2-105.2c-5.4-10.2-1.4-23 9-28.2 9.6-4.8 21.4 0.4 27 8l78.6 130.8c3.6 6.2 9.2 9.2 17.8 7.2 7-2 11.8-8.2 11.8-15.4v-128c0-17.6 14.4-32 32-32h96c17.6 0 32 14.4 32 32v128c0 7.2 4.8 13.4 11.8 15.4 6.8 2 14.2-1 18-7.2l78.4-130.8c5.6-7.6 17.4-12.8 27-8 10.4 5.2 14.4 18 9 28.2l-56 105.2c-30.6 57.4-90.4 93.2-155.4 93.2h-25.6zM368 368c0-44.2-35.8-80-80-80s-80 35.8-80 80c0 44.2 35.8 80 80 80s80-35.8 80-80zM288 416c-26.6 0-48-21.4-48-48s21.4-48 48-48c26.6 0 48 21.4 48 48s-21.4 48-48 48zM303.4 256c76.8 0 147.4-42.4 183.6-110.2l56-105c14-26.2 3.6-58.6-22.8-72-24.6-12.2-54.6-3.6-68.8 20l-48.8 81.4v-70.2c0-35.4-30.4-64-64-64h-96c-35.4 0-63.98 28.6-63.98 64v70.2l-48.82-81.4c-14.16-23.6-44.080-32.2-68.68-20-26.5 13.4-36.86 45.8-22.92 72l56.080 105c36.16 67.8 106.72 110.2 183.52 110.2h25.6zM66.44 25.6c-5.46-10.2-1.4-23 8.98-28.2 9.66-4.8 21.38 0.4 26.94 8l78.54 130.8c3.7 6.2 11.060 9.2 18 7.2 6.9-2 11.7-8.2 11.7-15.4v-128c0-17.6 14.4-32 32-32h96c17.6 0 32 14.4 32 32v128c0 7.2 4.8 13.4 11.8 15.4 6.8 2 14.2-1 18-7.2l78.4-130.8c5.6-7.6 17.4-12.8 27-8 10.4 5.2 14.4 18 9 28.2l-56 105.2c-30.6 57.4-90.4 93.2-155.4 93.2h-25.6c-65 0-124.68-35.8-155.28-93.2l-56.080-105.2zM560 592c0 44.2 35.8 80 80 80s80-35.8 80-80c0-44.2-35.8-80-80-80s-80 35.8-80 80zM640 544c26.6 0 48 21.4 48 48s-21.4 48-48 48c-26.6 0-48-21.4-48-48s21.4-48 48-48zM629.8 448c-65 0-124.6-35.8-155.2-93.2l-0.2-0.2-40-73c-4.2-7.8-14-10.6-21.8-6.4s-10.6 14-6.4 21.6l40.2 73.2c36 67.6 106.6 110 183.4 110h25.6c76.8 0 147.4-42.4 183.6-110l40-73.2c4.2-7.6 1.4-17.4-6.4-21.6s-17.4-1.4-21.8 6.4l-40 73.2c-30.6 57.4-90.4 93.2-155.4 93.2h-25.6zM551 367.4c5.2-2 11.6-8.2 11.6-15.4v-176c0-8.8-7.2-16-16-16s-16 7.2-16 16v120.8l-33-52.2c-4.8-7.6-14.6-9.8-22-5-7.6 4.6-9.8 14.6-5 22l62.4 99c4 6 11.2 8.8 18 6.8v0zM734.2 367.4c6.8 2 14.2-0.8 18-6.8l62.4-99c4.8-7.4 2.6-17.4-4.8-22-7.6-4.8-17.4-2.6-22.2 5l-33 52.2v-120.8c0-8.8-7.2-16-16-16s-16 7.2-16 16v176c0 7.2 4.8 13.4 11.6 15.4v0z" />
<glyph unicode="&#xe96f;" glyph-name="arrows-from-dotted-line" horiz-adv-x="896" d="M64 480c-17.68 0-32-14.4-32-32s14.32-32 32-32 32 14.4 32 32-14.32 32-32 32zM288 448c0 17.672-14.328 32-32 32s-32-14.4-32-32 14.4-32 32-32 32 14.4 32 32zM416 448c0-17.672 14.328-32 32-32s32 14.328 32 32-14.4 32-32 32-32-14.4-32-32zM640 480c-17.672 0-32-14.328-32-32s14.328-32 32-32 32 14.328 32 32-14.4 32-32 32zM832 480c-17.672 0-32-14.328-32-32s14.328-32 32-32 32 14.328 32 32-14.4 32-32 32zM272 752c4.094 0 8.188 1.563 11.312 4.688l148.688 148.692v-313.38c0-8.812 7.188-15.968 16-15.968s16 7.168 16 15.968v313.38l148.68-148.68c3.12-3.1 7.12-4.7 11.32-4.7 11.438 0 16 10.228 16 16.042 0 4.094-1.563 8.146-4.688 11.27l-176 176c-3.112 3.125-7.312 4.688-13.112 4.688s-6.4-1.563-9.6-4.688l-176-176c-3-3.132-4.6-7.172-4.6-11.272 0-9.040 7.4-16.040 16-16.040zM624 144c-4.094 0-8.188-1.563-11.312-4.688l-148.688-148.712v313.4c0 8.812-7.188 16.020-16 16.020s-16-7.22-16-16.020v-313.4l-148.68 148.68c-3.12 3.12-7.32 4.72-11.32 4.72-8.6 0-16-6.8-16-14.2 0-4.094 1.563-8.198 4.688-11.324l176-176c3.112-4.876 7.112-6.476 11.312-6.476s8.188 1.563 11.312 4.688l176 176c3.088 3.112 4.688 7.312 4.688 13.112 0 7.4-7.4 14.2-16 14.2z" />
<glyph unicode="&#xe970;" glyph-name="arrows-from-line" horiz-adv-x="896" d="M272 752c4.094 0 8.188 1.563 11.312 4.688l148.688 148.692v-313.38c0-8.812 7.188-15.968 16-15.968s16 7.168 16 15.968v313.38l148.68-148.68c3.12-3.1 7.12-4.7 11.32-4.7 11.438 0 16 10.228 16 16.042 0 4.094-1.563 8.146-4.688 11.272l-176 176c-3.112 3.123-7.312 4.686-13.112 4.686s-8.188-1.563-11.312-4.688l-176-176c-1.288-3.132-2.888-7.172-2.888-11.272 0-9.040 7.4-16.040 16-16.040zM624 144c-4.094 0-8.188-1.563-11.312-4.688l-148.688-148.712v313.4c0 8.812-7.188 16.020-16 16.020s-16-7.22-16-16.020v-313.4l-148.68 148.68c-3.12 3.12-7.32 4.72-11.32 4.72-8.6 0-16-6.8-16-14.2 0-4.094 1.563-8.198 4.688-11.324l176-176c3.112-4.876 7.112-6.476 11.312-6.476s8.188 1.563 11.312 4.688l176 176c3.088 3.112 4.688 7.312 4.688 13.112 0 7.4-7.4 14.2-16 14.2zM880 464h-864c-8.836 0-16-7.2-16-14.2s7.164-17.8 16-17.8h864c8.836 0 16 7.182 16 16.018s-7.2 15.982-16 15.982z" />
<glyph unicode="&#xe971;" glyph-name="arrows-left-right" d="M1019.4 436.4l-192-207.6c-6.25-6.384-16.376-6.384-22.62 0-6.25 6.384-6.25 16.726 0 23.1l164.68 179.76h-914.84l164.68-179.76c6.25-6.384 6.25-16.724 0-23.1-3.1-3.2-7.1-4.8-11.3-4.8s-8.188 1.596-11.312 4.788l-192 207.6c-6.25 6.384-6.25 16.724 0 23.1l192 207.6c6.25 6.384 16.376 6.384 22.62 0s6.25-16.726 0-23.1l-164.688-179.588h914.8l-164.68 179.76c-6.25 6.384-6.25 16.726 0 23.1 3.060 3.14 7.060 4.74 11.26 4.74s8.188-1.596 11.312-4.788l192-207.6c6.288-6.412 6.288-16.812 0.088-23.212z" />
<glyph unicode="&#xe972;" glyph-name="arrows-left-right-to-line" horiz-adv-x="1280" d="M16 832c8.84 0 16-7.16 16-16v-736c0-8.8-7.16-16-16-16-8.836 0-16 7.2-16 16v736c0 8.84 7.164 16 16 16zM411.4 651.4c6.2-6.4 6.2-16.4 0-22.8l-164.8-164.6h786.8l-164.8 164.6c-6.2 6.4-6.2 16.4 0 22.8 6.4 6.2 16.4 6.2 22.8 0l192-192c6.2-6.4 6.2-16.4 0-22.8l-192-192c-6.4-6.2-16.4-6.2-22.8 0-6.2 6.4-6.2 16.4 0 22.8l164.8 164.6h-786.8l164.8-164.6c6.2-6.4 6.2-16.4 0-22.8-6.4-6.2-16.4-6.2-22.8 0l-191.92 192c-6.24 6.4-6.24 16.4 0 22.8l191.92 192c6.4 6.2 16.4 6.2 22.8 0v0zM1280 80c0-8.8-7.2-16-16-16s-16 7.2-16 16v736c0 8.84 7.2 16 16 16s16-7.16 16-16v-736z" />
<glyph unicode="&#xe973;" glyph-name="arrows-maximize" horiz-adv-x="896" d="M864 592v249.38l-393.4-393.38 393.4-393.4v249.4c0 8.844 7.16 16 15.996 16 8.848 0 16-7.156 16-16v-288c0-8.852-7.168-16-16-16h-288c-8.796 0-15.996 7.2-15.996 16 0 8.836 7.16 16 16 16h249.4l-393.4 393.4-393.38-393.4h249.38c8.8 0 16-7.2 16-16s-7.2-16-16-16h-288c-8.848 0-16 7.2-16 16v288c0 8.8 7.16 16 16 16 8.836 0 15.996-7.156 15.996-16v-249.4l393.404 393.4-395.2 393.38v-249.38c0-8.8-5.36-16-14.2-16-8.848 0-16 7.2-16 16v288c0 8.86 7.168 16 16 16h288c8.8 0 16-7.18 16-16 0-8.84-7.2-16-16-16h-249.38l393.38-393.4 393.4 393.4h-249.4c-8.8 0-16 7.16-16 16 0 8.82 7.2 16 16 16h288c8.8 0 16-7.16 16-16v-288c0-8.8-7.2-16-16-16s-16 7.2-16 16z" />
<glyph unicode="&#xe974;" glyph-name="arrows-minimize" d="M91.54 5l324.6 324.6v-281.4c0-8.84 7.16-16 15.996-16 8.84 0 15.886 7.034 15.886 15.884l0.178 320.116c0 8.832-7.152 15.996-16 15.996l-320.080 0.004c-8.878 0-15.884-7.068-15.884-15.88 0-8.84 7.16-16 16-16h281.4l-324.6-324.6c-15.096-15.12 7.544-37.72 22.504-22.72zM432.2 863.76c-8.836 0-15.996-7.16-15.996-16v-281.4l-324.684 324.72c-14.98 15-37.56-7.7-22.62-22.62l324.6-324.6h-281.28c-8.84 0-16-7.16-16-16 0-8.808 7.008-15.88 15.89-15.88l320.2-0.116c8.832 0 16 7.148 16 15.996l-0.11 320.020c0 8.84-7.2 15.88-16 15.88zM591.8 32.2c8.836 0 15.996 7.16 15.996 16v281.4l324.6-324.6c14.972-14.976 37.58 7.664 22.62 22.62l-324.6 324.6h281.4c8.84 0 16 7.16 16 16 0 8.804-7.004 15.88-15.886 15.88l-320.2 0.117c-8.832 0-16-7.148-16-15.996l0.113-320.2c-0.043-8.821 7.157-15.821 15.957-15.821zM591.8 511.8l320.2 0.115c8.878 0 15.89 7.064 15.89 15.88 0 8.84-7.16 16-16 16h-281.4l324.6 324.6c14.938 14.93-7.632 37.62-22.62 22.62l-324.6-324.6v281.345c0 8.84-7.16 16-15.996 16-8.84 0-15.89-7.038-15.89-15.884l-0.11-320.2c-0.074-8.676 7.126-15.876 15.926-15.876z" />
<glyph unicode="&#xe975;" glyph-name="arrows-repeat" d="M838.8 753.8l-161.66-148.18c-6.5-6-6.968-16.126-0.969-22.62 3.229-5.2 7.429-5.2 11.829-5.2 3.876 0 7.75 1.375 10.812 4.188l192 176c3.388 1.212 5.188 5.512 5.188 11.812 0 4.5-1.875 8.754-5.188 11.816l-192 176c-6.438 5.938-16.562 5.5-22.6-1-6-6.5-5.532-16.626 0.969-22.62l161.66-148.18h-502.841c-185.28 0-336-150.76-336-336 0-8.812 7.156-15.998 16-15.998s16 5.382 16 15.982c0 167.62 136.38 304 304 304h502.8zM1008 465.8c-8.844 0-16-7.188-16-16 0-167.62-136.38-304-304-304h-502.86l161.66 148.18c6.5 6 6.968 16.126 0.969 22.62-5.968 6.5-16.094 6.938-22.6 1l-192-176c-3.289-4.8-5.169-9-5.169-11.8 0-4.5 1.875-8.75 5.188-11.812l192-176c3.012-4.588 7.012-5.988 10.812-5.988 4.312 0 8.624 1.75 11.782 5.188 6 6.5 5.532 16.626-0.969 22.62l-161.66 148.18h502.847c185.28 0 336 150.74 336 334.2 0 10.612-7.2 19.612-16 19.612z" />
<glyph unicode="&#xe976;" glyph-name="arrows-repeat-1" d="M838.8 753.8l-161.66-148.2c-3.436-3.172-5.188-7.498-5.188-11.83 0-8.862 7.236-15.982 14.2-15.982 3.876 0 7.75 1.375 10.812 4.188l192 176c5.236 1.224 7.036 5.524 7.036 11.824s-1.875 8.754-5.188 11.816l-192 176c-3.032 2.798-6.884 4.18-10.74 4.18-8.768 0-16.072-7.036-16.072-15.974 0-4.334 1.751-8.658 5.188-11.83l161.66-148.18h-502.848c-185.28 0-336-150.76-336-336 0-10.612 7.156-16.012 16-16.012s16 7.188 16 16c0 167.62 136.38 304 304 304h502.8zM1008 465.8c-8.844 0-16-7.188-16-16 0-167.62-136.38-304-304-304h-502.86l161.66 148.2c3.436 3.172 5.188 7.498 5.188 11.83 0 8.816-7.172 15.974-16.026 15.974-3.858 0-7.724-1.382-10.788-4.18l-192-176c-3.294-4.824-5.174-9.224-5.174-13.624s1.875-8.75 5.188-11.812l192-176c3.012-2.788 7.012-4.188 10.812-4.188 8.756 0 14.2 7.114 14.2 15.982 0 4.334-1.751 8.658-5.188 11.83l-159.872 148.188h502.86c185.28 0 336 150.76 336 336 0 8.8-7.2 17.8-16 17.8zM528 320c8.844 0 16 7.188 16 16v224c0 8.812-7.166 16.014-16.010 16.014l-47.99-0.014c-8.8 0-16-7.2-16-16s7.2-16 16-16h32v-208c0-8.8 7.2-16 16-16z" />
<glyph unicode="&#xe977;" glyph-name="arrows-retweet" horiz-adv-x="1280" d="M704 160h-385.8c-26.46 0-48 21.56-48 48v571.2l213-198.88c5-2.92 8.8-4.32 12.8-4.32 4.282 0 8.532 1.688 11.688 5.062 6.032 6.5 5.688 16.624-0.781 22.62l-240 224c-6.124 5.75-15.688 5.75-21.82 0l-240-224c-6.468-6-6.812-16.124-0.781-22.62 6.062-6.438 16.156-6.812 22.6-0.75l211.294 198.888v-571.2c0-44.12 35.88-80 80-80h385.8c8.844 0 16 7.188 16 16s-7.2 16-16 16zM1275.6 315c-6 6.438-16.156 6.75-22.6 0.75l-213-198.88v571.13c0 44.12-35.88 80-80 80h-384c-8.8 0-16-7.18-16-16s7.2-16 16-16h384c26.46 0 48-21.56 48-48v-571.2l-213 198.88c-6.406 6-16.532 5.688-22.6-0.75-6.032-6.5-5.688-16.624 0.781-22.62l240-224c3.019-2.91 6.819-4.31 10.819-4.31s7.846 1.437 10.91 4.312l240 224c6.49 6.088 6.89 16.088 0.69 22.688z" />
</font>
</defs>
</svg>
