<?xml version="1.0" standalone="no"?>
<!DOCTYPE svg PUBLIC "-//W3C//DTD SVG 1.1//EN" "http://www.w3.org/Graphics/SVG/1.1/DTD/svg11.dtd" >
<svg xmlns="http://www.w3.org/2000/svg">
<metadata>Generated by IcoMoon</metadata>
<defs>
<font id="font-awesome-pro-6-regular" horiz-adv-x="1024">
<font-face units-per-em="1024" ascent="960" descent="-64" />
<missing-glyph horiz-adv-x="1024" />
<glyph unicode="&#x20;" horiz-adv-x="512" d="" />
<glyph unicode="&#xe900;" glyph-name="00" horiz-adv-x="1280" d="M288 896c-159 0-288-129-288-288v-320c0-159 129-288 288-288s288 129 288 288v320c0 159-129 288-288 288zM96 608c0 106 86 192 192 192s192-86 192-192v-320c0-106-86-192-192-192s-192 86-192 192v320zM992 896c-159 0-288-129-288-288v-320c0-159 129-288 288-288s288 129 288 288v320c0 159-129 288-288 288zM800 608c0 106 86 192 192 192s192-86 192-192v-320c0-106-86-192-192-192s-192 86-192 192v320z" />
<glyph unicode="&#xe901;" glyph-name="0" horiz-adv-x="640" d="M0 576c0 176.8 143.2 320 320 320s320-143.2 320-320v-256c0-176.8-143.2-320-320-320s-320 143.2-320 320v256zM320 800c-123.8 0-224-100.2-224-224v-256c0-123.8 100.2-224 224-224s224 100.2 224 224v256c0 123.8-100.2 224-224 224z" />
<glyph unicode="&#xe902;" glyph-name="1" horiz-adv-x="512" d="M304 848c0 17.4-9.4 33.4-24.6 42s-33.8 8-48.6-1l-208-128c-22.6-13.8-29.6-43.4-15.8-66s43.4-29.6 66-15.8l135 83v-666.2h-160c-26.6 0-48-21.4-48-48s21.4-48 48-48h416c26.6 0 48 21.4 48 48s-21.4 48-48 48h-160v752z" />
<glyph unicode="&#xe903;" glyph-name="2" horiz-adv-x="640" d="M295 800c-53.2 0-104.4-21.2-142-58.8l-71-71.2c-18.8-18.8-49.2-18.8-67.8 0s-18.8 49.2 0 67.8l71 71.2c55.6 55.8 131.2 87 209.8 87h14.6c156 0 282.4-126.4 282.4-282.4 0-78.2-32.4-152.8-89.4-206.2l-333-311.4h422.4c26.6 0 48-21.4 48-48s-21.4-48-48-48h-544c-19.8 0-37.4 12-44.6 30.4s-2.6 39.2 11.8 52.6l421.8 394.6c37.6 35.2 59 84.4 59 136 0 103-83.4 186.4-186.4 186.4h-14.6z" />
<glyph unicode="&#xe904;" glyph-name="3" horiz-adv-x="640" d="M0 848c0 26.6 21.4 48 48 48h512c19.6 0 37.2-12 44.6-30.2s2.8-39-11.4-52.6l-297.8-285.2h80.6c145.8 0 264-118.2 264-264s-118.2-264-264-264h-181.2c-78.8 0-150.8 44.6-186 115l-3.8 7.6c-11.8 23.8-2.2 52.6 21.4 64.4s52.6 2.2 64.4-21.4l3.8-7.6c19-38 57.8-62 100.2-62h181.2c92.8 0 168 75.2 168 168s-75.2 168-168 168h-200c-19.6 0-37.2 12-44.6 30.2s-2.8 39 11.4 52.6l297.8 285.2h-392.6c-26.6 0-48 21.4-48 48z" />
<glyph unicode="&#xe905;" glyph-name="4" horiz-adv-x="768" d="M378.4 825.6c12.4 23.4 3.4 52.4-20 64.8s-52.4 3.4-64.8-20l-288-544c-7.8-14.8-7.4-32.8 1.2-47.2s24.4-23.2 41.2-23.2h496v-208c0-26.6 21.4-48 48-48s48 21.4 48 48v208h80c26.6 0 48 21.4 48 48s-21.4 48-48 48h-80v304c0 26.6-21.4 48-48 48s-48-21.4-48-48v-304h-416.2l250.6 473.6z" />
<glyph unicode="&#xe906;" glyph-name="5" horiz-adv-x="640" d="M64.8 856.2c4 23 23.8 39.8 47.2 39.8h416c26.6 0 48-21.4 48-48s-21.4-48-48-48h-375.6l-47.4-272h271c145.8 0 264-118.2 264-264s-118.2-264-264-264h-191c-72.8 0-139.2 41-171.8 106.2l-8.2 16.4c-11.8 23.8-2.2 52.6 21.4 64.4s52.6 2.2 64.4-21.4l8.2-16.4c16.4-32.6 49.6-53.2 86-53.2h191c92.8 0 168 75.2 168 168s-75.2 168-168 168h-328c-14.2 0-27.6 6.2-36.8 17.2s-13 25-10.4 39l64 368z" />
<glyph unicode="&#xe907;" glyph-name="6" horiz-adv-x="640" d="M544 320c0 123.8-100.2 224-224 224-64.6 0-123-27.4-163.8-71.2l-10.2-12.6c-32.4-39.6-50-89.2-50-140.2 0-123.8 100.2-224 224-224s224 100.2 224 224zM291.4 638.8c9.4 0.8 19 1.2 28.6 1.2 176.8 0 320-143.2 320-320s-143.2-320-320-320-320 143.2-320 320c0 83 31.6 158.8 83.6 215.6l279.2 342.8c16.8 20.6 47 23.6 67.6 6.8s23.6-47 6.8-67.6l-145.8-179z" />
<glyph unicode="&#xe908;" glyph-name="7" horiz-adv-x="640" d="M0 848c0 26.6 21.4 48 48 48h544c17.2 0 33.2-9.4 41.8-24.4s8.2-33.6-0.6-48.4l-480-800c-13.6-22.8-43.2-30-65.8-16.4s-30.2 43.2-16.4 65.8l436.2 727.4h-459.2c-26.6 0-48 21.4-48 48z" />
<glyph unicode="&#xe909;" glyph-name="8" horiz-adv-x="640" d="M608 648c0 137-111 248-248 248h-80c-137 0-248-111-248-248 0-75.4 33.6-142.8 86.6-188.4-71.2-43.6-118.6-122-118.6-211.6 0-137 111-248 248-248h144c137 0 248 111 248 248 0 89.6-47.4 168-118.6 211.6 53 45.6 86.6 113 86.6 188.4zM360.2 400h31.8c84 0 152-68 152-152s-68-152-152-152h-144c-84 0-152 68-152 152s68 152 152 152h31.8c0 0 0 0 0.2 0h80c0 0 0 0 0.2 0zM360.2 496c0 0 0 0 0 0h-80.2c0 0 0 0 0 0-84 0-152 68-152 152s68 152 152 152h80c84 0 152-68 152-152s-68-152-152-152z" />
<glyph unicode="&#xe90a;" glyph-name="9" horiz-adv-x="640" d="M96 576c0-123.8 100.2-224 224-224 64.6 0 123 27.4 163.8 71.2l10.2 12.6c32.4 39.6 50 89.2 50 140.2 0 123.8-100.2 224-224 224s-224-100.2-224-224zM348.6 257.2c-9.4-0.8-19-1.2-28.6-1.2-176.8 0-320 143.2-320 320s143.2 320 320 320 320-143.2 320-320c0-83-31.6-158.8-83.6-215.6l-279.2-342.8c-16.8-20.6-47-23.6-67.6-6.8s-23.6 47-6.8 67.6l145.8 179z" />
<glyph unicode="&#xe90b;" glyph-name="degrees" horiz-adv-x="1280" d="M1280 896c0 35.346-28.654 64-64 64s-64-28.654-64-64v0c0-35.346 28.654-64 64-64s64 28.654 64 64v0zM992 160c-35.4 0-64 28.6-64 64v448c0 35.4 28.6 64 64 64s64-28.6 64-64v-448c0-35.4-28.6-64-64-64zM992 832c-88.4 0-160-71.6-160-160v-448c0-88.4 71.6-160 160-160s160 71.6 160 160v448c0 88.4-71.6 160-160 160zM48 832c-26.6 0-48-21.4-48-48s21.4-48 48-48h166.4l-142.4-213.4c-9.8-14.8-10.8-33.6-2.4-49.2s24.6-25.4 42.4-25.4h64c61.8 0 112-50.2 112-112v-64c0-61.8-50.2-112-112-112-20.2 0-40.2 12.4-58.6 32.4-8.6 9.4-15.4 19-20.2 26.4-2.4 3.6-4 6.6-5 8.4-0.6 1-0.8 1.6-1 2l-0.2 0.2c-12 23.6-40.6 33.2-64.4 21.2-23.8-11.6-33.4-40.4-21.6-64l43 21.4c-43-21.4-43-21.4-43-21.4v0 0-0.2l0.8-1.6c0.6-1 1.2-2.4 2.2-4 1.8-3.4 4.6-7.8 8-13.2 6.8-10.6 17-25 30.4-39.6 25.8-28.4 69.8-64 129.6-64 114.8 0 208 93.2 208 208v64c0 106.6-80 194.4-183.2 206.6l143.2 214.8c9.8 14.8 10.8 33.6 2.4 49.2s-24.6 25.4-42.4 25.4h-256zM646.4 784c-22.6 42.4-22.6 42.4-22.6 42.4v0 0l-0.2-0.2-0.6-0.2-1.8-1c-1.4-0.8-3.4-2-5.8-3.4-4.8-2.8-11.4-7-19.4-12.2-15.8-10.6-36.8-26.2-58-46.6-41.4-39.6-90-103.4-90-186.6v-352c0-88.4 71.6-160 160-160s160 71.6 160 160v191.8c0 88.4-71.6 160-160 160-22.8 0-44.4-4.8-64-13.4v13.4c0 44.6 26.6 85 60.4 117.4 16.4 15.6 32.8 28 45.4 36.4 6.2 4.2 11.2 7.4 14.6 9.4 1.8 1 3 1.8 3.8 2.2l0.8 0.4c23.4 12.4 32.2 41.4 19.8 64.8s-41.6 32.2-65 19.8l22.6-42.4zM544 416c0 35.4 28.6 64 64 64s64-28.6 64-64v-192c0-35.4-28.6-64-64-64s-64 28.6-64 64v192z" />
<glyph unicode="&#xe90c;" glyph-name="a" horiz-adv-x="768" d="M428.2 866.6c-7.4 17.8-24.8 29.4-44.2 29.4s-36.8-11.6-44.2-29.4l-336-800c-10.2-24.4 1.2-52.6 25.6-62.8s52.6 1.2 62.8 25.6l68.4 162.6h446.8l68.2-162.6c10.2-24.4 38.4-36 62.8-25.6s36 38.4 25.6 62.8l-336 800zM567.2 288h-366.4l183.2 436 183.2-436z" />
<glyph unicode="&#xe90d;" glyph-name="abacus" horiz-adv-x="1152" d="M1024 800c17.6 0 32-14.4 32-32v-224h-160v64h16c26.6 0 48 21.4 48 48s-21.4 48-48 48h-16v96h128zM832 704h-16c-26.6 0-48-21.4-48-48s21.4-48 48-48h16v-64h-256v64h16c26.6 0 48 21.4 48 48s-21.4 48-48 48h-16v96h256v-96zM512 704h-16c-26.6 0-48-21.4-48-48s21.4-48 48-48h16v-64h-192v64h16c26.6 0 48 21.4 48 48s-21.4 48-48 48h-16v96h192v-96zM256 704h-16c-26.6 0-48-21.4-48-48s21.4-48 48-48h16v-64h-160v224c0 17.6 14.4 32 32 32h128v-96zM96 128v352h160v-48h-16c-26.6 0-48-21.4-48-48s21.4-48 48-48h16v-48h-16c-26.6 0-48-21.4-48-48s21.4-48 48-48h16v-96h-128c-17.6 0-32 14.4-32 32zM320 192h16c26.6 0 48 21.4 48 48s-21.4 48-48 48h-16v48h16c26.6 0 48 21.4 48 48s-21.4 48-48 48h-16v48h192v-48h-16c-26.6 0-48-21.4-48-48s21.4-48 48-48h16v-48h-16c-26.6 0-48-21.4-48-48s21.4-48 48-48h16v-96h-192v96zM576 336h16c26.6 0 48 21.4 48 48s-21.4 48-48 48h-16v48h256v-192h-16c-26.6 0-48-21.4-48-48s21.4-48 48-48h16v-96h-256v96h16c26.6 0 48 21.4 48 48s-21.4 48-48 48h-16v48zM896 192h16c26.6 0 48 21.4 48 48s-21.4 48-48 48h-16v192h160v-352c0-17.6-14.4-32-32-32h-128v96zM128 896c-70.6 0-128-57.4-128-128v-640c0-70.6 57.4-128 128-128h896c70.6 0 128 57.4 128 128v640c0 70.6-57.4 128-128 128h-896z" />
<glyph unicode="&#xe90e;" glyph-name="accent-grave" horiz-adv-x="384" d="M144 829.4c0 19 15.6 34.6 34.6 34.6 16.8 0 31.2-12 34-28.6l36.4-204.2-99.2 169c-3.8 6.6-5.8 14-5.8 21.4v7.8zM48 829.4v-7.8c0-24.6 6.6-48.8 19-70.2l114.6-194.8c16.2-27.6 46-44.6 78-44.6 56.4 0 99 51 89.2 106.6l-41.6 233.8c-11 62.2-65.2 107.6-128.6 107.6-72.2 0-130.6-58.4-130.6-130.6z" />
<glyph unicode="&#xe90f;" glyph-name="acorn" horiz-adv-x="896" d="M534.4 883.2c16 21.2 11.6 51.2-9.6 67.2s-51.2 11.6-67.2-9.6l-9.6-12.8c-21.4-28.6-36-61.4-43.2-96h-212.8c-106 0-192-86-192-192v-32c0-35.4 28.6-64 64-64h768c35.4 0 64 28.6 64 64v32c0 106-86 192-192 192h-199.8c4.8 13.6 11.8 26.6 20.6 38.4l9.6 12.8zM800 640h-704c0 53 43 96 96 96h512c53 0 96-43 96-96zM96.8 480c8.2-156.2 78-378.6 331-472.8 13-4.8 27.4-4.8 40.4 0 253 94.2 322.8 316.6 331 472.8h-96.2c-7.8-131.4-65.4-300.4-255-377.8-189.6 77.4-247.4 246.4-255 377.8h-96.2z" />
<glyph unicode="&#xe910;" glyph-name="address-book" d="M768 864c17.6 0 32-14.4 32-32v-768c0-17.6-14.4-32-32-32h-576c-17.6 0-32 14.4-32 32v768c0 17.6 14.4 32 32 32h576zM192 960c-70.6 0-128-57.4-128-128v-768c0-70.6 57.4-128 128-128h576c70.6 0 128 57.4 128 128v768c0 70.6-57.4 128-128 128h-576zM480 448c70.692 0 128 57.308 128 128s-57.308 128-128 128v0c-70.692 0-128-57.308-128-128s57.308-128 128-128v0zM416 384c-88.4 0-160-71.6-160-160 0-17.6 14.4-32 32-32h384c17.6 0 32 14.4 32 32 0 88.4-71.6 160-160 160h-128zM1024 800c0 17.6-14.4 32-32 32s-32-14.4-32-32v-128c0-17.6 14.4-32 32-32s32 14.4 32 32v128zM992 576c-17.6 0-32-14.4-32-32v-128c0-17.6 14.4-32 32-32s32 14.4 32 32v128c0 17.6-14.4 32-32 32zM1024 288c0 17.6-14.4 32-32 32s-32-14.4-32-32v-128c0-17.6 14.4-32 32-32s32 14.4 32 32v128z" />
<glyph unicode="&#xe911;" glyph-name="address-card" horiz-adv-x="1152" d="M1024 800c17.6 0 32-14.4 32-32v-640c0-17.6-14.4-32-32-32h-896c-17.6 0-32 14.4-32 32v640c0 17.6 14.4 32 32 32h896zM128 896c-70.6 0-128-57.4-128-128v-640c0-70.6 57.4-128 128-128h896c70.6 0 128 57.4 128 128v640c0 70.6-57.4 128-128 128h-896zM416 448c70.692 0 128 57.308 128 128s-57.308 128-128 128v0c-70.692 0-128-57.308-128-128s57.308-128 128-128v0zM352 384c-88.4 0-160-71.6-160-160 0-17.6 14.4-32 32-32h384c17.6 0 32 14.4 32 32 0 88.4-71.6 160-160 160h-128zM752 672c-26.6 0-48-21.4-48-48s21.4-48 48-48h160c26.6 0 48 21.4 48 48s-21.4 48-48 48h-160zM752 480c-26.6 0-48-21.4-48-48s21.4-48 48-48h160c26.6 0 48 21.4 48 48s-21.4 48-48 48h-160z" />
<glyph unicode="&#xe912;" glyph-name="air-conditioner" horiz-adv-x="1152" d="M128 864c-17.6 0-32-14.4-32-32v-256c0-17.6 14.4-32 32-32h896c17.6 0 32 14.4 32 32v256c0 17.6-14.4 32-32 32h-896zM0 832c0 70.6 57.4 128 128 128h896c70.6 0 128-57.4 128-128v-256c0-70.6-57.4-128-128-128h-896c-70.6 0-128 57.4-128 128v256zM240 704h672c26.6 0 48-21.4 48-48s-21.4-48-48-48h-672c-26.6 0-48 21.4-48 48s21.4 48 48 48zM736 384v-208c0-44.2 35.8-80 80-80s80 35.8 80 80c0 29.6-16 55.4-40 69.4-23 13.2-30.8 42.6-17.4 65.6s42.6 30.8 65.6 17.4c52.4-30.4 87.8-87.2 87.8-152.4 0-97.2-78.8-176-176-176s-176 78.8-176 176v208h96zM416 112v272h96v-272c0-97.2-78.8-176-176-176s-176 78.8-176 176c0 65.2 35.4 122 87.8 152.4 23 13.2 52.4 5.4 65.6-17.4s5.4-52.4-17.4-65.6c-24-14-40-39.8-40-69.4 0-44.2 35.8-80 80-80s80 35.8 80 80z" />
<glyph unicode="&#xe913;" glyph-name="airplay" horiz-adv-x="1152" d="M960 800h-768c-53 0-96-43-96-96v-384c0-53 43-96 96-96h107l-69.4-69.4c-8-8-14.8-17-20.4-26.6h-17.2c-106 0-192 86-192 192v384c0 106 86 192 192 192h768c106 0 192-86 192-192v-384c0-106-86-192-192-192h-17.2c-5.6 9.6-12.4 18.4-20.4 26.6l-69.4 69.4h107c53 0 96 43 96 96v384c0 53-43 96-96 96zM397.2 96h357.6l-178.8 178.8-178.8-178.8zM621.2 365.2l256-256c18.4-18.4 23.8-45.8 13.8-69.8s-33.2-39.6-59.2-39.6h-511.8c-25.8 0-49.2 15.6-59.2 39.6s-4.4 51.4 13.8 69.8l256 256c25 25 65.6 25 90.6 0z" />
<glyph unicode="&#xe914;" glyph-name="alarm-clock" d="M320 909.2c-34 31.6-79.6 50.8-129.6 50.8-105.2 0-190.4-85.2-190.4-190.4 0-37.6 11-72.6 29.8-102.2l290.2 241.8zM512 736c194.404 0 352-157.596 352-352s-157.596-352-352-352v0c-194.404 0-352 157.596-352 352s157.596 352 352 352v0zM512-64c106.4 0 204.2 37.2 281 99l85-85c18.8-18.8 49.2-18.8 67.8 0s18.8 49.2 0 67.8l-85 85c62 76.8 99 174.6 99 281 0.2 247.6-200.4 448.2-447.8 448.2s-448-200.6-448-448c0-106.4 37.2-204.2 99-281l-85-85c-18.8-18.8-18.8-49.2 0-67.8s49.2-18.8 67.8 0l85 85c76.8-62 174.6-99 281-99zM994.2 667.2c18.8 29.6 29.8 64.8 29.8 102.4 0 105.2-85.2 190.4-190.4 190.4-50 0-95.6-19.2-129.6-50.8l290.2-242zM560 592c0 26.6-21.4 48-48 48s-48-21.4-48-48v-208c0-12.8 5-25 14-34l96-96c18.8-18.8 49.2-18.8 67.8 0s18.8 49.2 0 67.8l-82 82v188.2z" />
<glyph unicode="&#xe915;" glyph-name="alarm-exclamation" d="M29.8 667.2c-18.8 29.6-29.8 64.8-29.8 102.4 0 105.2 85.2 190.4 190.4 190.4 50 0 95.6-19.2 129.6-50.8l-290.2-242zM864 384c0 194.404-157.596 352-352 352s-352-157.596-352-352v0c0-194.404 157.596-352 352-352s352 157.596 352 352v0zM793 35c-76.8-61.8-174.6-99-281-99s-204.2 37.2-281 99l-85-85c-18.8-18.8-49.2-18.8-67.8 0s-18.8 49.2 0 67.8l85 85c-62 77-99.2 174.8-99.2 281.2 0 247.4 200.6 448 448 448s448-200.6 448-448c0-106.4-37.2-204.2-99-281l85-85c18.8-18.8 18.8-49.2 0-67.8s-49.2-18.8-67.8 0l-85 85zM704 909.2c34 31.6 79.6 50.8 129.6 50.8 105.2 0 190.4-85.2 190.4-190.4 0-37.6-11-72.6-29.8-102.2l-290.2 241.8zM512 256c35.346 0 64-28.654 64-64s-28.654-64-64-64v0c-35.346 0-64 28.654-64 64s28.654 64 64 64v0zM560 592v-224c0-26.6-21.4-48-48-48s-48 21.4-48 48v224c0 26.6 21.4 48 48 48s48-21.4 48-48z" />
<glyph unicode="&#xe916;" glyph-name="alarm-plus" d="M320 909.2c-34 31.6-79.6 50.8-129.6 50.8-105.2 0-190.4-85.2-190.4-190.4 0-37.6 11-72.6 29.8-102.2l290.2 241.8zM512 736c194.404 0 352-157.596 352-352s-157.596-352-352-352v0c-194.404 0-352 157.596-352 352s157.596 352 352 352v0zM512-64c106.4 0 204.2 37.2 281 99l85-85c18.8-18.8 49.2-18.8 67.8 0s18.8 49.2 0 67.8l-85 85c62 76.8 99 174.6 99 281 0.2 247.6-200.4 448.2-447.8 448.2s-448-200.6-448-448c0-106.4 37.2-204.2 99-281l-85-85c-18.8-18.8-18.8-49.2 0-67.8s49.2-18.8 67.8 0l85 85c76.8-62 174.6-99 281-99zM994.2 667.2c18.8 29.6 29.8 64.8 29.8 102.4 0 105.2-85.2 190.4-190.4 190.4-50 0-95.6-19.2-129.6-50.8l290.2-242zM512 608c-26.6 0-48-21.4-48-48v-128h-128c-26.6 0-48-21.4-48-48s21.4-48 48-48h128v-128c0-26.6 21.4-48 48-48s48 21.4 48 48v128h128c26.6 0 48 21.4 48 48s-21.4 48-48 48h-128v128c0 26.6-21.4 48-48 48z" />
<glyph unicode="&#xe917;" glyph-name="alarm-snooze" d="M320 909.2c-34 31.6-79.6 50.8-129.6 50.8-105.2 0-190.4-85.2-190.4-190.4 0-37.6 11-72.6 29.8-102.2l290.2 241.8zM512 736c194.404 0 352-157.596 352-352s-157.596-352-352-352v0c-194.404 0-352 157.596-352 352s157.596 352 352 352v0zM512-64c106.4 0 204.2 37.2 281 99l85-85c18.8-18.8 49.2-18.8 67.8 0s18.8 49.2 0 67.8l-85 85c62 76.8 99 174.6 99 281 0.2 247.6-200.4 448.2-447.8 448.2s-448-200.6-448-448c0-106.4 37.2-204.2 99-281l-85-85c-18.8-18.8-18.8-49.2 0-67.8s49.2-18.8 67.8 0l85 85c76.8-62 174.6-99 281-99zM994.2 667.2c18.8 29.6 29.8 64.8 29.8 102.4 0 105.2-85.2 190.4-190.4 190.4-50 0-95.6-19.2-129.6-50.8l290.2-242zM400 576c-26.6 0-48-21.4-48-48s21.4-48 48-48h125.8l-163.6-210.6c-11.2-14.4-13.2-34-5.2-50.6s24.8-27 43.2-27h223.8c26.6 0 48 21.4 48 48s-21.4 48-48 48h-125.8l163.8 210.6c11.2 14.4 13.2 34 5.2 50.6s-24.8 27-43.2 27h-224z" />
<glyph unicode="&#xe918;" glyph-name="album" horiz-adv-x="896" d="M128 800c-17.6 0-32-14.4-32-32v-640c0-17.6 14.4-32 32-32h640c17.6 0 32 14.4 32 32v640c0 17.6-14.4 32-32 32h-640zM0 768c0 70.6 57.4 128 128 128h640c70.6 0 128-57.4 128-128v-640c0-70.6-57.4-128-128-128h-640c-70.6 0-128 57.4-128 128v640zM160 448c0 159.058 128.942 288 288 288s288-128.942 288-288v0c0-159.058-128.942-288-288-288s-288 128.942-288 288v0zM512 448c0 35.346-28.654 64-64 64s-64-28.654-64-64v0c0-35.346 28.654-64 64-64s64 28.654 64 64v0z" />
<glyph unicode="&#xe919;" glyph-name="album-circle-plus" horiz-adv-x="1152" d="M128 800h640c17.6 0 32-14.4 32-32v-197.8c20.8 3.8 42.2 5.8 64 5.8 10.8 0 21.4-0.4 32-1.4v193.4c0 70.6-57.4 128-128 128h-640c-70.6 0-128-57.4-128-128v-640c0-70.6 57.4-128 128-128h464.4c-23.6 28.6-42.8 61-56.4 96h-408c-17.6 0-32 14.4-32 32v640c0 17.6 14.4 32 32 32zM448 736c-159 0-288-129-288-288s129-288 288-288c23.6 0 46.4 2.8 68.4 8.2-2.8 18.2-4.4 36.8-4.4 55.8 0 142.8 85 265.8 207.2 321-39.8 111.4-146.2 191-271.2 191zM384 448c0 35.346 28.654 64 64 64s64-28.654 64-64v0c0-35.346-28.654-64-64-64s-64 28.654-64 64v0zM864-64c159.058 0 288 128.942 288 288s-128.942 288-288 288v0c-159.058 0-288-128.942-288-288s128.942-288 288-288v0zM896 352v-96h96c17.6 0 32-14.4 32-32s-14.4-32-32-32h-96v-96c0-17.6-14.4-32-32-32s-32 14.4-32 32v96h-96c-17.6 0-32 14.4-32 32s14.4 32 32 32h96v96c0 17.6 14.4 32 32 32s32-14.4 32-32z" />
<glyph unicode="&#xe91a;" glyph-name="album-circle-user" horiz-adv-x="1152" d="M128 800h640c17.6 0 32-14.4 32-32v-197.8c20.8 3.8 42.2 5.8 64 5.8 10.8 0 21.4-0.4 32-1.4v193.4c0 70.6-57.4 128-128 128h-640c-70.6 0-128-57.4-128-128v-640c0-70.6 57.4-128 128-128h464.4c-23.6 28.6-42.8 61-56.4 96h-408c-17.6 0-32 14.4-32 32v640c0 17.6 14.4 32 32 32zM448 736c-159 0-288-129-288-288s129-288 288-288c23.6 0 46.4 2.8 68.4 8.2-2.8 18.2-4.4 36.8-4.4 55.8 0 142.8 85 265.8 207.2 321-39.8 111.4-146.2 191-271.2 191zM384 448c0 35.346 28.654 64 64 64s64-28.654 64-64v0c0-35.346-28.654-64-64-64s-64 28.654-64 64v0zM1152 224c0 159.058-128.942 288-288 288s-288-128.942-288-288v0c0-159.058 128.942-288 288-288s288 128.942 288 288v0zM1019.4 62.6c-40.4-38.8-95-62.6-155.4-62.6s-115 23.8-155.4 62.6c12.4 38 48 65.4 90.2 65.4h130.4c42 0 77.8-27.4 90.2-65.4zM768 288c0 53.019 42.981 96 96 96s96-42.981 96-96v0c0-53.019-42.981-96-96-96s-96 42.981-96 96v0z" />
<glyph unicode="&#xe91b;" glyph-name="album-collection" d="M102 960h800c26.6 0 48-21.4 48-48s-21.4-48-48-48h-800c-26.6 0-48 21.4-48 48s21.4 48 48 48zM2.4 495.4c-10.2 76.6 49.4 144.6 126.8 144.6h745.6c77.4 0 137-68 127-144.6l-59-448c-8.4-63.8-62.8-111.4-127-111.4h-627.6c-64.2 0-118.6 47.6-127 111.4l-58.8 448zM129.2 544c-19.4 0-34.2-17-31.8-36.2l59-448c2-16 15.6-27.8 31.8-27.8h627.6c16 0 29.6 12 31.8 27.8l59 448c2.6 19.2-12.4 36.2-31.8 36.2h-745.6zM790 288c0-114.8-129-208-288-208s-288 93.2-288 208 129 208 288 208 288-93.2 288-208zM22 752c0 26.6 21.4 48 48 48h864c26.6 0 48-21.4 48-48s-21.4-48-48-48h-864c-26.6 0-48 21.4-48 48zM502 224c35.4 0 64 21.4 64 48s-28.6 48-64 48-64-21.4-64-48 28.6-48 64-48z" />
<glyph unicode="&#xe91c;" glyph-name="album-collection-circle-plus" horiz-adv-x="1280" d="M112 960h800c26.6 0 48-21.4 48-48s-21.4-48-48-48h-800c-26.6 0-48 21.4-48 48s21.4 48 48 48zM12.4 495.4c-10.2 76.6 49.4 144.6 126.8 144.6h745.6c47.8 0 88.8-26 110.8-64h-3.6c-52.4 0-102.2-11.4-146.8-32h-706c-19.4 0-34.2-17-31.8-36.2l59-448c2-16 15.6-27.8 31.8-27.8h498.8c24.6-37.6 56-70.2 92.6-96h-591.4c-64.2 0-118.6 47.6-127 111.4l-58.8 448zM512 496c77.8 0 148.4-22.2 200.2-58.4-45.4-59.2-72.2-133.2-72.2-213.6 0-40.2 6.8-78.8 19.2-114.8-43.2-18.6-93.4-29.2-147.2-29.2-159 0-288 93.2-288 208s129 208 288 208zM32 752c0 26.6 21.4 48 48 48h864c26.6 0 48-21.4 48-48s-21.4-48-48-48h-864c-26.6 0-48 21.4-48 48zM512 224c35.4 0 64 21.4 64 48s-28.6 48-64 48-64-21.4-64-48 28.6-48 64-48zM992 512c159.058 0 288-128.942 288-288s-128.942-288-288-288v0c-159.058 0-288 128.942-288 288s128.942 288 288 288v0zM1024 352c0 17.6-14.4 32-32 32s-32-14.4-32-32v-96h-96c-17.6 0-32-14.4-32-32s14.4-32 32-32h96v-96c0-17.6 14.4-32 32-32s32 14.4 32 32v96h96c17.6 0 32 14.4 32 32s-14.4 32-32 32h-96v96z" />
<glyph unicode="&#xe91d;" glyph-name="album-collection-circle-user" horiz-adv-x="1280" d="M112 960h800c26.6 0 48-21.4 48-48s-21.4-48-48-48h-800c-26.6 0-48 21.4-48 48s21.4 48 48 48zM12.4 495.4c-10.2 76.6 49.4 144.6 126.8 144.6h745.6c47.8 0 88.8-26 110.8-64h-3.6c-52.4 0-102.2-11.4-146.8-32h-706c-19.4 0-34.2-17-31.8-36.2l59-448c2-16 15.6-27.8 31.8-27.8h498.8c24.6-37.6 56-70.2 92.6-96h-591.4c-64.2 0-118.6 47.6-127 111.4l-58.8 448zM512 496c77.8 0 148.4-22.2 200.2-58.4-45.4-59.2-72.2-133.2-72.2-213.6 0-40.2 6.8-78.8 19.2-114.8-43.2-18.6-93.4-29.2-147.2-29.2-159 0-288 93.2-288 208s129 208 288 208zM32 752c0 26.6 21.4 48 48 48h864c26.6 0 48-21.4 48-48s-21.4-48-48-48h-864c-26.6 0-48 21.4-48 48zM512 224c35.4 0 64 21.4 64 48s-28.6 48-64 48-64-21.4-64-48 28.6-48 64-48zM704 224c0 159.058 128.942 288 288 288s288-128.942 288-288v0c0-159.058-128.942-288-288-288s-288 128.942-288 288v0zM1147.4 62.6c-12.4 38-48 65.4-90.2 65.4h-130.4c-42 0-77.8-27.4-90.2-65.4 40.4-38.8 95-62.6 155.4-62.6s115 23.8 155.4 62.6zM1088 288c0 53.019-42.981 96-96 96s-96-42.981-96-96v0c0-53.019 42.981-96 96-96s96 42.981 96 96v0z" />
<glyph unicode="&#xe91e;" glyph-name="alicorn" horiz-adv-x="1280" d="M219.2 692.2c-19.8-14.6-37-32.2-51-52.4-93.6-4-168.2-81.2-168.2-175.8v-128c0-26.6 21.4-48 48-48s48 21.4 48 48v128c0 26.4 12.8 50 32.6 64.4-0.4-5.6-0.6-11.2-0.6-17 0-28.6 5.4-56.8 16-83.4l43.8-109.2-16.4-43.4c-22.6-60.2-25.4-126.2-8.2-188.2l22.4-81c11.6-41.6 49.4-70.4 92.4-70.4h99.6c63.4 0 109.4 60.6 92.4 121.6l-29.6 106.6c-1 3.2-0.8 6.8 0.4 10l24.2 64.6c2.8 7.4 5.2 14.8 7.2 22.4l103.8-30v-199c0-53 43-96 96-96h96c53 0 96 43 96 96v272.4c39.6 45.2 64 104.6 64 171v20.2c35.4-12 75-11.6 111.6 3 68.8 27.6 110 98.6 99.4 172l-19.8 138.4c-3.2 22.6-10.6 43.8-21.4 62.6 13.4 8.4 22.2 23.4 22.2 40.4 0 26.6-21.4 48-48 48h-112v-0.6c-5 0.4-10 0.6-15 0.6h-81c-3.6 0-7-0.4-10.4-1.2-123.6-10.6-226.2-95.2-263-209.4l-262 155.8c-14.8 8.8-33.2 9-48.2 0.4s-24.4-24.4-24.4-41.6c0-152.6 72.2-260.4 142.6-328.4 35-34 70-58.6 96.2-74.6 13.2-8 24.2-14.2 32.2-18.2 4-2 7.2-3.6 9.6-4.8 1.2-0.6 2-1 2.8-1.2l0.8-0.4 0.2-0.2h0.2c0 0 0 0 19.2 44l-19.2-44c24.2-10.6 52.6 0.4 63.2 24.8s-0.4 52.6-24.8 63.2v0h-0.2l-1.4 0.6c-1.4 0.6-3.8 1.8-6.8 3.4-6 3-15 8-25.8 14.6-21.8 13.4-50.8 33.8-79.8 61.8-41.6 40.4-82.4 95.6-101.6 168.2l38.8-23.2 172.8-102.8c5.2-3.2 10.8-5.2 16.6-6v-0.6h7.2c0.6 0 1.2 0 1.6 0h25.6c24.2 0 44.6 18 47.6 42 12.2 98.2 93.2 175.4 193.2 181.6 1.4 0 2.6 0.2 4 0.4h74.2c39.8 0 73.6-29.2 79.2-68.6l19.8-138.4c4.2-29.6-12.4-58.2-40-69.4-26.6-10.6-56.8-2.6-74.6 19.6l-11.8 14.6c-12.8 16-34.2 22-53.4 15.4s-32.2-25-32.2-45.2v-110c0-1 0-2 0-3 0-1.2 0-2.4 0-3.4 0-47-19.2-88.2-49.4-117.6-9.2-9-14.6-21.4-14.6-34.4v-291.8h-96v235.6c0 22.6-15.8 42.2-38 47-4.2 0.8-8.4 2-12.6 3.2l-176 51.4c-14.6 4.2-30.6 1.4-42.6-8s-19.2-23.8-18.8-39c0-0.8 0-1.8 0-2.6 0-16-2.8-32-8.6-47l-24.2-64.6c-8.4-22.2-9.4-46.4-3-69.2l29.6-106.8h-99.6l-22.4 81c-11.8 42.4-9.8 87.4 5.6 128.8l16.4 43.4c8.4 22.4 8.2 47.2-0.8 69.4l-43.8 109.2c-6 15.2-9.2 31.4-9.2 47.8 0 34.8 14 66.6 36.4 89.6-16 27.4-30 57.8-41.2 91zM928 736c17.673 0 32 14.327 32 32s-14.327 32-32 32v0c-17.673 0-32-14.327-32-32s14.327-32 32-32v0zM1261.4 832h-173.4v-96l179.2 59.8c7.6 2.6 12.8 9.6 12.8 17.6 0 10.2-8.4 18.6-18.6 18.6z" />
<glyph unicode="&#xe91f;" glyph-name="alien" horiz-adv-x="896" d="M389.4-46.4c17.2-11.8 37.8-17.6 58.6-17.6s41.4 5.8 58.6 17.6c91.8 63 389.4 287.8 389.4 558.4 0 247.4-200.6 448-448 448s-448-200.6-448-448c0-270.6 297.6-495.4 389.4-558.4zM448 864c194.4 0 352-157.6 352-352 0-100.8-56.4-202.6-136.4-293.8-78.4-89.4-168.4-156.2-211.2-185.4v0 0h-0.2c0 0-0.2 0-0.2 0s-0.2 0-0.2 0h-0.2c-0.6-0.2-1.8-0.4-3.6-0.4s-2.8 0.2-3.6 0.4c-0.2 0-0.4 0.2-0.4 0.2h-0.4c-42.8 29.2-132.8 96-211.2 185.4-80 91-136.4 192.8-136.4 293.6 0 194.4 157.6 352 352 352zM480 347.4c0-15.2 12.2-27.4 27.4-27.4h64c90.8 0 164.6 73.6 164.6 164.6 0 15.2-12.2 27.4-27.4 27.4h-64c-90.8 0-164.6-73.6-164.6-164.6zM251.4 512h-64c-15.2 0-27.4-12.2-27.4-27.4 0-90.8 73.6-164.6 164.6-164.6h64c15.2 0 27.4 12.2 27.4 27.4 0 90.8-73.6 164.6-164.6 164.6z" />
<glyph unicode="&#xe920;" glyph-name="alien-8bit" horiz-adv-x="1152" d="M1120 704h-32c-17.75 0-32-14.25-32-32v-192h-96v128c0 17.75-14.25 32-32 32h-64v128h64c17.8 0 32 14.24 32 32v64c0 17.76-14.2 32-32 32h-32c-17.75 0-32-14.25-32-30.2v-33.8h-64c-17.8 0-32-14.24-32-32v-96h-384v96c0 17.76-14.2 32-32 32h-64v32c0 17.75-14.25 30.2-32 30.2l-32 1.8c-17.8 0-32-14.24-32-32v-64c0-17.76 14.2-32 32-32h64v-128h-64c-17.75 0-32-14.25-32-32v-128h-96v192c0 17.8-14.24 32-32 32h-32c-17.75 0-32-14.25-32-30.2v-256c0-17.75 14.25-32 32-32h96v-160c0-17.75 14.25-32 32-32h96v-160c0-17.75 14.25-32 32-32h192c17.75 0 32 14.25 32 30.2v32c0 17.75-14.25 30.2-32 30.2h-128v96h448v-96h-128c-17.75 0-32-14.25-32-30.2v-32c0-17.75 14.25-30.2 32-30.2h192c17.75 0 32 14.25 32 32v160h96c17.75 0 32 14.25 32 32v160h96c17.75 0 32 14.25 32 32v256c0 16-14.2 30.2-32 30.2zM928 288h-704v96h64v160h96v64h384v-64h96v-160h64v-96zM480 512l-64-0.001c-17.8 0.001-32-14.199-32-31.999v-96c0-17.75 14.25-32 32-32h64c17.8 0 32 14.2 32 32v96c0 17.8-14.2 32-32 32zM736 512h-64c-17.8 0-32-14.2-32-32v-96c0-17.75 14.25-32 32-32l64-0.001c17.8 0.001 32 14.201 32 32.001v96c0 17.8-14.2 32-32 32z" />
<glyph unicode="&#xe921;" glyph-name="align-center" horiz-adv-x="896" d="M240 880c-26.6 0-48-21.4-48-48s21.4-48 48-48h416c26.6 0 48 21.4 48 48s-21.4 48-48 48h-416zM48 624c-26.6 0-48-21.4-48-48s21.4-48 48-48h800c26.6 0 48 21.4 48 48s-21.4 48-48 48h-800zM192 320c0-26.6 21.4-48 48-48h416c26.6 0 48 21.4 48 48s-21.4 48-48 48h-416c-26.6 0-48-21.4-48-48zM48 112c-26.6 0-48-21.4-48-48s21.4-48 48-48h800c26.6 0 48 21.4 48 48s-21.4 48-48 48h-800z" />
<glyph unicode="&#xe922;" glyph-name="align-justify" horiz-adv-x="896" d="M48 880c-26.6 0-48-21.4-48-48s21.4-48 48-48h800c26.6 0 48 21.4 48 48s-21.4 48-48 48h-800zM48 624c-26.6 0-48-21.4-48-48s21.4-48 48-48h800c26.6 0 48 21.4 48 48s-21.4 48-48 48h-800zM0 320c0-26.6 21.4-48 48-48h800c26.6 0 48 21.4 48 48s-21.4 48-48 48h-800c-26.6 0-48-21.4-48-48zM48 112c-26.6 0-48-21.4-48-48s21.4-48 48-48h800c26.6 0 48 21.4 48 48s-21.4 48-48 48h-800z" />
<glyph unicode="&#xe923;" glyph-name="align-left" horiz-adv-x="896" d="M48 880c-26.6 0-48-21.4-48-48s21.4-48 48-48h480c26.6 0 48 21.4 48 48s-21.4 48-48 48h-480zM48 624c-26.6 0-48-21.4-48-48s21.4-48 48-48h800c26.6 0 48 21.4 48 48s-21.4 48-48 48h-800zM0 320c0-26.6 21.4-48 48-48h480c26.6 0 48 21.4 48 48s-21.4 48-48 48h-480c-26.6 0-48-21.4-48-48zM48 112c-26.6 0-48-21.4-48-48s21.4-48 48-48h800c26.6 0 48 21.4 48 48s-21.4 48-48 48h-800z" />
<glyph unicode="&#xe924;" glyph-name="align-right" horiz-adv-x="896" d="M848 880c26.6 0 48-21.4 48-48s-21.4-48-48-48h-480c-26.6 0-48 21.4-48 48s21.4 48 48 48h480zM848 624c26.6 0 48-21.4 48-48s-21.4-48-48-48h-800c-26.6 0-48 21.4-48 48s21.4 48 48 48h800zM896 320c0-26.6-21.4-48-48-48h-480c-26.6 0-48 21.4-48 48s21.4 48 48 48h480c26.6 0 48-21.4 48-48zM848 112c26.6 0 48-21.4 48-48s-21.4-48-48-48h-800c-26.6 0-48 21.4-48 48s21.4 48 48 48h800z" />
<glyph unicode="&#xe925;" glyph-name="align-slash" horiz-adv-x="1280" d="M77.6 949.8c-20.8 16.4-51 12.6-67.4-8.2s-12.6-51 8.2-67.4l1184-928c20.8-16.4 51-12.6 67.4 8.2s12.6 51-8.2 67.4l-319.2 250.2h97.6c26.6 0 48 21.4 48 48s-21.4 48-48 48h-220.2l-204 160h424.2c26.6 0 48 21.4 48 48s-21.4 48-48 48h-546.8l-204 160h750.8c26.6 0 48 21.4 48 48s-21.4 48-48 48h-800c-18 0-33.8-10-42-24.6l-120.4 94.4zM304.6 528l-100.8 79.4c-7.4-8.4-11.8-19.4-11.8-31.4 0-26.6 21.4-48 48-48h64.6zM629.6 272l-121.8 96h-267.8c-26.6 0-48-21.4-48-48s21.4-48 48-48h389.6zM240 112c-26.6 0-48-21.4-48-48s21.4-48 48-48h714.4l-121.8 96h-592.6z" />
<glyph unicode="&#xe926;" glyph-name="alt" horiz-adv-x="1280" d="M935.8 719.2c9.2 10.6 22.4 16.8 36.4 16.8h259.8c26.6 0 48 21.4 48 48s-21.4 48-48 48h-259.8c-42 0-82-18.4-109.4-50.2l-518.6-605c-9.2-10.6-22.4-16.8-36.4-16.8h-259.8c-26.6 0-48-21.4-48-48s21.4-48 48-48h259.8c42 0 82 18.4 109.4 50.2l518.6 605zM880 160c-26.6 0-48-21.4-48-48s21.4-48 48-48h352c26.6 0 48 21.4 48 48s-21.4 48-48 48h-352z" />
<glyph unicode="&#xe927;" glyph-name="ampersand" horiz-adv-x="768" d="M292 800h88.8c54.8 0 99.4-44.4 99.4-99.4 0-32.4-15.8-62.8-42.4-81.4l-122.8-86-94.4 97c-18.4 18.8-28.6 43.8-28.6 69.8 0 55.2 44.8 100 100 100zM382.6 463.6l110.2 77c52.2 36.6 83.4 96.2 83.4 160-0.2 108-87.6 195.4-195.6 195.4h-88.6c-108.2 0-196-87.8-196-196 0-51 20-100 55.4-136.6l83.6-86-147.2-103c-55-38.4-87.8-101.4-87.8-168.6 0-113.6 92.2-205.8 205.8-205.8h155.6c70.2 0 135.6 35.4 174 94.2l29.2 44.6 120.8-124.2c18.4-19 48.8-19.4 67.8-1s19.4 48.8 1 67.8l-135.8 139.6 141.6 216.6c14.6 22.2 8.2 52-14 66.4s-52 8.2-66.4-14l-129.6-198.4-167.4 172zM303 407.8l193.2-198.6-41-62.6c-20.6-31.6-56-50.8-93.8-50.8h-155.6c-60.6 0.2-109.8 49.4-109.8 110 0 35.8 17.4 69.4 46.8 90l160 112z" />
<glyph unicode="&#xe928;" glyph-name="amp-guitar" d="M512 960c-97.8 0-185-57.6-243.2-107.6-21.4-18.4-40-36.6-55-52.4h-85.8c-70.6 0-128-57.4-128-128v-608c0-70.6 57.4-128 128-128h768c70.6 0 128 57.4 128 128v608c0 70.6-57.4 128-128 128h-85.8c-15 15.8-33.6 34.2-55 52.4-58.2 50-145.4 107.6-243.2 107.6zM512 864c52.8 0 107.2-27.6 155.4-64h-310.8c48.2 36.4 102.8 64 155.4 64zM928 416v-352c0-17.6-14.4-32-32-32h-768c-17.6 0-32 14.4-32 32v352h832zM928 512h-832v160c0 17.6 14.4 32 32 32h768c17.6 0 32-14.4 32-32v-160zM224 560c26.51 0 48 21.49 48 48s-21.49 48-48 48v0c-26.51 0-48-21.49-48-48s21.49-48 48-48v0zM432 608c0 26.51-21.49 48-48 48s-48-21.49-48-48v0c0-26.51 21.49-48 48-48s48 21.49 48 48v0zM640 560c26.51 0 48 21.49 48 48s-21.49 48-48 48v0c-26.51 0-48-21.49-48-48s21.49-48 48-48v0zM848 608c0 26.51-21.49 48-48 48s-48-21.49-48-48v0c0-26.51 21.49-48 48-48s48 21.49 48 48v0zM768 352c-17.673 0-32-14.327-32-32s14.327-32 32-32v0c17.673 0 32 14.327 32 32s-14.327 32-32 32v0zM704 256c-17.673 0-32-14.327-32-32s14.327-32 32-32v0c17.673 0 32 14.327 32 32s-14.327 32-32 32v0zM768 160c-17.673 0-32-14.327-32-32s14.327-32 32-32v0c17.673 0 32 14.327 32 32s-14.327 32-32 32v0zM576 256c-17.673 0-32-14.327-32-32s14.327-32 32-32v0c17.673 0 32 14.327 32 32s-14.327 32-32 32v0zM640 352c-17.673 0-32-14.327-32-32s14.327-32 32-32v0c17.673 0 32 14.327 32 32s-14.327 32-32 32v0zM640 160c-17.673 0-32-14.327-32-32s14.327-32 32-32v0c17.673 0 32 14.327 32 32s-14.327 32-32 32v0zM448 256c-17.673 0-32-14.327-32-32s14.327-32 32-32v0c17.673 0 32 14.327 32 32s-14.327 32-32 32v0zM512 352c-17.673 0-32-14.327-32-32s14.327-32 32-32v0c17.673 0 32 14.327 32 32s-14.327 32-32 32v0zM512 160c-17.673 0-32-14.327-32-32s14.327-32 32-32v0c17.673 0 32 14.327 32 32s-14.327 32-32 32v0zM320 256c-17.673 0-32-14.327-32-32s14.327-32 32-32v0c17.673 0 32 14.327 32 32s-14.327 32-32 32v0zM384 352c-17.673 0-32-14.327-32-32s14.327-32 32-32v0c17.673 0 32 14.327 32 32s-14.327 32-32 32v0zM384 160c-17.673 0-32-14.327-32-32s14.327-32 32-32v0c17.673 0 32 14.327 32 32s-14.327 32-32 32v0zM192 256c-17.673 0-32-14.327-32-32s14.327-32 32-32v0c17.673 0 32 14.327 32 32s-14.327 32-32 32v0zM256 352c-17.673 0-32-14.327-32-32s14.327-32 32-32v0c17.673 0 32 14.327 32 32s-14.327 32-32 32v0zM256 160c-17.673 0-32-14.327-32-32s14.327-32 32-32v0c17.673 0 32 14.327 32 32s-14.327 32-32 32v0zM832 256c-17.673 0-32-14.327-32-32s14.327-32 32-32v0c17.673 0 32 14.327 32 32s-14.327 32-32 32v0z" />
<glyph unicode="&#xe929;" glyph-name="anchor" horiz-adv-x="1152" d="M640 800c0-35.346-28.654-64-64-64s-64 28.654-64 64v0c0 35.346 28.654 64 64 64s64-28.654 64-64v0zM576 960c-88.4 0-160-71.6-160-160 0-71.8 47.4-132.6 112.6-152.8-0.4-2.4-0.6-4.8-0.6-7.2v-64h-96c-26.6 0-48-21.4-48-48s21.4-48 48-48h96v-448h-48c-147.4 0-267.4 117.2-271.8 263.6l32.6-28c20.2-17.2 50.4-15 67.6 5.2s15 50.4-5.2 67.6l-112 96c-18 15.4-44.6 15.4-62.4 0l-112-96c-20.2-17.2-22.4-47.6-5.2-67.6s47.6-22.4 67.6-5.2l32.8 28.2c4.4-199.4 167.6-359.8 368-359.8h192c200.4 0 363.6 160.4 368 359.8l32.8-28.2c20.2-17.2 50.4-15 67.6 5.2s15 50.4-5.2 67.6l-112 96c-18 15.4-44.4 15.4-62.4 0l-112-96c-20.2-17.2-22.4-47.6-5.2-67.6s47.6-22.4 67.6-5.2l32.6 28c-4.4-146.4-124.4-263.6-271.8-263.6h-48v448h96c26.6 0 48 21.4 48 48s-21.4 48-48 48h-96v64c0 2.4-0.2 4.8-0.6 7.2 65.2 20.2 112.6 81 112.6 152.8 0 88.4-71.6 160-160 160z" />
<glyph unicode="&#xe92a;" glyph-name="anchor-circle-check" horiz-adv-x="1280" d="M640 800c0-35.346-28.654-64-64-64s-64 28.654-64 64v0c0 35.346 28.654 64 64 64s64-28.654 64-64v0zM576 960c-88.4 0-160-71.6-160-160 0-71.8 47.4-132.6 112.6-152.8-0.4-2.4-0.6-4.8-0.6-7.2v-64h-96c-26.6 0-48-21.4-48-48s21.4-48 48-48h96v-448h-48c-147.4 0-267.4 117.2-271.8 263.6l32.6-28c20.2-17.2 50.4-15 67.6 5.2s15 50.4-5.2 67.6l-112 96c-18 15.4-44.6 15.4-62.4 0l-112-96c-20.2-17.2-22.4-47.6-5.2-67.6s47.6-22.4 67.6-5.2l32.8 28.2c4.4-199.4 167.6-359.8 368-359.8h192c34.4 0 67.8 4.8 99.4 13.6-29.4 23.6-54.8 51.8-75.2 83.4-8-0.8-16-1-24.2-1h-48v448h96c26.6 0 48 21.4 48 48s-21.4 48-48 48h-96v64c0 2.4-0.2 4.8-0.6 7.2 65.2 20.2 112.6 81 112.6 152.8 0 88.4-71.6 160-160 160zM1280 224c0 159.058-128.942 288-288 288s-288-128.942-288-288v0c0-159.058 128.942-288 288-288s288 128.942 288 288v0zM1126.6 310.6c12.4-12.4 12.4-32.8 0-45.2l-144-144c-12.4-12.4-32.8-12.4-45.2 0l-80 80c-12.4 12.4-12.4 32.8 0 45.2s32.8 12.4 45.2 0l57.4-57.4 121.4 121.4c12.4 12.4 32.8 12.4 45.2 0z" />
<glyph unicode="&#xe92b;" glyph-name="anchor-circle-exclamation" horiz-adv-x="1280" d="M640 800c0-35.346-28.654-64-64-64s-64 28.654-64 64v0c0 35.346 28.654 64 64 64s64-28.654 64-64v0zM576 960c-88.4 0-160-71.6-160-160 0-71.8 47.4-132.6 112.6-152.8-0.4-2.4-0.6-4.8-0.6-7.2v-64h-96c-26.6 0-48-21.4-48-48s21.4-48 48-48h96v-448h-48c-147.4 0-267.4 117.2-271.8 263.6l32.6-28c20.2-17.2 50.4-15 67.6 5.2s15 50.4-5.2 67.6l-112 96c-18 15.4-44.6 15.4-62.4 0l-112-96c-20.2-17.2-22.4-47.6-5.2-67.6s47.6-22.4 67.6-5.2l32.8 28.2c4.4-199.4 167.6-359.8 368-359.8h192c34.4 0 67.8 4.8 99.4 13.6-29.4 23.6-54.8 51.8-75.2 83.4-8-0.8-16-1-24.2-1h-48v448h96c26.6 0 48 21.4 48 48s-21.4 48-48 48h-96v64c0 2.4-0.2 4.8-0.6 7.2 65.2 20.2 112.6 81 112.6 152.8 0 88.4-71.6 160-160 160zM992-64c159.058 0 288 128.942 288 288s-128.942 288-288 288v0c-159.058 0-288-128.942-288-288s128.942-288 288-288v0zM992 128c26.51 0 48-21.49 48-48s-21.49-48-48-48v0c-26.51 0-48 21.49-48 48s21.49 48 48 48v0zM992 416c17.6 0 32-14.4 32-32v-160c0-17.6-14.4-32-32-32s-32 14.4-32 32v160c0 17.6 14.4 32 32 32z" />
<glyph unicode="&#xe92c;" glyph-name="anchor-circle-xmark" horiz-adv-x="1280" d="M640 800c0-35.346-28.654-64-64-64s-64 28.654-64 64v0c0 35.346 28.654 64 64 64s64-28.654 64-64v0zM576 960c-88.4 0-160-71.6-160-160 0-71.8 47.4-132.6 112.6-152.8-0.4-2.4-0.6-4.8-0.6-7.2v-64h-96c-26.6 0-48-21.4-48-48s21.4-48 48-48h96v-448h-48c-147.4 0-267.4 117.2-271.8 263.6l32.6-28c20.2-17.2 50.4-15 67.6 5.2s15 50.4-5.2 67.6l-112 96c-18 15.4-44.6 15.4-62.4 0l-112-96c-20.2-17.2-22.4-47.6-5.2-67.6s47.6-22.4 67.6-5.2l32.8 28.2c4.4-199.4 167.6-359.8 368-359.8h192c34.4 0 67.8 4.8 99.4 13.6-29.4 23.6-54.8 51.8-75.2 83.4-8-0.8-16-1-24.2-1h-48v448h96c26.6 0 48 21.4 48 48s-21.4 48-48 48h-96v64c0 2.4-0.2 4.8-0.6 7.2 65.2 20.2 112.6 81 112.6 152.8 0 88.4-71.6 160-160 160zM992-64c159.058 0 288 128.942 288 288s-128.942 288-288 288v0c-159.058 0-288-128.942-288-288s128.942-288 288-288v0zM1110.6 297.4l-73.4-73.4 73.4-73.4c12.4-12.4 12.4-32.8 0-45.2s-32.8-12.4-45.2 0l-73.4 73.4-73.4-73.4c-12.4-12.4-32.8-12.4-45.2 0s-12.4 32.8 0 45.2l73.4 73.4-73.4 73.4c-12.4 12.4-12.4 32.8 0 45.2s32.8 12.4 45.2 0l73.4-73.4 73.4 73.4c12.4 12.4 32.8 12.4 45.2 0s12.4-32.8 0-45.2z" />
<glyph unicode="&#xe92d;" glyph-name="anchor-lock" horiz-adv-x="1280" d="M640 800c0-35.346-28.654-64-64-64s-64 28.654-64 64v0c0 35.346 28.654 64 64 64s64-28.654 64-64v0zM576 960c-88.4 0-160-71.6-160-160 0-71.8 47.4-132.6 112.6-152.8-0.4-2.4-0.6-4.8-0.6-7.2v-64h-96c-26.6 0-48-21.4-48-48s21.4-48 48-48h96v-448h-48c-147.4 0-267.4 117.2-271.8 263.6l32.6-28c20.2-17.2 50.4-15 67.6 5.2s15 50.4-5.2 67.6l-112 96c-18 15.4-44.6 15.4-62.4 0l-112-96c-20.2-17.2-22.4-47.6-5.2-67.6s47.6-22.4 67.6-5.2l32.8 28.2c4.4-199.4 167.6-359.8 368-359.8h192c36.6 0 72.2 5.4 105.6 15.4-6.2 15-9.6 31.4-9.6 48.6v49.4c-29.8-11.2-62.2-17.4-96-17.4h-48v448h96c26.6 0 48 21.4 48 48s-21.4 48-48 48h-96v64c0 2.4-0.2 4.8-0.6 7.2 65.2 20.2 112.6 81 112.6 152.8 0 88.4-71.6 160-160 160zM1056 480c35.4 0 64-28.6 64-64v-96h-128v96c0 35.4 28.6 64 64 64zM896 416v-96c-35.4 0-64-28.6-64-64v-256c0-35.4 28.6-64 64-64h320c35.4 0 64 28.6 64 64v256c0 35.4-28.6 64-64 64v96c0 88.4-71.6 160-160 160s-160-71.6-160-160z" />
<glyph unicode="&#xe92e;" glyph-name="angel" horiz-adv-x="1152" d="M768 832c0 0 0-0.2 0-0.4s-0.2-0.6-0.4-1.2c-0.6-1.2-1.8-3.6-4.6-7s-6.8-7.2-12.4-11.2c13.4-16.6 24.4-35.2 32.6-55.4 30.8 21.2 48.8 47.2 48.8 75.2 0 70.6-114.6 128-256 128s-256-57.4-256-128c0-28 18-54 48.6-75 8.2 20 19.2 38.6 32.6 55.4-5.4 4-9.6 8-12.4 11.2-2.8 3.4-4 5.6-4.6 7-0.2 0.6-0.4 1-0.4 1.2s0 0.2 0 0.4 0 0.2 0 0.4 0.2 0.6 0.4 1.2c0.6 1.2 1.8 3.6 4.6 7 5.8 7 16.8 15.8 34.6 24.8 35.8 17.6 89.6 30.4 152.6 30.4s116.8-12.8 152.4-30.8c17.8-9 28.8-17.8 34.6-24.8 2.8-3.4 4-5.6 4.6-7 0.2-0.6 0.4-1 0.4-1.2s0-0.2 0-0.4zM512 672c0 35.346 28.654 64 64 64s64-28.654 64-64v0c0-35.346-28.654-64-64-64s-64 28.654-64 64v0zM736 672c0 88.366-71.634 160-160 160s-160-71.634-160-160v0c0-88.366 71.634-160 160-160s160 71.634 160 160v0zM175.2 183.6c11.2 22.2 16.8 46.8 16.8 71.6v1.8c0 24.8-5.8 49.4-16.8 71.6l-36.8 73.4c-6.8 13.4-10.4 28.8-10.4 44.2 0 54.2 44 97.8 96.4 97.8 25.6 0 50-10.2 68.2-28.2l132.8-132.8c-13.6-14.4-25.4-31-34.6-49.4l-150.8-301.6h-140.6l75.8 151.6zM507.6 436.4l-147.2 147.2c-36 36-85 56.4-136 56.4-106.2 0-192.4-87.6-192.4-193.8 0-30.2 7-60.2 20.4-87.2l36.8-73.4c4.4-8.8 6.8-18.6 6.8-28.6v-1.8c0-10-2.4-19.8-6.8-28.6l-79.6-159.4c-6.4-12.6-9.6-26.6-9.6-40.6 0-50 40.6-90.6 90.6-90.6h970.8c50 0 90.6 40.6 90.6 90.6 0 14-3.2 28-9.6 40.6l-79.6 159.4c-4.4 8.8-6.8 18.6-6.8 28.6v1.8c0 10 2.4 19.8 6.8 28.6l36.8 73.4c13.4 27 20.4 57 20.4 87.2 0 106.2-86.2 193.8-192.4 193.8-51 0-100-20.2-136-56.4l-147.2-147.2c-21.6 7.6-44.8 11.6-68.4 11.6s-46.8-4-68.4-11.6zM726.8 383l132.8 132.8c18 18 42.6 28.2 68.2 28.2 52.2 0 96.4-43.6 96.4-97.8 0-15.4-3.6-30.8-10.4-44.2l-36.8-73.4c-11.2-22.2-16.8-46.8-16.8-71.6v-1.8c0-24.8 5.8-49.4 16.8-71.6l75.6-151.6h-140.6l-150.8 301.6c-9.2 18.4-20.8 35-34.6 49.4zM675.4 290.6l129.2-258.6h-457.2l129.2 258.6c18.8 37.6 57.4 61.4 99.4 61.4s80.6-23.8 99.4-61.4z" />
<glyph unicode="&#xe92f;" glyph-name="angle" horiz-adv-x="896" d="M506.6 825.8c12.2 23.6 3 52.6-20.4 64.8s-52.4 3-64.8-20.4l-416-800c-7.8-14.8-7.2-32.8 1.6-47s24.2-23.2 41-23.2h800c26.6 0 48 21.4 48 48s-21.4 48-48 48h-721l379.6 729.8zM484 609l-45.2-86.8c38.6-31.6 73-68 102.6-108.2l81.6 51.2c-39.2 54.4-86 102.8-139 143.8zM645.4 176h97.6c-12 73.8-36 143.6-69.4 207.6l-81.6-51.2c24.8-48.6 43-101.2 53.6-156.4z" />
<glyph unicode="&#xe930;" glyph-name="angle-90" horiz-adv-x="896" d="M96 848c0 26.6-21.4 48-48 48s-48-21.4-48-48v-800c0-26.6 21.4-48 48-48h800c26.6 0 48 21.4 48 48s-21.4 48-48 48h-752v752zM192 764.8v-96.6c62-7.2 120.8-25 174.8-51.4l50.6 82.2c-69 35-145 57.8-225.4 65.8zM422.4 585.4c65.2-42 121-97.8 163-163l81.8 50.4c-50 78-116.4 144.4-194.4 194.4l-50.4-81.8zM668.2 192h96.6c-8 80.4-30.8 156.4-65.8 225.2l-82-50.6c26.4-53.8 44-112.6 51.4-174.8z" />
<glyph unicode="&#xe931;" glyph-name="angle-down" horiz-adv-x="768" d="M402 286c-18.8-18.8-49.2-18.8-67.8 0l-320.2 320c-18.8 18.8-18.8 49.2 0 67.8s49.2 18.8 67.8 0l286-286 286.2 286.2c18.8 18.8 49.2 18.8 67.8 0s18.8-49.2 0-67.8l-319.8-320.2z" />
<glyph unicode="&#xe932;" glyph-name="angle-left" horiz-adv-x="512" d="M14 482c-18.8-18.8-18.8-49.2 0-67.8l320-320.2c18.8-18.8 49.2-18.8 67.8 0s18.8 49.2 0 67.8l-286 286.2 286.2 286c18.8 18.8 18.8 49.2 0 67.8s-49.2 18.8-67.8 0l-320.2-319.8z" />
<glyph unicode="&#xe933;" glyph-name="angle-right" horiz-adv-x="512" d="M466 482c18.8-18.8 18.8-49.2 0-67.8l-320-320.2c-18.8-18.8-49.2-18.8-67.8 0s-18.8 49.2 0 67.8l286 286-286.2 286.2c-18.8 18.8-18.8 49.2 0 67.8s49.2 18.8 67.8 0l320.2-319.8z" />
<glyph unicode="&#xe934;" glyph-name="angles-down" horiz-adv-x="768" d="M722 734l-320-320c-18.8-18.8-49.2-18.8-67.8 0l-320.2 320c-18.6 18.8-18.6 49.2 0 68s49.2 18.8 67.8 0l286-286 286.2 286c18.8 18.8 49.2 18.8 67.8 0s18.8-49.2 0-67.8zM722 350l-320-320c-18.8-18.8-49.2-18.8-67.8 0l-320.2 320c-18.8 18.8-18.8 49.2 0 67.8s49.2 18.8 67.8 0l286-286 286.2 286.2c18.8 18.8 49.2 18.8 67.8 0s18.8-49.2 0-67.8z" />
<glyph unicode="&#xe935;" glyph-name="angles-left" horiz-adv-x="896" d="M14 482c-18.8-18.8-18.8-49.2 0-67.8l320-320.2c18.8-18.8 49.2-18.8 67.8 0s18.8 49.2 0 67.8l-286 286.2 286.2 286c18.8 18.8 18.8 49.2 0 67.8s-49.2 18.8-67.8 0l-320.2-319.8zM718 802l-320-320c-18.8-18.8-18.8-49.2 0-67.8l320-320.2c18.8-18.8 49.2-18.8 67.8 0s18.8 49.2 0 67.8l-286 286 286.2 286.2c18.8 18.8 18.8 49.2 0 67.8s-49.2 18.8-67.8 0z" />
<glyph unicode="&#xe936;" glyph-name="angles-right" horiz-adv-x="896" d="M146 94l320 320c18.8 18.8 18.8 49.2 0 67.8l-320 320.2c-18.8 18.8-49.2 18.8-67.8 0s-18.8-49.2 0-67.8l286-286-286.2-286.2c-18.8-18.8-18.8-49.2 0-67.8s49.2-18.8 67.8 0zM530 94l320 320c18.8 18.8 18.8 49.2 0 67.8l-320 320.2c-18.8 18.8-49.2 18.8-67.8 0s-18.8-49.2 0-67.8l286-286-286.2-286.2c-18.8-18.8-18.8-49.2 0-67.8s49.2-18.8 67.8 0z" />
<glyph unicode="&#xe937;" glyph-name="angles-up" horiz-adv-x="768" d="M402 866c-18.8 18.8-49.2 18.8-67.8 0l-320.2-320c-18.8-18.8-18.8-49.2 0-67.8s49.2-18.8 67.8 0l286 286 286.2-286.2c18.8-18.8 49.2-18.8 67.8 0s18.8 49.2 0 67.8l-319.8 320.2zM722 162l-320 320c-18.8 18.8-49.2 18.8-67.8 0l-320.2-320c-18.8-18.8-18.8-49.2 0-67.8s49.2-18.8 67.8 0l286 286 286.2-286.2c18.8-18.8 49.2-18.8 67.8 0s18.8 49.2 0 67.8z" />
<glyph unicode="&#xe938;" glyph-name="angle-up" horiz-adv-x="768" d="M334 674c18.8 18.8 49.2 18.8 67.8 0l320.2-320c18.8-18.8 18.8-49.2 0-67.8s-49.2-18.8-67.8 0l-286 286-286.2-286.2c-18.8-18.8-49.2-18.8-67.8 0s-18.8 49.2 0 67.8l319.8 320.2z" />
<glyph unicode="&#xe939;" glyph-name="ankh" horiz-adv-x="640" d="M160 704c0-84.6 45.2-157.8 101-215.2 20.6-21.2 41.2-38.8 59-52.6 17.8 13.8 38.6 31.4 59 52.6 55.8 57.4 101 130.6 101 215.2 0 88.4-71.6 160-160 160s-160-71.6-160-160zM197.8 416c-65.8 66.2-133.8 164.4-133.8 288 0 141.4 114.6 256 256 256s256-114.6 256-256c0-123.6-68-221.8-134-288h150c26.6 0 48-21.4 48-48s-21.4-48-48-48h-224v-336c0-26.6-21.4-48-48-48s-48 21.4-48 48v336h-224c-26.6 0-48 21.4-48 48s21.4 48 48 48h149.8z" />
<glyph unicode="&#xe93a;" glyph-name="apartment" horiz-adv-x="1152" d="M352 768v64c0 17.6 14.4 32 32 32h384c17.6 0 32-14.4 32-32v-256c0-53 43-96 96-96h128c17.6 0 32-14.4 32-32v-384c0-17.6-14.4-32-32-32h-384v96c0 35.4-28.6 64-64 64s-64-28.6-64-64v-96h-384c-17.6 0-32 14.4-32 32v576c0 17.6 14.4 32 32 32h128c53 0 96 43 96 96zM384-64h640c70.6 0 128 57.4 128 128v384c0 70.6-57.4 128-128 128h-128v256c0 70.6-57.4 128-128 128h-384c-70.6 0-128-57.4-128-128v-64h-128c-70.6 0-128-57.4-128-128v-576c0-70.6 57.4-128 128-128h256zM704 288c17.6 0 32 14.4 32 32v64c0 17.6-14.4 32-32 32h-64c-17.6 0-32-14.4-32-32v-64c0-17.6 14.4-32 32-32h64zM992 128v64c0 17.6-14.4 32-32 32h-64c-17.6 0-32-14.4-32-32v-64c0-17.6 14.4-32 32-32h64c17.6 0 32 14.4 32 32zM256 288c17.6 0 32 14.4 32 32v64c0 17.6-14.4 32-32 32h-64c-17.6 0-32-14.4-32-32v-64c0-17.6 14.4-32 32-32h64zM288 128v64c0 17.6-14.4 32-32 32h-64c-17.6 0-32-14.4-32-32v-64c0-17.6 14.4-32 32-32h64c17.6 0 32 14.4 32 32zM512 288c17.6 0 32 14.4 32 32v64c0 17.6-14.4 32-32 32h-64c-17.6 0-32-14.4-32-32v-64c0-17.6 14.4-32 32-32h64zM736 768c0 17.6-14.4 32-32 32h-64c-17.6 0-32-14.4-32-32v-64c0-17.6 14.4-32 32-32h64c17.6 0 32 14.4 32 32v64zM512 800h-64c-17.6 0-32-14.4-32-32v-64c0-17.6 14.4-32 32-32h64c17.6 0 32 14.4 32 32v64c0 17.6-14.4 32-32 32zM736 512v64c0 17.6-14.4 32-32 32h-64c-17.6 0-32-14.4-32-32v-64c0-17.6 14.4-32 32-32h64c17.6 0 32 14.4 32 32zM960 288c17.6 0 32 14.4 32 32v64c0 17.6-14.4 32-32 32h-64c-17.6 0-32-14.4-32-32v-64c0-17.6 14.4-32 32-32h64zM288 512v64c0 17.6-14.4 32-32 32h-64c-17.6 0-32-14.4-32-32v-64c0-17.6 14.4-32 32-32h64c17.6 0 32 14.4 32 32zM512 480c17.6 0 32 14.4 32 32v64c0 17.6-14.4 32-32 32h-64c-17.6 0-32-14.4-32-32v-64c0-17.6 14.4-32 32-32h64z" />
<glyph unicode="&#xe93b;" glyph-name="aperture" d="M512 32l134 232 27.6 47.6c0 0.2 0.2 0.2 0.2 0.4l23 40 112.6-195c-75.6-77.2-181-125-297.4-125zM327.2 544l-112.6 195c75.6 77.2 181 125 297.4 125l-184.8-320zM502.8 656l112.6 195c109.6-28 201.8-99.6 257-195h-323c-0.2 0-0.4 0-0.6 0h-46zM711 519.4c-0.2 0.2-0.2 0.4-0.4 0.6l-23 40h225.2c10-35.6 15.2-73.2 15.2-112 0-75.8-20.2-146.8-55.6-208l-161.4 279.4zM96 448c0 75.8 20.2 146.8 55.6 208l184.8-320h-225.2c-10 35.6-15.2 73.2-15.2 112zM408.6 45c-109.6 28-201.8 99.6-257 195h369.6l-112.6-195zM512-64c282.77 0 512 229.23 512 512s-229.23 512-512 512v0c-282.77 0-512-229.23-512-512s229.23-512 512-512v0zM433.4 536c8.6 14.8 24.2 23.8 41.2 24h74.6c17-0.2 32.6-9.2 41-23.6l37.4-64.6c8.4-14.8 8.4-32.8 0-47.6 0 0 0-0.2 0-0.2l-37-64c0 0 0-0.2 0-0.2-8.6-14.8-24.4-23.8-41.4-23.8h-74c-17.2 0-33 9.2-41.6 24l-37 64c-8.6 14.8-8.6 33.2 0 48l37 64z" />
<glyph unicode="&#xe93c;" glyph-name="apostrophe" horiz-adv-x="384" d="M256 608c17.6 0 32 14.4 32 32v128c0 17.6-14.4 32-32 32h-128c-17.6 0-32-14.4-32-32v-128c0-17.6 14.4-32 32-32h128zM288 516c-10.2-2.6-21-4-32-4h-128c-70.6 0-128 57.4-128 128v128c0 70.6 57.4 128 128 128h128c70.6 0 128-57.4 128-128v-272c0-132.6-107.4-240-240-240h-32c-26.6 0-48 21.4-48 48s21.4 48 48 48h32c79.6 0 144 64.4 144 144v20z" />
<glyph unicode="&#xe93d;" glyph-name="apple-core" horiz-adv-x="768" d="M338 736c-17.6 0-32 14.4-32 32v32c0 88.4 71.6 160 160 160h32c17.6 0 32-14.4 32-32v-32c0-88.4-71.6-160-160-160h-32zM210 32c9.2 0 27.2 3.4 49.8 10.2 50.8 15.2 105.4 15.2 156.2 0 22.6-6.8 40.6-10.2 49.8-10.2 22.8 0 49.8 7.8 77.8 26.2-68.2 78.6-109.6 181.4-109.6 293.8 0 92 27.8 177.6 75.4 248.8-25.4-6-52.8-15-77.8-24.8-60-23.4-127-23.4-187 0-25.2 9.8-52.4 18.8-78 24.8 47.6-71.2 75.4-156.8 75.4-248.8 0-112.4-41.4-215.2-109.8-293.8 28-18.4 55-26.2 77.8-26.2zM562 704c13.4 0 26-1.2 38.2-3.8v0l1-0.2c22.6-4.6 43-13.4 61.2-25.4 17.2-11.2 14.6-35.8-1.4-48.6-80-64.6-131-163.4-131-274 0-108.8 49.4-206 126.8-270.6 14-11.8 17.6-32.6 5.4-46.2-56.6-62.6-126.4-99.2-196.2-99.2-23.8 0-53 6.8-77.6 14.2-32.8 9.8-68.2 9.8-101 0-24.4-7.4-53.6-14.2-77.6-14.2-69.8 0-139.6 36.6-196.2 99.2-12.4 13.6-8.8 34.6 5.4 46.2 77.6 64.6 127 161.8 127 270.6 0 110.8-51.2 209.4-131 274-16 13-18.6 37.4-1.4 48.6 18.4 12 38.8 20.6 61.2 25.4l1 0.2c12.2 2.6 24.8 3.8 38.2 3.8 54.6 0 119.4-20.6 165.4-38.6 37.6-14.6 79.8-14.6 117.4 0 45.8 17.8 110.8 38.6 165.4 38.6z" />
<glyph unicode="&#xe93e;" glyph-name="apple-whole" horiz-adv-x="896" d="M448 736h32c88.4 0 160 71.6 160 160v32c0 17.6-14.4 32-32 32h-32c-88.4 0-160-71.6-160-160v-32c0-17.6 14.4-32 32-32zM96 384c0 63.4 15.2 125 40.8 167.4 24.2 40 52.6 56.6 87.2 56.6 35.6 0 86.4-14.8 130.6-32 60-23.4 127-23.4 187 0 44.2 17.2 95 32 130.6 32 34.6 0 63-16.6 87.2-56.6 25.4-42.4 40.6-104 40.6-167.4 0-108.4-34-200-80.8-262.4-48-64-102.4-89.6-143.2-89.6-9.2 0-27.2 3.4-49.8 10.2-50.8 15.2-105.4 15.2-156.2 0-22.6-6.8-40.6-10.2-49.8-10.2-40.8 0-95.2 25.6-143.2 89.6-47 62.4-81 154-81 262.4zM224 704c-152.6 0-224-167.4-224-320 0-256 160-448 320-448 23.8 0 53 6.8 77.6 14.2 32.8 9.8 68.2 9.8 101 0 24.4-7.4 53.6-14.2 77.6-14.2 160 0 320 192 320 448 0 152.6-71.4 320-224 320-54.6 0-119.4-20.6-165.4-38.6-37.6-14.6-79.8-14.6-117.4 0-46 18-110.8 38.6-165.4 38.6z" />
<glyph unicode="&#xe93f;" glyph-name="archway" d="M0 848c0 26.6 21.4 48 48 48h912c26.6 0 48-21.4 48-48s-21.4-48-48-48v-704h16c26.6 0 48-21.4 48-48s-21.4-48-48-48h-256c-26.6 0-48 21.4-48 48v240c0 88.4-71.6 160-160 160s-160-71.6-160-160v-240c0-26.6-21.4-48-48-48h-256c-26.6 0-48 21.4-48 48s21.4 48 48 48h16v704h-16c-26.6 0-48 21.4-48 48zM160 800v-64h704v64h-704zM160 640v-544h96v192c0 141.4 114.6 256 256 256s256-114.6 256-256v-192h96v544h-704z" />
<glyph unicode="&#xe940;" glyph-name="arrow-down" horiz-adv-x="768" d="M349.2 14.8c9-9.4 21.6-14.8 34.8-14.8s25.6 5.4 34.8 14.8l336 352c18.4 19.2 17.6 49.6-1.6 67.8s-49.6 17.6-67.8-1.6l-253.4-265.2v680.2c0 26.6-21.4 48-48 48s-48-21.4-48-48v-680.2l-253.2 265.4c-18.4 19.2-48.6 19.8-67.8 1.6s-19.8-48.6-1.6-67.8l336-352z" />
<glyph unicode="&#xe941;" glyph-name="arrow-down-1-9" d="M832 848c0 15.4-7.4 30-20 39s-28.6 11.4-43.2 6.6l-96-32c-25.2-8.4-38.8-35.6-30.4-60.8s35.6-38.8 60.8-30.4l32.8 11v-173.4h-48c-26.6 0-48-21.4-48-48s21.4-48 48-48h192c26.6 0 48 21.4 48 48s-21.4 48-48 48h-48v240zM206 14c18.8-18.8 49.2-18.8 67.8 0l192 192c18.8 18.8 18.8 49.2 0 67.8s-49.2 18.8-67.8 0l-110-110v684.2c0 26.6-21.4 48-48 48s-48-21.4-48-48v-684.2l-110 110.2c-18.8 18.8-49.2 18.8-67.8 0s-18.8-49.2 0-67.8l192-192zM768 192c-44.183 0-80 35.817-80 80s35.817 80 80 80v0c44.183 0 80-35.817 80-80s-35.817-80-80-80v0zM732.2 99.6l-17.4-21.2c-16.8-20.6-13.8-50.8 6.8-67.6s50.8-13.8 67.6 6.8l113.6 138.8c26.6 32.6 41.2 73.4 41.2 115.6 0 97.2-78.8 176-176 176s-176-78.8-176-176c0-85 60.2-155.8 140.2-172.4z" />
<glyph unicode="&#xe942;" glyph-name="arrow-down-9-1" d="M14 206l192-192c18.8-18.8 49.2-18.8 67.8 0l192 192c18.8 18.8 18.8 49.2 0 67.8s-49.2 18.8-67.8 0l-110-110v684.2c0 26.6-21.4 48-48 48s-48-21.4-48-48v-684.2l-110 110.2c-18.8 18.8-49.2 18.8-67.8 0s-18.8-49.2 0-67.8zM832 336c0 15.4-7.4 30-20 39s-28.6 11.4-43.2 6.6l-96-32c-25.2-8.4-38.8-35.6-30.4-60.8s35.6-38.8 60.8-30.4l32.8 11v-173.4h-48c-26.6 0-48-21.4-48-48s21.4-48 48-48h192c26.6 0 48 21.4 48 48s-21.4 48-48 48h-48v240zM768 640c-44.183 0-80 35.817-80 80s35.817 80 80 80v0c44.183 0 80-35.817 80-80s-35.817-80-80-80v0zM944 720c0 97.2-78.8 176-176 176s-176-78.8-176-176c0-84.2 59.2-154.6 138.2-172l-31.2-37.4c-17-20.4-14.2-50.6 6.2-67.6s50.6-14.2 67.6 6.2l129.2 155.2c26 31.2 40.6 70.2 41.8 110.6 0 1.6 0 3.2 0 5z" />
<glyph unicode="&#xe943;" glyph-name="arrow-down-arrow-up" d="M14 206l192-192c18.8-18.8 49.2-18.8 67.8 0l192 192c18.8 18.8 18.8 49.2 0 67.8s-49.2 18.8-67.8 0l-110-110v684.2c0 26.6-21.4 48-48 48s-48-21.4-48-48v-684.2l-110 110.2c-18.8 18.8-49.2 18.8-67.8 0s-18.8-49.2 0-67.8zM718 882l-192-192c-18.8-18.8-18.8-49.2 0-67.8s49.2-18.8 67.8 0l110 110v-684.2c0-26.6 21.4-48 48-48s48 21.4 48 48v684.2l110-110c18.8-18.8 49.2-18.8 67.8 0s18.8 49.2 0 67.8l-191.6 192c-18.8 18.8-49.2 18.8-67.8 0z" />
<glyph unicode="&#xe944;" glyph-name="arrow-down-a-z" d="M14 206l192-192c18.8-18.8 49.2-18.8 67.8 0l192 192c18.8 18.8 18.8 49.2 0 67.8s-49.2 18.8-67.8 0l-110-110v684.2c0 26.6-21.4 48-48 48s-48-21.4-48-48v-684.2l-110 110.2c-18.8 18.8-49.2 18.8-67.8 0s-18.8-49.2 0-67.8zM624 384c-26.6 0-48-21.4-48-48s21.4-48 48-48h149.2l-185-208.2c-12.6-14.2-15.6-34.4-8-51.6s25-28.2 43.8-28.2h256c26.6 0 48 21.4 48 48s-21.4 48-48 48h-149.2l185 208.2c12.6 14.2 15.6 34.4 8 51.6s-25 28.2-43.8 28.2h-256zM752 896c-18.2 0-34.8-10.2-43-26.6l-160-320c-11.8-23.8-2.2-52.6 21.4-64.4s52.6-2.2 64.4 21.4l26.8 53.6h170.4c3.4 0 6.6 0.4 9.8 1l27.2-54.4c11.8-23.8 40.6-33.4 64.4-21.4s33.4 40.6 21.4 64.4l-160 320c-8 16.2-24.6 26.4-42.8 26.4zM709.6 656l42.4 84.6 42.4-84.6h-84.8z" />
<glyph unicode="&#xe945;" glyph-name="arrow-down-big-small" d="M222 14l-192 192c-18.8 18.8-18.8 49.2 0 67.8s49.2 18.8 67.8 0l110-110v684.2c0 26.6 21.4 48 48 48s48-21.4 48-48v-684.2l110 110c18.8 18.8 49.2 18.8 67.8 0s18.8-49.2 0-67.8l-192-192c-18.8-18.8-49.2-18.8-67.8 0zM672 224v-128h128v128h-128zM576 224c0 53 43 96 96 96h128c53 0 96-43 96-96v-128c0-53-43-96-96-96h-128c-53 0-96 43-96 96v128zM672 544h256v256h-256v-256zM576 544v256c0 53 43 96 96 96h256c53 0 96-43 96-96v-256c0-53-43-96-96-96h-256c-53 0-96 43-96 96z" />
<glyph unicode="&#xe946;" glyph-name="arrow-down-from-dotted-line" horiz-adv-x="896" d="M483 15.2c-9-9.6-21.8-15.2-35-15.2s-25.8 5.4-35 15.2l-256 272c-18.2 19.4-17.2 49.6 2 67.8s49.6 17.2 67.8-2l173.2-184v423c0 26.6 21.4 48 48 48s48-21.4 48-48v-423l173 183.8c18.2 19.4 48.6 20.2 67.8 2s20.2-48.6 2-67.8l-256-272zM64 896c35.346 0 64-28.654 64-64s-28.654-64-64-64v0c-35.346 0-64 28.654-64 64s28.654 64 64 64v0zM256 896c35.346 0 64-28.654 64-64s-28.654-64-64-64v0c-35.346 0-64 28.654-64 64s28.654 64 64 64v0zM512 832c0-35.346-28.654-64-64-64s-64 28.654-64 64v0c0 35.346 28.654 64 64 64s64-28.654 64-64v0zM640 896c35.346 0 64-28.654 64-64s-28.654-64-64-64v0c-35.346 0-64 28.654-64 64s28.654 64 64 64v0zM896 832c0-35.346-28.654-64-64-64s-64 28.654-64 64v0c0 35.346 28.654 64 64 64s64-28.654 64-64v0z" />
<glyph unicode="&#xe947;" glyph-name="arrow-down-from-line" horiz-adv-x="768" d="M349 15.2c9-9.6 21.8-15.2 35-15.2s25.8 5.4 35 15.2l256 272c18.2 19.4 17.2 49.6-2 67.8s-49.6 17.2-67.8-2l-173.2-184v423c0 26.6-21.4 48-48 48s-48-21.4-48-48v-423l-173 183.8c-18.2 19.4-48.6 20.2-67.8 2s-20.2-48.6-2-67.8l256-272zM720 800c26.6 0 48 21.4 48 48s-21.4 48-48 48h-672c-26.6 0-48-21.4-48-48s21.4-48 48-48h672z" />
<glyph unicode="&#xe948;" glyph-name="arrow-down-left" horiz-adv-x="640" d="M48 128c-26.6 0-48 21.4-48 48v480c0 26.6 21.4 48 48 48s48-21.4 48-48v-364.2l462 462.2c18.8 18.8 49.2 18.8 67.8 0s18.8-49.2 0-67.8l-462-462.2h364.2c26.6 0 48-21.4 48-48s-21.4-48-48-48h-480z" />
<glyph unicode="&#xe949;" glyph-name="arrow-down-left-and-arrow-up-right-to-center" d="M946 846c18.8 18.8 18.8 49.2 0 67.8s-49.2 18.8-67.8 0l-270-270v172.2c0 26.6-21.4 48-48 48s-48-21.4-48-48v-288c0-26.6 21.4-48 48-48h287.8c26.6 0 48 21.4 48 48s-21.4 48-48 48h-172.2l270.2 270zM14 50c-18.8-18.8-18.8-49.2 0-67.8s49.2-18.8 67.8 0l270 270v-172.2c0-26.6 21.4-48 48-48s48 21.4 48 48v288c0 26.6-21.4 48-48 48h-287.8c-26.6 0-48-21.4-48-48s21.4-48 48-48h172.2l-270.2-270z" />
<glyph unicode="&#xe94a;" glyph-name="arrow-down-long" horiz-adv-x="640" d="M286-50c18.8-18.8 49.2-18.8 67.8 0l272.2 272c18.8 18.8 18.8 49.2 0 67.8s-49.2 18.8-67.8 0l-190-190-0.2 812.2c0 26.6-21.4 48-48 48s-48-21.4-48-48v-812.2l-190 190.2c-18.8 18.8-49.2 18.8-67.8 0s-18.8-49.2 0-67.8l271.8-272.2z" />
<glyph unicode="&#xe94b;" glyph-name="arrow-down-right" horiz-adv-x="640" d="M592 128c26.6 0 48 21.4 48 48v480c0 26.6-21.4 48-48 48s-48-21.4-48-48v-364.2l-462 462.2c-18.8 18.8-49.2 18.8-67.8 0s-18.8-49.2 0-67.8l462-462h-364.2c-26.6 0-48-21.4-48-48s21.4-48 48-48h480z" />
<glyph unicode="&#xe94c;" glyph-name="arrow-down-short-wide" horiz-adv-x="1152" d="M30 206l192-192c18.8-18.8 49.2-18.8 67.8 0l192 192c18.8 18.8 18.8 49.2 0 67.8s-49.2 18.8-67.8 0l-110-110v684.2c0 26.6-21.4 48-48 48s-48-21.4-48-48v-684.2l-110 110.2c-18.8 18.8-49.2 18.8-67.8 0s-18.8-49.2 0-67.8zM624 864c-26.6 0-48-21.4-48-48s21.4-48 48-48h96c26.6 0 48 21.4 48 48s-21.4 48-48 48h-96zM624 608c-26.6 0-48-21.4-48-48s21.4-48 48-48h224c26.6 0 48 21.4 48 48s-21.4 48-48 48h-224zM624 352c-26.6 0-48-21.4-48-48s21.4-48 48-48h352c26.6 0 48 21.4 48 48s-21.4 48-48 48h-352zM624 96c-26.6 0-48-21.4-48-48s21.4-48 48-48h480c26.6 0 48 21.4 48 48s-21.4 48-48 48h-480z" />
<glyph unicode="&#xe94d;" glyph-name="arrow-down-small-big" d="M222 14l-192 192c-18.8 18.8-18.8 49.2 0 67.8s49.2 18.8 67.8 0l110-110v684.2c0 26.6 21.4 48 48 48s48-21.4 48-48v-684.2l110 110c18.8 18.8 49.2 18.8 67.8 0s18.8-49.2 0-67.8l-192-192c-18.8-18.8-49.2-18.8-67.8 0zM672 672h128v128h-128v-128zM576 672v128c0 53 43 96 96 96h128c53 0 96-43 96-96v-128c0-53-43-96-96-96h-128c-53 0-96 43-96 96zM672 352v-256h256v256h-256zM576 352c0 53 43 96 96 96h256c53 0 96-43 96-96v-256c0-53-43-96-96-96h-256c-53 0-96 43-96 96v256z" />
<glyph unicode="&#xe94e;" glyph-name="arrow-down-square-triangle" d="M14 206l192-192c18.8-18.8 49.2-18.8 67.8 0l192 192c18.8 18.8 18.8 49.2 0 67.8s-49.2 18.8-67.8 0l-110-110v684.2c0 26.6-21.4 48-48 48s-48-21.4-48-48v-684.2l-110 110.2c-18.8 18.8-49.2 18.8-67.8 0s-18.8-49.2 0-67.8zM976 50c0 9-2.4 18-7.2 25.8l-168.4 280.8c-10.2 17-28.6 27.4-48.4 27.4s-38.2-10.4-48.4-27.4l-168.4-280.6c-4.6-7.8-7.2-16.8-7.2-25.8 0-27.6 22.4-50.2 50.2-50.2h347.6c27.6 0 50.2 22.4 50.2 50.2zM656 800h192v-192h-192v192zM844.8 96h-185.6l92.8 154.8 92.8-154.8zM560 800v-192c0-53 43-96 96-96h192c53 0 96 43 96 96v192c0 53-43 96-96 96h-192c-53 0-96-43-96-96z" />
<glyph unicode="&#xe94f;" glyph-name="arrow-down-to-arc" d="M512 32c229.8 0 416 186.2 416 416 0 26.6 21.4 48 48 48s48-21.4 48-48c0-282.8-229.2-512-512-512s-512 229.2-512 512c0 26.6 21.4 48 48 48s48-21.4 48-48c0-229.8 186.2-416 416-416zM755.2 495.4l-208-224c-9-9.8-21.8-15.4-35.2-15.4s-26 5.6-35.2 15.4l-208 224c-18 19.4-17 49.8 2.6 67.8s49.8 17 67.8-2.6l124.8-134.4v485.8c0 26.6 21.4 48 48 48s48-21.4 48-48v-485.8l124.8 134.4c18 19.4 48.4 20.6 67.8 2.6s20.6-48.4 2.6-67.8z" />
<glyph unicode="&#xe950;" glyph-name="arrow-down-to-bracket" horiz-adv-x="896" d="M738 526l-256-256c-18.8-18.8-49.2-18.8-67.8 0l-256.2 256c-18.8 18.8-18.8 49.2 0 67.8s49.2 18.8 67.8 0l174-174v492.2c0 26.6 21.4 48 48 48s48-21.4 48-48v-492.2l174 174c18.8 18.8 49.2 18.8 67.8 0s18.8-49.2 0-67.8zM96 272v-160c0-44.2 35.8-80 80-80h544c44.2 0 80 35.8 80 80v160c0 26.6 21.4 48 48 48s48-21.4 48-48v-160c0-97.2-78.8-176-176-176h-544c-97.2 0-176 78.8-176 176v160c0 26.6 21.4 48 48 48s48-21.4 48-48z" />
<glyph unicode="&#xe951;" glyph-name="arrow-down-to-dotted-line" horiz-adv-x="896" d="M64 128c35.346 0 64-28.654 64-64s-28.654-64-64-64v0c-35.346 0-64 28.654-64 64s28.654 64 64 64v0zM256 128c35.346 0 64-28.654 64-64s-28.654-64-64-64v0c-35.346 0-64 28.654-64 64s28.654 64 64 64v0zM512 64c0-35.346-28.654-64-64-64s-64 28.654-64 64v0c0 35.346 28.654 64 64 64s64-28.654 64-64v0zM640 128c35.346 0 64-28.654 64-64s-28.654-64-64-64v0c-35.346 0-64 28.654-64 64s28.654 64 64 64v0zM896 64c0-35.346-28.654-64-64-64s-64 28.654-64 64v0c0 35.346 28.654 64 64 64s64-28.654 64-64v0zM483 239.2c-9-9.6-21.8-15.2-35-15.2s-25.8 5.4-35 15.2l-256 272c-18.2 19.4-17.2 49.6 2 67.8s49.6 17.2 67.8-2l173.2-184v423c0 26.6 21.4 48 48 48s48-21.4 48-48v-423l173 183.8c18.2 19.4 48.6 20.2 67.8 2s20.2-48.6 2-67.8l-256-272z" />
<glyph unicode="&#xe952;" glyph-name="arrow-down-to-line" horiz-adv-x="768" d="M720 0c26.6 0 48 21.4 48 48s-21.4 48-48 48h-672c-26.6 0-48-21.4-48-48s21.4-48 48-48h672zM349 271.2c9-9.6 21.8-15.2 35-15.2s25.8 5.4 35 15.2l256 272c18.2 19.4 17.2 49.6-2 67.8s-49.6 17.2-67.8-2l-173.2-184v423c0 26.6-21.4 48-48 48s-48-21.4-48-48v-423l-173 183.8c-18.2 19.4-48.6 20.2-67.8 2s-20.2-48.6-2-67.8l256-272z" />
<glyph unicode="&#xe953;" glyph-name="arrow-down-to-square" d="M770 494c18.8 18.8 18.8 49.2 0 67.8s-49.2 18.8-67.8 0l-142-142v492.2c0 26.6-21.4 48-48 48s-48-21.4-48-48v-492.2l-142 142c-18.8 18.8-49.2 18.8-67.8 0s-18.8-49.2 0-67.8l223.6-224c18.8-18.8 49.2-18.8 67.8 0l224.2 224zM144 896c-79.6 0-144-64.4-144-144v-672c0-79.6 64.4-144 144-144h736c79.6 0 144 64.4 144 144v672c0 79.6-64.4 144-144 144h-96c-26.6 0-48-21.4-48-48s21.4-48 48-48h96c26.6 0 48-21.4 48-48v-672c0-26.6-21.4-48-48-48h-736c-26.6 0-48 21.4-48 48v672c0 26.6 21.4 48 48 48h96c26.6 0 48 21.4 48 48s-21.4 48-48 48h-96z" />
<glyph unicode="&#xe954;" glyph-name="arrow-down-triangle-square" d="M14 206l192-192c18.8-18.8 49.2-18.8 67.8 0l192 192c18.8 18.8 18.8 49.2 0 67.8s-49.2 18.8-67.8 0l-110-110v684.2c0 26.6-21.4 48-48 48s-48-21.4-48-48v-684.2l-110 110.2c-18.8 18.8-49.2 18.8-67.8 0s-18.8-49.2 0-67.8zM752 896c-19.8 0-38.2-10.4-48.4-27.4l-168.4-280.6c-4.6-7.8-7.2-16.8-7.2-25.8 0-27.6 22.4-50.2 50.2-50.2h347.6c27.6 0 50.2 22.4 50.2 50.2 0 9-2.4 18-7.2 25.8l-168.4 280.6c-10.2 17-28.6 27.4-48.4 27.4zM656 96v192h192v-192h-192zM752 762.8l92.8-154.8h-185.6l92.8 154.8zM560 96c0-53 43-96 96-96h192c53 0 96 43 96 96v192c0 53-43 96-96 96h-192c-53 0-96-43-96-96v-192z" />
<glyph unicode="&#xe955;" glyph-name="arrow-down-up-across-line" horiz-adv-x="1152" d="M286-50c18.8-18.8 49.2-18.8 67.8 0l192 192c18.8 18.8 18.8 49.2 0 67.8s-49.2 18.8-67.8 0l-110-110v300.2h736c26.6 0 48 21.4 48 48s-21.4 48-48 48h-224v300.2l110-110c18.8-18.8 49.2-18.8 67.8 0s18.8 49.2 0 67.8l-191.8 192c-18.8 18.8-49.2 18.8-67.8 0l-192-192c-18.8-18.8-18.8-49.2 0-67.8s49.2-18.8 67.8 0l110 110v-300.2h-736c-26.6 0-48-21.4-48-48s21.4-48 48-48h224v-300.2l-110 110.2c-18.8 18.8-49.2 18.8-67.8 0s-18.8-49.2 0-67.8l192-192zM272 576h96v272c0 26.6-21.4 48-48 48s-48-21.4-48-48v-272zM880 320h-96v-272c0-26.6 21.4-48 48-48s48 21.4 48 48v272z" />
<glyph unicode="&#xe956;" glyph-name="arrow-down-up-lock" horiz-adv-x="1280" d="M290-50l192 192c18.8 18.8 18.8 49.2 0 67.8s-49.2 18.8-67.8 0l-110-110v300.2h527.8v16c0 28.2 5.2 55.2 14.8 80h-158.8v300.2l110-110c18.8-18.8 49.2-18.8 67.8 0s18.8 49.2 0 67.8l-191.8 192c-9 9-21.2 14-34 14s-25-5-34-14l-192-192c-18.8-18.8-18.8-49.2 0-67.8s49.2-18.8 67.8 0l110 110v-300.2h-543.8c-26.6 0-48-21.4-48-48s21.4-48 48-48h160v-300.2l-110 110.2c-18.8 18.8-49.2 18.8-67.8 0s-18.8-49.2 0-67.8l192-192c18.8-18.8 49.2-18.8 67.8 0zM304 576v272c0 26.6-21.4 48-48 48s-48-21.4-48-48v-272h96zM592 320v-272c0-26.6 21.4-48 48-48s48 21.4 48 48v272h-96zM1056 480c35.4 0 64-28.6 64-64v-96h-128v96c0 35.4 28.6 64 64 64zM896 416v-96c-35.4 0-64-28.6-64-64v-256c0-35.4 28.6-64 64-64h320c35.4 0 64 28.6 64 64v256c0 35.4-28.6 64-64 64v96c0 88.4-71.6 160-160 160s-160-71.6-160-160z" />
<glyph unicode="&#xe957;" glyph-name="arrow-down-wide-short" horiz-adv-x="1152" d="M30 206l192-192c18.8-18.8 49.2-18.8 67.8 0l192 192c18.8 18.8 18.8 49.2 0 67.8s-49.2 18.8-67.8 0l-110-110v684.2c0 26.6-21.4 48-48 48s-48-21.4-48-48v-684.2l-110 110.2c-18.8 18.8-49.2 18.8-67.8 0s-18.8-49.2 0-67.8zM624 0h96c26.6 0 48 21.4 48 48s-21.4 48-48 48h-96c-26.6 0-48-21.4-48-48s21.4-48 48-48zM624 256h224c26.6 0 48 21.4 48 48s-21.4 48-48 48h-224c-26.6 0-48-21.4-48-48s21.4-48 48-48zM624 512h352c26.6 0 48 21.4 48 48s-21.4 48-48 48h-352c-26.6 0-48-21.4-48-48s21.4-48 48-48zM624 768h480c26.6 0 48 21.4 48 48s-21.4 48-48 48h-480c-26.6 0-48-21.4-48-48s21.4-48 48-48z" />
<glyph unicode="&#xe958;" glyph-name="arrow-down-z-a" d="M14 206l192-192c18.8-18.8 49.2-18.8 67.8 0l192 192c18.8 18.8 18.8 49.2 0 67.8s-49.2 18.8-67.8 0l-110-110v684.2c0 26.6-21.4 48-48 48s-48-21.4-48-48v-684.2l-110 110.2c-18.8 18.8-49.2 18.8-67.8 0s-18.8-49.2 0-67.8zM624 896c-26.6 0-48-21.4-48-48s21.4-48 48-48h149.2l-185-208.2c-12.6-14.2-15.6-34.4-8-51.6s25-28.2 43.8-28.2h256c26.6 0 48 21.4 48 48s-21.4 48-48 48h-149.2l185 208.2c12.6 14.2 15.6 34.4 8 51.6s-25 28.2-43.8 28.2h-256zM752 416c-18.2 0-34.8-10.2-43-26.6l-160-320c-11.8-23.8-2.2-52.6 21.4-64.4s52.6-2.2 64.4 21.4l26.8 53.6h170.4c3.4 0 6.6 0.4 9.8 1l27.2-54.4c11.8-23.8 40.6-33.4 64.4-21.4s33.4 40.6 21.4 64.4l-160 320c-8.2 16.2-24.8 26.6-43 26.6zM709.6 176l42.4 84.6 42.4-84.6h-84.8z" />
<glyph unicode="&#xe959;" glyph-name="arrow-left" horiz-adv-x="896" d="M14.8 413.2c-9.4 9.2-14.8 21.6-14.8 34.8s5.4 25.6 14.8 34.8l352 336c19.2 18.4 49.6 17.6 67.8-1.6s17.6-49.6-1.6-67.8l-265.2-253.4h680.2c26.6 0 48-21.4 48-48s-21.4-48-48-48h-680.2l265.4-253.2c19.2-18.4 19.8-48.6 1.6-67.8s-48.6-19.8-67.8-1.6l-352 336z" />
<glyph unicode="&#xe95a;" glyph-name="arrow-left-from-line" horiz-adv-x="896" d="M15.2 483c-9.8-9.2-15.2-21.8-15.2-35s5.4-25.8 15.2-35l272-256c19.4-18.2 49.6-17.2 67.8 2s17.2 49.6-2 67.8l-184 173.2h423c26.6 0 48 21.4 48 48s-21.4 48-48 48h-423l183.8 173c19.4 18.2 20.2 48.6 2 67.8s-48.6 20.2-67.8 2l-272-256zM800 112c0-26.6 21.4-48 48-48s48 21.4 48 48v672c0 26.6-21.4 48-48 48s-48-21.4-48-48v-672z" />
<glyph unicode="&#xe95b;" glyph-name="arrow-left-long" d="M14 482c-18.8-18.8-18.8-49.2 0-67.8l272-272.2c18.8-18.8 49.2-18.8 67.8 0s18.8 49.2 0 67.8l-190 190 812.2 0.2c26.6 0 48 21.4 48 48s-21.4 48-48 48h-812.2l190 190c18.8 18.8 18.8 49.2 0 67.8s-49.2 18.8-67.8 0l-272-271.8z" />
<glyph unicode="&#xe95c;" glyph-name="arrow-left-long-to-line" horiz-adv-x="1280" d="M0 784v-672c0-26.6 21.4-48 48-48s48 21.4 48 48v672c0 26.6-21.4 48-48 48s-48-21.4-48-48zM270 482c-18.8-18.8-18.8-49.2 0-67.8l272-272.2c18.8-18.8 49.2-18.8 67.8 0s18.8 49.2 0 67.8l-190 190 812.2 0.2c26.6 0 48 21.4 48 48s-21.4 48-48 48h-812.2l190 190c18.8 18.8 18.8 49.2 0 67.8s-49.2 18.8-67.8 0l-272-271.8z" />
<glyph unicode="&#xe95d;" glyph-name="arrow-left-to-line" horiz-adv-x="896" d="M0 112c0-26.6 21.4-48 48-48s48 21.4 48 48v672c0 26.6-21.4 48-48 48s-48-21.4-48-48v-672zM271.2 483c-9.6-9-15.2-21.8-15.2-35s5.4-25.8 15.2-35l272-256c19.4-18.2 49.6-17.2 67.8 2s17.2 49.6-2 67.8l-184 173.2h423c26.6 0 48 21.4 48 48s-21.4 48-48 48h-423l183.8 173c19.4 18.2 20.2 48.6 2 67.8s-48.6 20.2-67.8 2l-272-256z" />
<glyph unicode="&#xe95e;" glyph-name="arrow-pointer" horiz-adv-x="640" d="M288 416h171.6l-363.6 323.2v-492.8l119.8 136.8c18.2 20.8 44.6 32.8 72.2 32.8zM0 108v741.6c0 25.6 20.8 46.4 46.4 46.4 11.4 0 22.4-4.2 30.8-11.8l548-487.2c9.4-8.4 14.8-20.4 14.8-33 0-24.4-19.8-44.2-44.2-44.2h-254.8l118.2-253.6c11.2-24 0.8-52.6-23.2-63.8s-52.6-0.8-63.8 23.2l-118.8 255-176.2-201.6c-8.4-9.6-20.4-15-33.2-15-24.4 0-44 19.8-44 44z" />
<glyph unicode="&#xe95f;" glyph-name="arrow-right" horiz-adv-x="896" d="M881.2 413.2c9.4 9 14.8 21.6 14.8 34.8s-5.4 25.6-14.8 34.8l-352 336c-19.2 18.4-49.6 17.6-67.8-1.6s-17.6-49.6 1.6-67.8l265.2-253.4h-680.2c-26.6 0-48-21.4-48-48s21.4-48 48-48h680.2l-265.4-253.2c-19.2-18.4-19.8-48.6-1.6-67.8s48.6-19.8 67.8-1.6l352 336z" />
<glyph unicode="&#xe960;" glyph-name="arrow-right-arrow-left" horiz-adv-x="896" d="M206-34c18.8-18.8 49.2-18.8 67.8 0s18.8 49.2 0 67.8l-110 110 684.2 0.2c26.6 0 48 21.4 48 48s-21.4 48-48 48h-684.2l110 110c18.8 18.8 18.8 49.2 0 67.8s-49.2 18.8-67.8 0l-192-191.8c-18.8-18.8-18.8-49.2 0-67.8l192-192zM882 670c18.8 18.8 18.8 49.2 0 67.8l-192 192.2c-18.8 18.8-49.2 18.8-67.8 0s-18.8-49.2 0-67.8l110-110-684.2-0.2c-26.6 0-48-21.4-48-48s21.4-48 48-48h684.2l-110-110c-18.8-18.8-18.8-49.2 0-67.8s49.2-18.8 67.8 0l192 192z" />
<glyph unicode="&#xe961;" glyph-name="arrow-right-from-arc" d="M96 448c0 229.8 186.2 416 416 416 26.6 0 48 21.4 48 48s-21.4 48-48 48c-282.8 0-512-229.2-512-512s229.2-512 512-512c26.6 0 48 21.4 48 48s-21.4 48-48 48c-229.8 0-416 186.2-416 416zM784.6 691.2c-19.4 18-49.8 17-67.8-2.6s-17-49.8 2.6-67.8l134.4-124.8h-485.8c-26.6 0-48-21.4-48-48s21.4-48 48-48h485.8l-134.4-124.8c-19.4-18-20.6-48.4-2.6-67.8s48.4-20.6 67.8-2.6l224 208c9.8 9 15.4 21.8 15.4 35.2s-5.6 26-15.4 35.2l-224 208z" />
<glyph unicode="&#xe962;" glyph-name="arrow-right-from-bracket" d="M1010 414c18.8 18.8 18.8 49.2 0 67.8l-256 256.2c-18.8 18.8-49.2 18.8-67.8 0s-18.8-49.2 0-67.8l174-174-492.2-0.2c-26.6 0-48-21.4-48-48s21.4-48 48-48h492.2l-174-174c-18.8-18.8-18.8-49.2 0-67.8s49.2-18.8 67.8 0l256 255.8zM336 800c26.6 0 48 21.4 48 48s-21.4 48-48 48h-160c-97.2 0-176-78.8-176-176v-544c0-97.2 78.8-176 176-176h160c26.6 0 48 21.4 48 48s-21.4 48-48 48h-160c-44.2 0-80 35.8-80 80v544c0 44.2 35.8 80 80 80h160z" />
<glyph unicode="&#xe963;" glyph-name="arrow-right-from-line" horiz-adv-x="896" d="M880.8 413c9.6 9 15.2 21.8 15.2 35s-5.4 25.8-15.2 35l-272 256c-19.4 18.2-49.6 17.2-67.8-2s-17.2-49.6 2-67.8l184-173.2h-423c-26.6 0-48-21.4-48-48s21.4-48 48-48h423l-183.8-173c-19.4-18.2-20.2-48.6-2-67.8s48.6-20.2 67.8-2l272 256zM96 784c0 26.6-21.4 48-48 48s-48-21.4-48-48v-672c0-26.6 21.4-48 48-48s48 21.4 48 48v672z" />
<glyph unicode="&#xe964;" glyph-name="arrow-right-long" d="M1010 414c18.8 18.8 18.8 49.2 0 67.8l-272 272.2c-18.8 18.8-49.2 18.8-67.8 0s-18.8-49.2 0-67.8l190-190-812.2-0.2c-26.6 0-48-21.4-48-48s21.4-48 48-48h812.2l-190-190c-18.8-18.8-18.8-49.2 0-67.8s49.2-18.8 67.8 0l272 271.8z" />
<glyph unicode="&#xe965;" glyph-name="arrow-right-long-to-line" horiz-adv-x="1280" d="M1280 784v-672c0-26.6-21.4-48-48-48s-48 21.4-48 48v672c0 26.6 21.4 48 48 48s48-21.4 48-48zM1010 482c18.8-18.8 18.8-49.2 0-67.8l-272-272.2c-18.8-18.8-49.2-18.8-67.8 0s-18.8 49.2 0 67.8l190 190-812.2 0.2c-26.6 0-48 21.4-48 48s21.4 48 48 48h812.2l-190 190c-18.8 18.8-18.8 49.2 0 67.8s49.2 18.8 67.8 0l272-271.8z" />
<glyph unicode="&#xe966;" glyph-name="arrow-right-to-arc" d="M928 448c0 229.8-186.2 416-416 416-26.6 0-48 21.4-48 48s21.4 48 48 48c282.8 0 512-229.2 512-512s-229.2-512-512-512c-26.6 0-48 21.4-48 48s21.4 48 48 48c229.8 0 416 186.2 416 416zM464.6 691.2l224-208c9.8-9 15.4-21.8 15.4-35.2s-5.6-26-15.4-35.2l-224-208c-19.4-18-49.8-17-67.8 2.6s-17 49.8 2.6 67.8l134.4 124.8h-485.8c-26.6 0-48 21.4-48 48s21.4 48 48 48h485.8l-134.4 124.8c-19.4 18-20.6 48.4-2.6 67.8s48.4 20.6 67.8 2.6z" />
<glyph unicode="&#xe967;" glyph-name="arrow-right-to-bracket" d="M434 158l256 256c18.8 18.8 18.8 49.2 0 67.8l-256 256.2c-18.8 18.8-49.2 18.8-67.8 0s-18.8-49.2 0-67.8l174-174-492.2-0.2c-26.6 0-48-21.4-48-48s21.4-48 48-48h492.2l-174-174c-18.8-18.8-18.8-49.2 0-67.8s49.2-18.8 67.8 0zM688 800h160c44.2 0 80-35.8 80-80v-544c0-44.2-35.8-80-80-80h-160c-26.6 0-48-21.4-48-48s21.4-48 48-48h160c97.2 0 176 78.8 176 176v544c0 97.2-78.8 176-176 176h-160c-26.6 0-48-21.4-48-48s21.4-48 48-48z" />
<glyph unicode="&#xe968;" glyph-name="arrow-right-to-city" horiz-adv-x="1280" d="M672 848c0 8.8 7.2 16 16 16h224c8.8 0 16-7.2 16-16v-320c0-26.6 21.4-48 48-48h192c8.8 0 16-7.2 16-16v-480c0-26.6 21.4-48 48-48s48 21.4 48 48v480c0 56.4-41.8 103.2-96 110.8v145.2c0 26.6-21.4 48-48 48s-48-21.4-48-48v-144h-64v272c0 61.8-50.2 112-112 112h-224c-61.8 0-112-50.2-112-112v-864c0-26.6 21.4-48 48-48s48 21.4 48 48v864zM736 768v-64c0-17.6 14.4-32 32-32h64c17.6 0 32 14.4 32 32v64c0 17.6-14.4 32-32 32h-64c-17.6 0-32-14.4-32-32zM768 608c-17.6 0-32-14.4-32-32v-64c0-17.6 14.4-32 32-32h64c17.6 0 32 14.4 32 32v64c0 17.6-14.4 32-32 32h-64zM736 384v-64c0-17.6 14.4-32 32-32h64c17.6 0 32 14.4 32 32v64c0 17.6-14.4 32-32 32h-64c-17.6 0-32-14.4-32-32zM1024 416c-17.6 0-32-14.4-32-32v-64c0-17.6 14.4-32 32-32h64c17.6 0 32 14.4 32 32v64c0 17.6-14.4 32-32 32h-64zM992 192v-64c0-17.6 14.4-32 32-32h64c17.6 0 32 14.4 32 32v64c0 17.6-14.4 32-32 32h-64c-17.6 0-32-14.4-32-32zM320.2 643.6c-19.6 17.8-50 16.4-67.8-3.2s-16.4-50 3.2-67.8l84.2-76.6h-291.8c-26.6 0-48-21.4-48-48s21.4-48 48-48h291.8l-84.2-76.4c-19.6-17.8-21-48.2-3.2-67.8s48.2-21 67.8-3.2l176 160c10 9 15.8 22 15.8 35.6s-5.8 26.4-15.8 35.6l-176 160z" />
<glyph unicode="&#xe969;" glyph-name="arrow-right-to-line" horiz-adv-x="896" d="M896 784c0 26.6-21.4 48-48 48s-48-21.4-48-48v-672c0-26.6 21.4-48 48-48s48 21.4 48 48v672zM624.8 413c9.6 9 15.2 21.8 15.2 35s-5.4 25.8-15.2 35l-272 256c-19.4 18.2-49.6 17.2-67.8-2s-17.2-49.6 2-67.8l184-173.2h-423c-26.6 0-48-21.4-48-48s21.4-48 48-48h423l-183.8-173c-19.4-18.2-20.2-48.6-2-67.8s48.6-20.2 67.8-2l272 256z" />
<glyph unicode="&#xe96a;" glyph-name="arrow-rotate-left" d="M48 512c-26.6 0-48 21.4-48 48v288c0 26.6 21.4 48 48 48s48-21.4 48-48v-160.2l40 47c82 98.4 205.8 161.2 344 161.2 247.4 0 448-200.6 448-448s-200.6-448-448-448c-100.8 0-194 33.4-268.8 89.6-21.2 16-25.4 46-9.6 67.2s46 25.4 67.2 9.6c58.8-44.2 131.8-70.4 211.2-70.4 194.4 0 352 157.6 352 352s-157.6 352-352 352c-108.6 0-205.8-49.2-270.4-126.8l-0.2-0.4-55.2-64.8h181.8c26.6 0 48-21.4 48-48s-21.4-48-48-48h-288z" />
<glyph unicode="&#xe96b;" glyph-name="arrow-rotate-right" d="M912 512c26.6 0 48 21.4 48 48v288c0 26.6-21.4 48-48 48s-48-21.4-48-48v-160.2l-40 47c-82 98.4-205.8 161.2-344 161.2-247.4 0-448-200.6-448-448s200.6-448 448-448c100.8 0 194 33.4 268.8 89.6 21.2 16 25.4 46 9.6 67.2s-46 25.4-67.2 9.6c-58.8-44.2-131.8-70.4-211.2-70.4-194.4 0-352 157.6-352 352s157.6 352 352 352c108.6 0 205.8-49.2 270.4-126.8l0.2-0.4 55.2-64.8h-181.8c-26.6 0-48-21.4-48-48s21.4-48 48-48h288z" />
<glyph unicode="&#xe96c;" glyph-name="arrows-cross" horiz-adv-x="896" d="M592 896c-26.6 0-48-21.4-48-48s21.4-48 48-48h140.2l-718.2-718c-18.8-18.8-18.8-49.2 0-67.8s49.2-18.8 67.8 0l718 718v-140.2c0-26.6 21.4-48 48-48s48 21.4 48 48v256c0 26.6-21.4 48-48 48h-255.8zM82 882c-18.8 18.6-49.2 18.6-68 0s-18.6-49.2 0-68l320.8-320.8 67.8 67.8-320.6 321zM493.2 334.8l239-238.8h-140.2c-26.6 0-48-21.4-48-48s21.4-48 48-48h256c26.6 0 48 21.4 48 48v256c0 26.6-21.4 48-48 48s-48-21.4-48-48v-140.2l-238.8 239-67.8-67.8z" />
<glyph unicode="&#xe96d;" glyph-name="arrows-down-to-line" horiz-adv-x="1152" d="M1104 96h-1056c-26.6 0-48-21.4-48-48s21.4-48 48-48h1056c26.6 0 48 21.4 48 48s-21.4 48-48 48zM1138 414c18.8 18.8 18.8 49.2 0 67.8s-49.2 18.8-67.8 0l-126-126-0.2 492.2c0 26.6-21.4 48-48 48s-48-21.4-48-48v-492.2l-126 126c-18.8 18.8-49.2 18.8-67.8 0s-18.8-49.2 0-67.8l207.8-208c9-9 21.2-14 34-14s25 5 34 14l208 208zM498 482c-18.8 18.8-49.2 18.8-67.8 0l-126-126-0.2 492c0 26.6-21.4 48-48 48s-48-21.4-48-48v-492.2l-126 126.2c-18.8 18.8-49.2 18.8-67.8 0s-18.8-49.2 0-67.8l207.8-208.2c18.8-18.8 49.2-18.8 67.8 0l208.2 208c18.8 18.8 18.8 49.2 0 67.8z" />
<glyph unicode="&#xe96e;" glyph-name="arrows-down-to-people" horiz-adv-x="1280" d="M208 912c0 26.6 21.4 48 48 48s48-21.4 48-48v-236.2l46 46c18.8 18.8 49.2 18.8 67.8 0s18.8-49.2 0-67.8l-128-128c-18.8-18.8-49.2-18.8-67.8 0l-128 128c-18.8 18.8-18.8 49.2 0 67.8s49.2 18.8 67.8 0l46-46v236.2zM798 722c18.8 18.8 49.2 18.8 67.8 0l46-46v236c0 26.6 21.4 48 48 48s48-21.4 48-48v-236.2l46 46c18.8 18.8 49.2 18.8 67.8 0s18.8-49.2 0-67.8l-128-128c-18.8-18.8-49.2-18.8-67.8 0l-128 128c-18.8 18.8-18.8 49.2 0 67.8zM960 448c44.183 0 80-35.817 80-80s-35.817-80-80-80v0c-44.183 0-80 35.817-80 80s35.817 80 80 80v0zM928 32h64v127c-4 0.6-8.2 1-12.4 1h-39.2c-4.2 0-8.4-0.4-12.4-1v-127zM1125.8-22.8l-37.8 70v-47.2c0-35.4-28.6-64-64-64h-128c-35.4 0-64 28.6-64 64v47.4l-37.8-70c-12.6-23.4-41.6-32-65-19.6s-32 41.6-19.6 65l72.6 135c-3.4 3.4-6.4 7.2-8.6 11.6l-37.8 70v-79.4c0-35.4-28.6-64-64-64h-127.8c-35.4 0-64 28.6-64 64v79.4l-37.8-70c-2.4-4.4-5.2-8.2-8.6-11.6l72.6-135c12.6-23.4 3.8-52.4-19.6-65s-52.4-3.8-65 19.6l-37.8 70v-47.4c0-35.4-28.6-64-64-64h-127.8c-35.4 0-64 28.6-64 64v47.4l-37.8-70c-12.6-23.4-41.6-32-65-19.6s-32 41.6-19.6 65l75.8 140.6c30.8 57 90.4 92.6 155 92.6h39c32.6 0 63.8-9 90.8-25.2l67.2 124.6c30.6 57 90.2 92.6 155 92.6h39c64.8 0 124.2-35.6 155-92.6l67.2-124.6c27 16.2 58.2 25.2 90.8 25.2h39c64.8 0 124.2-35.6 155-92.6l75.8-140.6c12.6-23.4 3.8-52.4-19.6-65s-52.4-3.8-65 19.6zM528 560c0 44.183 35.817 80 80 80s80-35.817 80-80v0c0-44.183-35.817-80-80-80s-80 35.817-80 80v0zM576 351v-159h64v159c-4 0.6-8.2 1-12.4 1h-39.2c-4.2 0-8.4-0.4-12.4-1zM256 448c44.183 0 80-35.817 80-80s-35.817-80-80-80v0c-44.183 0-80 35.817-80 80s35.817 80 80 80v0zM224 32h64v127c-4 0.6-8.2 1-12.4 1h-39.2c-4.2 0-8.4-0.4-12.4-1v-127z" />
<glyph unicode="&#xe96f;" glyph-name="arrows-from-dotted-line" horiz-adv-x="896" d="M482 946c-18.8 18.8-49.2 18.8-67.8 0l-144.2-144c-18.8-18.8-18.8-49.2 0-67.8s49.2-18.8 67.8 0l62 62v-172.2c0-26.6 21.4-48 48-48s48 21.4 48 48v172.2l62-62c18.8-18.8 49.2-18.8 67.8 0s18.8 49.2 0 67.8l-143.6 144zM496 272c0 26.6-21.4 48-48 48s-48-21.4-48-48v-172.2l-62 62c-18.8 18.8-49.2 18.8-67.8 0s-18.8-49.2 0-67.8l144-144c18.8-18.8 49.2-18.8 67.8 0l144 144c18.8 18.8 18.8 49.2 0 67.8s-49.2 18.8-67.8 0l-62-62v172.2zM64 512c-35.346 0-64-28.654-64-64s28.654-64 64-64v0c35.346 0 64 28.654 64 64s-28.654 64-64 64v0zM256 512c-35.346 0-64-28.654-64-64s28.654-64 64-64v0c35.346 0 64 28.654 64 64s-28.654 64-64 64v0zM384 448c0-35.346 28.654-64 64-64s64 28.654 64 64v0c0 35.346-28.654 64-64 64s-64-28.654-64-64v0zM640 512c-35.346 0-64-28.654-64-64s28.654-64 64-64v0c35.346 0 64 28.654 64 64s-28.654 64-64 64v0zM768 448c0-35.346 28.654-64 64-64s64 28.654 64 64v0c0 35.346-28.654 64-64 64s-64-28.654-64-64v0z" />
<glyph unicode="&#xe970;" glyph-name="arrows-from-line" horiz-adv-x="896" d="M482 946c-18.8 18.8-49.2 18.8-67.8 0l-144.2-144c-18.8-18.8-18.8-49.2 0-67.8s49.2-18.8 67.8 0l62 62v-172.2c0-26.6 21.4-48 48-48s48 21.4 48 48v172.2l62-62c18.8-18.8 49.2-18.8 67.8 0s18.8 49.2 0 67.8l-143.6 144zM496 272c0 26.6-21.4 48-48 48s-48-21.4-48-48v-172.2l-62 62c-18.8 18.8-49.2 18.8-67.8 0s-18.8-49.2 0-67.8l144-144c18.8-18.8 49.2-18.8 67.8 0l144 144c18.8 18.8 18.8 49.2 0 67.8s-49.2 18.8-67.8 0l-62-62v172.2zM48 496c-26.6 0-48-21.4-48-48s21.4-48 48-48h800c26.6 0 48 21.4 48 48s-21.4 48-48 48h-800z" />
<glyph unicode="&#xe971;" glyph-name="arrows-left-right" d="M1010 414c18.8 18.8 18.8 49.2 0 67.8l-192 192c-18.8 18.8-49.2 18.8-67.8 0s-18.8-49.2 0-67.8l110-110h-696.4l110 110c18.8 18.8 18.8 49.2 0 67.8s-49.2 18.8-67.8 0l-192-191.8c-18.8-18.8-18.8-49.2 0-67.8l192-192c18.8-18.8 49.2-18.8 67.8 0s18.8 49.2 0 67.8l-110 110h696.2l-110-110c-18.8-18.8-18.8-49.2 0-67.8s49.2-18.8 67.8 0l192 192z" />
<glyph unicode="&#xe972;" glyph-name="arrows-left-right-to-line" horiz-adv-x="1280" d="M48 832c26.6 0 48-21.4 48-48v-672c0-26.6-21.4-48-48-48s-48 21.4-48 48v672c0 26.6 21.4 48 48 48zM482 690c18.8-18.8 18.8-49.2 0-67.8l-126-126h568.2l-126 126c-18.8 18.8-18.8 49.2 0 67.8s49.2 18.8 67.8 0l208-208c18.8-18.8 18.8-49.2 0-67.8l-208-208.2c-18.8-18.8-49.2-18.8-67.8 0s-18.8 49.2 0 67.8l126 126h-568.2l126-126c18.8-18.8 18.8-49.2 0-67.8s-49.2-18.8-67.8 0l-208.2 208c-18.8 18.8-18.8 49.2 0 67.8l208 208.2c18.8 18.8 49.2 18.8 67.8 0zM1280 784v-672c0-26.6-21.4-48-48-48s-48 21.4-48 48v672c0 26.6 21.4 48 48 48s48-21.4 48-48z" />
<glyph unicode="&#xe973;" glyph-name="arrows-maximize" horiz-adv-x="896" d="M592 896c-26.6 0-48-21.4-48-48s21.4-48 48-48h140.2l-284.2-284.2-284.2 284.2h140.2c26.6 0 48 21.4 48 48s-21.4 48-48 48h-256c-26.6 0-48-21.4-48-48v-256c0-26.6 21.4-48 48-48s48 21.4 48 48v140.2l284.2-284.2-284.2-284.2v140.2c0 26.6-21.4 48-48 48s-48-21.4-48-48v-256c0-26.6 21.4-48 48-48h256c26.6 0 48 21.4 48 48s-21.4 48-48 48h-140.2l284.2 284.2 284.2-284.2h-140.2c-26.6 0-48-21.4-48-48s21.4-48 48-48h256c26.6 0 48 21.4 48 48v256c0 26.6-21.4 48-48 48s-48-21.4-48-48v-140.2l-284.2 284.2 284.2 284.2v-140.2c0-26.6 21.4-48 48-48s48 21.4 48 48v256c0 26.6-21.4 48-48 48h-256z" />
<glyph unicode="&#xe974;" glyph-name="arrows-minimize" d="M14 914c18.8 18.8 49.2 18.8 67.8 0l238-238v172c0 26.6 21.4 48 48 48s48-21.4 48-48v-288c0-26.6-21.4-48-48-48h-287.8c-26.6 0-48 21.4-48 48s21.4 48 48 48h172.2l-238.2 238c-18.6 18.8-18.6 49.2 0 68zM946 914c18.8-18.8 18.8-49.2 0-67.8l-238-238h172c26.6 0 48-21.4 48-48s-21.4-48-48-48h-288c-26.6 0-48 21.4-48 48v287.8c0 26.6 21.4 48 48 48s48-21.4 48-48v-172.2l238 238.2c18.8 18.8 49.2 18.8 67.8 0zM80 288c-26.6 0-48 21.4-48 48s21.4 48 48 48h288c26.6 0 48-21.4 48-48v-288c0-26.6-21.4-48-48-48s-48 21.4-48 48v172.2l-238-238.2c-18.8-18.8-49.2-18.8-67.8 0s-18.8 49.2 0 67.8l238 238h-172.2zM544 336c0 26.6 21.4 48 48 48h288c26.6 0 48-21.4 48-48s-21.4-48-48-48h-172.2l238.2-238c18.8-18.8 18.8-49.2 0-67.8s-49.2-18.8-67.8 0l-238 238v-172.2c0-26.6-21.4-48-48-48s-48 21.4-48 48v288z" />
<glyph unicode="&#xe975;" glyph-name="arrows-repeat" d="M0 451c-1.6-26.4 18.4-49.2 45-51s49.2 18.4 51 45l1 16c6.8 109.6 97.6 195 207.4 195h427.8l-110-110c-18.8-18.8-18.8-49.2 0-67.8s49.2-18.8 67.8 0l192 192c18.8 18.8 18.8 49.2 0 67.8l-192 192c-18.8 18.8-49.2 18.8-67.8 0s-18.8-49.2 0-67.8l110-110h-427.8c-160.4-0.2-293.2-125-303.4-285.2l-1-16zM1023.8 445c1.6 26.4-18.4 49.2-45 51s-49.2-18.4-50.8-45l-1-16c-6.8-109.6-97.8-195-207.6-195h-427.6l110 110c18.8 18.8 18.8 49.2 0 67.8s-49.2 18.8-67.8 0l-192-191.8c-18.8-18.8-18.8-49.2 0-67.8l192-192c18.8-18.8 49.2-18.8 67.8 0s18.8 49.2 0 67.8l-110 110h427.8c160.6 0 293.4 124.8 303.4 285l1 16z" />
<glyph unicode="&#xe976;" glyph-name="arrows-repeat-1" d="M45 400c-26.4 1.8-46.6 24.6-45 51l1 16c10.2 160.2 143 285 303.4 285h427.8l-110.2 110c-18.8 18.8-18.8 49.2 0 67.8s49.2 18.8 67.8 0l192-192c13.8-13.8 17.8-34.4 10.4-52.4s-25-29.6-44.4-29.6h-543.4c-109.8 0-200.8-85.4-207.6-195l-1-16c-1.6-26.4-24.4-46.6-51-45zM979 495.8c26.4-1.6 46.6-24.4 45-51l-1-16c-10.2-160-143-284.8-303.4-284.8h-427.8l110-110c18.8-18.8 18.8-49.2 0-67.8s-49.2-18.8-67.8 0l-192 191.8c-13.8 13.8-17.8 34.4-10.4 52.4s25 29.6 44.4 29.6h543.6c109.8 0 200.8 85.4 207.6 195l1 16c1.6 26.4 24.4 46.6 50.8 45zM576 528v-160c0-26.6-21.4-48-48-48s-48 21.4-48 48v96c-20 0-38.8 12.8-45.6 32.8-8.4 25.2 5.2 52.4 30.4 60.8l48 16c14.6 4.8 30.8 2.4 43.2-6.6s20-23.6 20-39z" />
<glyph unicode="&#xe977;" glyph-name="arrows-retweet" horiz-adv-x="1280" d="M258 818c-18.8 18.8-49.2 18.8-67.8 0l-176.2-176c-18.8-18.8-18.8-49.2 0-67.8s49.2-18.8 67.8 0l94 94v-364.2c0-97.2 78.8-176 176-176h272.2c26.6 0 48 21.4 48 48s-21.4 48-48 48h-272c-44.2 0-80 35.8-80 80v364.2l94-94c18.8-18.8 49.2-18.8 67.8 0s18.8 49.2 0 67.8l-175.8 176zM592 768c-26.6 0-48-21.4-48-48s21.4-48 48-48h272c44.2 0 80-35.8 80-80v-364.2l-94 94c-18.8 18.8-49.2 18.8-67.8 0s-18.8-49.2 0-67.8l176-176c18.8-18.8 49.2-18.8 67.8 0l176 176c18.8 18.8 18.8 49.2 0 67.8s-49.2 18.8-67.8 0l-94-94v364.2c0 97.2-78.8 176-176 176h-272.2z" />
<glyph unicode="&#xe978;" glyph-name="arrows-rotate" d="M960 560c0-26.6-21.4-48-48-48v0h-288c-26.6 0-48 21.4-48 48s21.4 48 48 48h172.2l-104.2 104.2c-56.4 56.2-132.6 87.8-212 87.8-145.4 0-270.4-88.2-324-214.2-10.4-24.4-38.6-35.8-63-25.4s-35.8 38.6-25.4 63c68.2 160.2 227.2 272.6 412.4 272.6 105 0 205.6-41.6 279.8-115.8l104.2-104.4v172.2c0 26.6 21.4 48 48 48s48-21.4 48-48v-288zM48 384h224c26.6 0 48-21.4 48-48s-21.4-48-48-48h-108.2l104.2-104.2c56.4-56.2 132.6-87.8 212-87.8 145.2 0 270 87.8 323.8 213.6 10.4 24.4 38.6 35.6 63 25.2s35.6-38.6 25.2-63c-68.4-159.8-227-271.8-412-271.8-105 0-205.6 41.6-279.8 115.8l-104.2 104.4v-108.2c0-26.6-21.4-48-48-48s-48 21.4-48 48v224c0 26.6 21.4 48 48 48z" />
<glyph unicode="&#xe979;" glyph-name="arrows-spin" horiz-adv-x="896" d="M438.2 785c-22.6 0-44.8-2.2-66.2-6.6v97.4c21.6 3.4 43.8 5 66.2 5 112 0 214-42.6 290.8-112.4l70.2 70.2c20.2 20.2 54.6 5.8 54.6-22.6v-210.8c0-17.6-14.4-32-32-32h-210.8c-28.6 0-42.8 34.4-22.6 54.6l72.6 72.6c-59.2 52.6-137.4 84.4-222.8 84.4zM183.8 668.2c-50.8-58.8-81.4-135.6-81.4-219.4 0-22.2 2.2-44 6.2-65h-97.4c-3.2 21.4-5 43-5 65.2 0 110.4 41.4 211 109.4 287.4l-70.2 70.2c-20.2 20.2-6 54.6 22.6 54.6h210.8c17.6 0 32-14.4 32-32v-210.6c0-28.6-34.4-42.8-54.6-22.6l-72.4 72.2zM288.2 263.4l-69.2-69.2c58.8-50.8 135.6-81.4 219.4-81.4 21 0 41.8 2 61.8 5.6v-97.2c-20.2-2.8-40.8-4.4-61.8-4.4-110.4 0-211 41.4-287.4 109.4l-73.6-73.4c-20.2-20.2-54.6-5.8-54.6 22.6v210.8c0 17.6 14.4 32 32 32h210.8c28.6 0 42.8-34.4 22.6-54.6zM620.6 295.4l69.4-69.4c52.6 59.2 84.4 137.4 84.4 222.8 0 21.6-2 42.6-6 63h97.4c3-20.6 4.6-41.6 4.6-63 0-112-42.6-214-112.4-290.8l73.4-73.4c20.2-20.2 5.8-54.6-22.6-54.6h-211c-17.6 0-32 14.4-32 32v211c0 28.6 34.4 42.8 54.6 22.6z" />
<glyph unicode="&#xe97a;" glyph-name="arrows-split-up-and-left" d="M482 686c-18.8-18.8-49.2-18.8-67.8 0s-18.8 49.2 0 67.8l191.8 192.2c18.8 18.8 49.2 18.8 67.8 0l192-192c18.8-18.8 18.8-49.2 0-67.8s-49.2-18.8-67.8 0l-110 110v-620.2c0-79.6 64.4-144 144-144h144c26.6 0 48-21.4 48-48s-21.4-48-48-48h-144c-132.6 0-240 107.4-240 240v16c0 79.6-64.4 144-144 144h-284.2l110-110c18.8-18.8 18.8-49.2 0-67.8s-49.2-18.8-67.8 0l-192 191.8c-9 9-14 21.2-14 34s5 25 14 34l192 192c18.8 18.8 49.2 18.8 67.8 0s18.8-49.2 0-67.8l-110-110h284.2c54 0 103.8-17.8 144-48v412l-110-110z" />
<glyph unicode="&#xe97b;" glyph-name="arrows-to-circle" horiz-adv-x="1280" d="M14 946c18.8 18.6 49.2 18.6 68 0l238-238v76c0 26.6 21.4 48 48 48s48-21.4 48-48v-192c0-26.6-21.4-48-48-48h-192c-26.6 0-48 21.4-48 48s21.4 48 48 48h76.2l-238.2 238c-18.6 18.8-18.6 49.2 0 68zM1266 946c18.8-18.8 18.8-49.2 0-67.8l-238-238h76c26.6 0 48-21.4 48-48s-21.4-48-48-48h-192c-26.6 0-48 21.4-48 48v191.8c0 26.6 21.4 48 48 48s48-21.4 48-48v-76.2l238 238.2c18.8 18.8 49.2 18.8 67.8 0zM512 448c0 70.692 57.308 128 128 128s128-57.308 128-128v0c0-70.692-57.308-128-128-128s-128 57.308-128 128v0zM864 112v192c0 26.6 21.4 48 48 48h192c26.6 0 48-21.4 48-48s-21.4-48-48-48h-76.2l238.2-238c18.8-18.8 18.8-49.2 0-67.8s-49.2-18.8-67.8 0l-238 238v-76.2c0-26.6-21.4-48-48-48s-48 21.4-48 48zM416 112c0-26.6-21.4-48-48-48s-48 21.4-48 48v76.2l-238-238.2c-18.8-18.8-49.2-18.8-67.8 0s-18.8 49.2 0 67.8l238 238h-76.2c-26.6 0-48 21.4-48 48s21.4 48 48 48h192c26.6 0 48-21.4 48-48v-192z" />
<glyph unicode="&#xe97c;" glyph-name="arrows-to-dot" d="M560 912c0 26.6-21.4 48-48 48s-48-21.4-48-48v-172.2l-62 62.2c-18.8 18.8-49.2 18.8-67.8 0s-18.8-49.2 0-67.8l144-144c18.8-18.8 49.2-18.8 67.8 0l144 144c18.8 18.8 18.8 49.2 0 67.8s-49.2 18.8-67.8 0l-62-62-0.2 172zM866 270c18.8 18.8 18.8 49.2 0 67.8l-62 62h172c26.6 0 48 21.4 48 48s-21.4 48-48 48h-172.2l62 62c18.8 18.8 18.8 49.2 0 67.8s-49.2 18.8-67.8 0l-144-144c-18.8-18.8-18.8-49.2 0-67.8l144-144c18.8-18.8 49.2-18.8 67.8 0zM576 448c0 35.346-28.654 64-64 64s-64-28.654-64-64v0c0-35.346 28.654-64 64-64s64 28.654 64 64v0zM226 626c-18.8 18.8-49.2 18.8-67.8 0s-18.8-49.2 0-67.8l62-62-172.2-0.2c-26.6 0-48-21.4-48-48s21.4-48 48-48h172.2l-62.2-62c-18.8-18.8-18.8-49.2 0-67.8s49.2-18.8 67.8 0l144 144c18.8 18.8 18.8 49.2 0 67.8l-144 144zM334 94c18.8-18.8 49.2-18.8 67.8 0l62 62v-172.2c0-26.6 21.4-48 48-48s48 21.4 48 48v172.4l62-62c18.8-18.8 49.2-18.8 67.8 0s18.8 49.2 0 67.8l-144 144c-18.8 18.8-49.2 18.8-67.8 0l-144-144c-18.8-18.8-18.8-49.2 0-67.8z" />
<glyph unicode="&#xe97d;" glyph-name="arrows-to-dotted-line" horiz-adv-x="896" d="M482 590l144 144c18.8 18.8 18.8 49.2 0 67.8s-49.2 18.8-67.8 0l-62-62-0.2 172.2c0 26.6-21.4 48-48 48s-48-21.4-48-48v-172.2l-62 62.2c-18.8 18.8-49.2 18.8-67.8 0s-18.8-49.2 0-67.8l144-144c18.8-18.8 49.2-18.8 67.8 0zM0 448c0-35.346 28.654-64 64-64s64 28.654 64 64v0c0 35.346-28.654 64-64 64s-64-28.654-64-64v0zM192 448c0-35.346 28.654-64 64-64s64 28.654 64 64v0c0 35.346-28.654 64-64 64s-64-28.654-64-64v0zM448 512c-35.346 0-64-28.654-64-64s28.654-64 64-64v0c35.346 0 64 28.654 64 64s-28.654 64-64 64v0zM576 448c0-35.346 28.654-64 64-64s64 28.654 64 64v0c0 35.346-28.654 64-64 64s-64-28.654-64-64v0zM832 512c-35.346 0-64-28.654-64-64s28.654-64 64-64v0c35.346 0 64 28.654 64 64s-28.654 64-64 64v0zM626 162l-144 144c-18.8 18.8-49.2 18.8-67.8 0l-144-144c-18.8-18.8-18.8-49.2 0-67.8s49.2-18.8 67.8 0l62 62v-172.2c0-26.6 21.4-48 48-48s48 21.4 48 48v172.2l62-62c18.8-18.8 49.2-18.8 67.8 0s18.8 49.2 0 67.8z" />
<glyph unicode="&#xe97e;" glyph-name="arrows-to-eye" horiz-adv-x="1280" d="M82 930c-18.8 18.6-49.2 18.6-68 0s-18.6-49.2 0-68l126-126h-76c-26.6 0-48-21.4-48-48s21.4-48 48-48h192c26.6 0 48 21.4 48 48v192c0 26.6-21.4 48-48 48s-48-21.4-48-48v-76.2l-126 126.2zM624 256c-129 0-227.6 104.2-277 192 49.4 87.8 148 192 277 192s227.6-104.2 277-192c-49.4-87.8-148-192-277-192zM624 736c-194.6 0-322.8-163.2-373-263.8-7.6-15.2-7.6-33 0-48.4 50.2-100.6 178.4-263.8 373-263.8s322.8 163.2 373 263.8c7.6 15.2 7.6 33 0 48.4-50.2 100.6-178.4 263.8-373 263.8zM1234 930c-18.8 18.8-49.2 18.8-67.8 0l-126-126v76c0 26.6-21.4 48-48 48s-48-21.4-48-48v-192c0-26.6 21.4-48 48-48h192c26.6 0 48 21.4 48 48s-21.4 48-48 48h-76.4l126 126c18.8 18.8 18.8 49.2 0 67.8zM82-34l126 126v-76c0-26.6 21.4-48 48-48s48 21.4 48 48v192c0 26.6-21.4 48-48 48h-192c-26.6 0-48-21.4-48-48s21.4-48 48-48h76.2l-126.2-126c-18.8-18.8-18.8-49.2 0-67.8s49.2-18.8 67.8 0zM1234-34c18.8 18.8 18.8 49.2 0 67.8l-126 126h76c26.6 0 48 21.4 48 48s-21.4 48-48 48h-192c-26.6 0-48-21.4-48-48v-192c0-26.6 21.4-48 48-48s48 21.4 48 48v76.4l126-126c18.8-18.8 49.2-18.8 67.8 0zM624 320c70.692 0 128 57.308 128 128s-57.308 128-128 128v0c-70.692 0-128-57.308-128-128s57.308-128 128-128v0z" />
<glyph unicode="&#xe97f;" glyph-name="arrows-to-line" horiz-adv-x="896" d="M482 590l144 144c18.8 18.8 18.8 49.2 0 67.8s-49.2 18.8-67.8 0l-62-62-0.2 172.2c0 26.6-21.4 48-48 48s-48-21.4-48-48v-172.2l-62 62.2c-18.8 18.8-49.2 18.8-67.8 0s-18.8-49.2 0-67.8l144-144c18.8-18.8 49.2-18.8 67.8 0zM0 448c0-26.6 21.4-48 48-48h800c26.6 0 48 21.4 48 48s-21.4 48-48 48h-800c-26.6 0-48-21.4-48-48zM482 306c-18.8 18.8-49.2 18.8-67.8 0l-144-144c-18.8-18.8-18.8-49.2 0-67.8s49.2-18.8 67.8 0l62 62v-172.2c0-26.6 21.4-48 48-48s48 21.4 48 48v172.2l62-62c18.8-18.8 49.2-18.8 67.8 0s18.8 49.2 0 67.8l-144 144z" />
<glyph unicode="&#xe980;" glyph-name="arrows-turn-right" horiz-adv-x="896" d="M588.8 944.6c18 19.4 48.4 20.6 67.8 2.6l224-208c9.8-9 15.4-21.8 15.4-35.2s-5.6-26-15.4-35.2l-224-208c-19.4-18-49.8-17-67.8 2.6s-17 49.8 2.6 67.8l134.4 124.8h-485.8c-79.6 0-144-64.4-144-144v-80c0-26.6-21.4-48-48-48s-48 21.4-48 48v80c0 132.6 107.4 240 240 240h485.8l-134.4 124.8c-19.4 18-20.6 48.4-2.6 67.8zM396.8 432.6c18 19.4 48.4 20.6 67.8 2.6l224-208c9.8-9 15.4-21.8 15.4-35.2s-5.6-26-15.4-35.2l-224-208c-19.4-18-49.8-17-67.8 2.6s-17 49.8 2.6 67.8l134.4 124.8h-357.8c-44.2 0-80-35.8-80-80v-80c0-26.6-21.4-48-48-48s-48 21.4-48 48v80c0 97.2 78.8 176 176 176h357.8l-134.4 124.8c-19.4 18-20.6 48.4-2.6 67.8z" />
<glyph unicode="&#xe981;" glyph-name="arrows-turn-to-dots" d="M510 898c18.8 18.8 49.2 18.8 67.8 0s18.8-49.2 0-67.8l-78-78 348.2-0.2c97.2 0 176-78.8 176-176v-80c0-26.6-21.4-48-48-48s-48 21.4-48 48v80c0 44.2-35.8 80-80 80h-348.2l78-78c18.8-18.8 18.8-49.2 0-67.8s-49.2-18.8-67.8 0l-160 160c-18.8 18.8-18.8 49.2 0 67.8l160 160zM514 386l160-160c18.8-18.8 18.8-49.2 0-67.8l-160-160c-18.8-18.8-49.2-18.8-67.8 0s-18.8 49.2 0 67.8l78 78h-348.2c-44.2 0-80-35.8-80-80v-80c0-26.6-21.4-48-48-48s-48 21.4-48 48v80c0 97.2 78.8 176 176 176h348.2l-78 78c-18.8 18.8-18.8 49.2 0 67.8s49.2 18.8 67.8 0zM768 192c0 70.692 57.308 128 128 128s128-57.308 128-128v0c0-70.692-57.308-128-128-128s-128 57.308-128 128v0zM128 576c-70.692 0-128 57.308-128 128s57.308 128 128 128v0c70.692 0 128-57.308 128-128s-57.308-128-128-128v0z" />
<glyph unicode="&#xe982;" glyph-name="arrows-up-down" horiz-adv-x="512" d="M274 946c-18.8 18.8-49.2 18.8-67.8 0l-192.2-192c-18.8-18.8-18.8-49.2 0-67.8s49.2-18.8 67.8 0l110 110v-696.4l-109.8 110.2c-18.8 18.8-49.2 18.8-67.8 0s-18.8-49.2 0-67.8l192-192c18.8-18.8 49.2-18.8 67.8 0l192 192c18.8 18.8 18.8 49.2 0 67.8s-49.2 18.8-67.8 0l-110-110v696.2l110-110c18.8-18.8 49.2-18.8 67.8 0s18.8 49.2 0 67.8l-192 192z" />
<glyph unicode="&#xe983;" glyph-name="arrows-up-down-left-right" d="M546 946c-18.8 18.8-49.2 18.8-67.8 0l-144.2-144c-18.8-18.8-18.8-49.2 0-67.8s49.2-18.8 67.8 0l62 62v-300.2h-300l62 62c18.8 18.8 18.8 49.2 0 67.8s-49.2 18.8-67.8 0l-144-143.8c-18.8-18.8-18.8-49.2 0-67.8l144-144c18.8-18.8 49.2-18.8 67.8 0s18.8 49.2 0 67.8l-62 62h300.2v-300.2l-62 62c-18.8 18.8-49.2 18.8-67.8 0s-18.8-49.2 0-67.8l144-144c18.8-18.8 49.2-18.8 67.8 0l144 144c18.8 18.8 18.8 49.2 0 67.8s-49.2 18.8-67.8 0l-62-62v300.2h300l-62-62c-18.8-18.8-18.8-49.2 0-67.8s49.2-18.8 67.8 0l144 144c18.8 18.8 18.8 49.2 0 67.8l-144 144c-18.8 18.8-49.2 18.8-67.8 0s-18.8-49.2 0-67.8l62-62h-300.2v300l62-62c18.8-18.8 49.2-18.8 67.8 0s18.8 49.2 0 67.8l-143.8 144z" />
<glyph unicode="&#xe984;" glyph-name="arrows-up-to-line" horiz-adv-x="1152" d="M48 800h1056c26.6 0 48 21.4 48 48s-21.4 48-48 48h-1056c-26.6 0-48-21.4-48-48s21.4-48 48-48zM14 482c-18.8-18.8-18.8-49.2 0-67.8s49.2-18.8 67.8 0l126 126 0.2-492.2c0-26.6 21.4-48 48-48s48 21.4 48 48v492.2l126-126c18.8-18.8 49.2-18.8 67.8 0s18.8 49.2 0 67.8l-207.8 208c-9 9-21.2 14-34 14s-25-5-34-14l-208-208zM654 414c18.8-18.8 49.2-18.8 67.8 0l126 126 0.2-492c0-26.6 21.4-48 48-48s48 21.4 48 48v492.2l126-126c18.8-18.8 49.2-18.8 67.8 0s18.8 49.2 0 67.8l-207.8 208c-18.8 18.8-49.2 18.8-67.8 0l-208.2-208c-18.8-18.8-18.8-49.2 0-67.8z" />
<glyph unicode="&#xe985;" glyph-name="arrow-trend-down" horiz-adv-x="1152" d="M704 176c0-26.6 21.4-48 48-48h352c26.6 0 48 21.4 48 48v352c0 26.6-21.4 48-48 48s-48-21.4-48-48v-236.2l-382 382.2c-18.8 18.8-49.2 18.8-67.8 0l-222-222-302.2 302c-18.8 18.8-49.2 18.8-67.8 0s-18.8-49.2 0-67.8l335.8-336.2c18.8-18.8 49.2-18.8 67.8 0l222 222 348.4-348h-236.2c-26.6 0-48-21.4-48-48z" />
<glyph unicode="&#xe986;" glyph-name="arrow-trend-up" horiz-adv-x="1152" d="M704 720c0 26.6 21.4 48 48 48h352c26.6 0 48-21.4 48-48v-352c0-26.6-21.4-48-48-48s-48 21.4-48 48v236.2l-382-382.2c-18.8-18.8-49.2-18.8-67.8 0l-222 222-302.2-302c-18.8-18.8-49.2-18.8-67.8 0s-18.8 49.2 0 67.8l335.8 336.2c18.8 18.8 49.2 18.8 67.8 0l222-222 348.4 348h-236.2c-26.6 0-48 21.4-48 48z" />
<glyph unicode="&#xe987;" glyph-name="arrow-turn-down" horiz-adv-x="768" d="M48 864c-26.6 0-48 21.4-48 48s21.4 48 48 48h208c97.2 0 176-78.8 176-176v-684.2l174 174c18.8 18.8 49.2 18.8 67.8 0s18.8-49.2 0-67.8l-255.8-256c-18.8-18.8-49.2-18.8-67.8 0l-256.2 256c-18.8 18.8-18.8 49.2 0 67.8s49.2 18.8 67.8 0l174-174 0.2 684.2c0 44.2-35.8 80-80 80h-208z" />
<glyph unicode="&#xe988;" glyph-name="arrow-turn-down-left" d="M928 848c0 26.6 21.4 48 48 48s48-21.4 48-48v-336c0-97.2-78.8-176-176-176h-684.2l174-174c18.8-18.8 18.8-49.2 0-67.8s-49.2-18.8-67.8 0l-256 255.8c-18.8 18.8-18.8 49.2 0 67.8l256 256.2c18.8 18.8 49.2 18.8 67.8 0s18.8-49.2 0-67.8l-174-174h684.2c44.2 0 80 35.8 80 80v335.8z" />
<glyph unicode="&#xe989;" glyph-name="arrow-turn-down-right" d="M96 848c0 26.6-21.4 48-48 48s-48-21.4-48-48v-336c0-97.2 78.8-176 176-176h684.2l-174-174c-18.8-18.8-18.8-49.2 0-67.8s49.2-18.8 67.8 0l256 255.8c18.8 18.8 18.8 49.2 0 67.8l-256 256.2c-18.8 18.8-49.2 18.8-67.8 0s-18.8-49.2 0-67.8l174-174h-684.2c-44.2 0-80 35.8-80 80v335.8z" />
<glyph unicode="&#xe98a;" glyph-name="arrow-turn-up" horiz-adv-x="768" d="M48 32c-26.6 0-48-21.4-48-48s21.4-48 48-48h208c97.2 0 176 78.8 176 176v684.2l174-174c18.8-18.8 49.2-18.8 67.8 0s18.8 49.2 0 67.8l-255.8 256c-18.8 18.8-49.2 18.8-67.8 0l-256.2-256c-18.8-18.8-18.8-49.2 0-67.8s49.2-18.8 67.8 0l174 174 0.2-684.2c0-44.2-35.8-80-80-80h-208z" />
<glyph unicode="&#xe98b;" glyph-name="arrow-up" horiz-adv-x="768" d="M418.8 881.2c-9.2 9.4-21.6 14.8-34.8 14.8s-25.6-5.4-34.8-14.8l-336-352c-18.4-19.2-17.6-49.6 1.6-67.8s49.6-17.6 67.8 1.6l253.4 265.2v-680.2c0-26.6 21.4-48 48-48s48 21.4 48 48v680.2l253.2-265.4c18.4-19.2 48.6-19.8 67.8-1.6s19.8 48.6 1.6 67.8l-336 352z" />
<glyph unicode="&#xe98c;" glyph-name="arrow-up-1-9" d="M832 848v-240h48c26.6 0 48-21.4 48-48s-21.4-48-48-48h-192c-26.6 0-48 21.4-48 48s21.4 48 48 48h48v173.4l-32.8-11c-25.2-8.4-52.4 5.2-60.8 30.4s5.2 52.4 30.4 60.8l96 32c14.6 4.8 30.8 2.4 43.2-6.6s20-23.6 20-39zM206 882c18.8 18.8 49.2 18.8 67.8 0l192-192c18.8-18.8 18.8-49.2 0-67.8s-49.2-18.8-67.8 0l-110 110v-684.2c0-26.6-21.4-48-48-48s-48 21.4-48 48v684.2l-110-110.2c-18.8-18.8-49.2-18.8-67.8 0s-18.8 49.2 0 67.8l192 192zM768 352c-44.183 0-80-35.817-80-80s35.817-80 80-80v0c44.183 0 80 35.817 80 80s-35.817 80-80 80v0zM732.2 99.6c-80 16.6-140.2 87.4-140.2 172.4 0 97.2 78.8 176 176 176s176-78.8 176-176c0-42.2-14.6-83-41.2-115.6l-113.6-138.8c-16.8-20.6-47-23.6-67.6-6.8s-23.6 47-6.8 67.6l17.4 21.2z" />
<glyph unicode="&#xe98d;" glyph-name="arrow-up-9-1" d="M768 800c-44.183 0-80-35.817-80-80s35.817-80 80-80v0c44.183 0 80 35.817 80 80s-35.817 80-80 80v0zM944 720c0-1.6 0-3.2 0-5-1.2-40.4-15.8-79.4-41.8-110.6l-129.2-155.2c-17-20.4-47.2-23.2-67.6-6.2s-23.2 47.2-6.2 67.6l31 37.4c-79 17.2-138.2 87.6-138.2 172 0 97.2 78.8 176 176 176s176-78.8 176-176zM206 882c18.8 18.8 49.2 18.8 67.8 0l192-192c18.8-18.8 18.8-49.2 0-67.8s-49.2-18.8-67.8 0l-110 110v-684.2c0-26.6-21.4-48-48-48s-48 21.4-48 48v684.2l-110-110.2c-18.8-18.8-49.2-18.8-67.8 0s-18.8 49.2 0 67.8l192 192zM832 336v-240h48c26.6 0 48-21.4 48-48s-21.4-48-48-48h-192c-26.6 0-48 21.4-48 48s21.4 48 48 48h48v173.4l-32.8-11c-25.2-8.4-52.4 5.2-60.8 30.4s5.2 52.4 30.4 60.8l96 32c14.6 4.8 30.8 2.4 43.2-6.6s20-23.6 20-39z" />
<glyph unicode="&#xe98e;" glyph-name="arrow-up-arrow-down" d="M978 206c18.8 18.8 18.8 49.2 0 67.8s-49.2 18.8-67.8 0l-110-110v684.2c0 26.6-21.4 48-48 48s-48-21.4-48-48v-684.2l-110 110c-18.8 18.8-49.2 18.8-67.8 0s-18.8-49.2 0-67.8l192-192c18.8-18.8 49.2-18.8 67.8 0l192 192zM274 882c-18.8 18.8-49.2 18.8-67.8 0l-192.2-192c-18.8-18.8-18.8-49.2 0-67.8s49.2-18.8 67.8 0l110 110v-684.2c0-26.6 21.4-48 48-48s48 21.4 48 48v684.2l110-110c18.8-18.8 49.2-18.8 67.8 0s18.8 49.2 0 67.8l-191.6 192z" />
<glyph unicode="&#xe98f;" glyph-name="arrow-up-a-z" d="M752 896c18.2 0 34.8-10.2 43-26.6l160-320c11.8-23.8 2.2-52.6-21.4-64.4s-52.6-2.2-64.4 21.4l-27.2 54.4c-3.2-0.6-6.4-1-9.8-1h-170.6l-26.8-53.4c-11.8-23.8-40.6-33.4-64.4-21.4s-33.4 40.6-21.4 64.4l160 320c8.2 16.4 24.8 26.6 43 26.6zM709.6 656h84.6l-42.2 84.6-42.4-84.6zM206 882c18.8 18.8 49.2 18.8 67.8 0l192-192c18.8-18.8 18.8-49.2 0-67.8s-49.2-18.8-67.8 0l-110 110v-684.2c0-26.6-21.4-48-48-48s-48 21.4-48 48v684.2l-110-110.2c-18.8-18.8-49.2-18.8-67.8 0s-18.8 49.2 0 67.8l192 192zM624 384h256c18.8 0 36-11 43.8-28.4s4.6-37.4-8-51.6l-185-208h149.2c26.6 0 48-21.4 48-48s-21.4-48-48-48h-256c-18.8 0-36 11-43.8 28.4s-4.6 37.4 8 51.6l185 208h-149.2c-26.6 0-48 21.4-48 48s21.4 48 48 48z" />
<glyph unicode="&#xe990;" glyph-name="arrow-up-big-small" d="M672 544v256h256v-256h-256zM576 544c0-53 43-96 96-96h256c53 0 96 43 96 96v256c0 53-43 96-96 96h-256c-53 0-96-43-96-96v-256zM290 882c-18.8 18.8-49.2 18.8-67.8 0l-192.2-192c-18.8-18.8-18.8-49.2 0-67.8s49.2-18.8 67.8 0l110 110v-684.2c0-26.6 21.4-48 48-48s48 21.4 48 48v684.2l110-110c18.8-18.8 49.2-18.8 67.8 0s18.8 49.2 0 67.8l-191.6 192zM672 224h128v-128h-128v128zM576 224v-128c0-53 43-96 96-96h128c53 0 96 43 96 96v128c0 53-43 96-96 96h-128c-53 0-96-43-96-96z" />
<glyph unicode="&#xe991;" glyph-name="arrow-up-from-arc" d="M512 32c-229.8 0-416 186.2-416 416 0 26.6-21.4 48-48 48s-48-21.4-48-48c0-282.8 229.2-512 512-512s512 229.2 512 512c0 26.6-21.4 48-48 48s-48-21.4-48-48c0-229.8-186.2-416-416-416zM268.8 720.6c-18-19.4-17-49.8 2.6-67.8s49.8-17 67.8 2.6l124.8 134.4v-485.8c0-26.6 21.4-48 48-48s48 21.4 48 48v485.8l124.8-134.4c18-19.4 48.4-20.6 67.8-2.6s20.6 48.4 2.6 67.8l-208 224c-9.2 9.8-21.8 15.4-35.2 15.4s-26-5.6-35.2-15.4l-208-224z" />
<glyph unicode="&#xe992;" glyph-name="arrow-up-from-bracket" horiz-adv-x="896" d="M482 946c-18.8 18.8-49.2 18.8-67.8 0l-256.2-256c-18.8-18.8-18.8-49.2 0-67.8s49.2-18.8 67.8 0l174 174v-492.2c0-26.6 21.4-48 48-48s48 21.4 48 48v492.2l174-174c18.8-18.8 49.2-18.8 67.8 0s18.8 49.2 0 67.8l-255.6 256zM96 272c0 26.6-21.4 48-48 48s-48-21.4-48-48v-160c0-97.2 78.8-176 176-176h544c97.2 0 176 78.8 176 176v160c0 26.6-21.4 48-48 48s-48-21.4-48-48v-160c0-44.2-35.8-80-80-80h-544c-44.2 0-80 35.8-80 80v160z" />
<glyph unicode="&#xe993;" glyph-name="arrow-up-from-dotted-line" horiz-adv-x="896" d="M483 880.8c-9.2 9.8-21.8 15.2-35 15.2s-25.8-5.4-35-15.2l-256-272c-18.2-19.4-17.2-49.6 2-67.8s49.6-17.2 67.8 2l173.2 184v-423c0-26.6 21.4-48 48-48s48 21.4 48 48v423l173-183.8c18.2-19.4 48.6-20.2 67.8-2s20.2 48.6 2 67.8l-256 272zM64 128c-35.346 0-64-28.654-64-64s28.654-64 64-64v0c35.346 0 64 28.654 64 64s-28.654 64-64 64v0zM256 128c-35.346 0-64-28.654-64-64s28.654-64 64-64v0c35.346 0 64 28.654 64 64s-28.654 64-64 64v0zM384 64c0-35.346 28.654-64 64-64s64 28.654 64 64v0c0 35.346-28.654 64-64 64s-64-28.654-64-64v0zM640 128c-35.346 0-64-28.654-64-64s28.654-64 64-64v0c35.346 0 64 28.654 64 64s-28.654 64-64 64v0zM768 64c0-35.346 28.654-64 64-64s64 28.654 64 64v0c0 35.346-28.654 64-64 64s-64-28.654-64-64v0z" />
<glyph unicode="&#xe994;" glyph-name="arrow-up-from-ground-water" horiz-adv-x="1152" d="M576 256c26.6 0 48 21.4 48 48v492.2l78-78c18.8-18.8 49.2-18.8 67.8 0s18.8 49.2 0 67.8l-159.8 160c-18.8 18.8-49.2 18.8-67.8 0l-160.2-160c-18.8-18.8-18.8-49.2 0-67.8s49.2-18.8 67.8 0l78 78v-492.2c0-26.6 21.4-48 48-48zM160 99.8c-34.4-29.8-78-53.4-122.4-63.4-25.8-5.8-42.2-31.4-36.4-57.4s31.4-42.2 57.4-36.4c57.4 13 104.6 41 133.4 61 56.2-39 122.8-67.6 192-67.6s135.8 28.6 192 67.6c56.2-39 122.8-67.6 192-67.6s135.8 28.6 192 67.6c28.8-20 76-48 133.4-60.8 25.8-5.8 51.6 10.4 57.4 36.4s-10.4 51.6-36.4 57.4c-44 9.8-88.6 33.4-122.6 63.6-18.2 16.2-45.6 16.2-63.8 0-43.2-37.2-102.4-67.8-160-67.8s-117 30.6-160 67.8c-18.2 16.2-45.6 16.2-63.8 0-43-37.2-102.4-67.8-160-67.8s-117 30.6-160 67.8c-18.2 16.2-45.6 16.2-63.8 0zM384 576h-256c-70.6 0-128-57.4-128-128v-338c10.6 6.2 22.4 10.8 35 13.8 20.8 4.8 42.4 14.4 61 27v297.2c0 17.6 14.4 32 32 32h256v96zM1152 448c0 70.6-57.4 128-128 128h-256v-96h256c17.6 0 32-14.4 32-32v-297.2c18.6-12.6 40.2-22.2 61-27.2 12.6-3 24.2-7.6 35-13.8v338.2z" />
<glyph unicode="&#xe995;" glyph-name="arrow-up-from-line" horiz-adv-x="768" d="M419 880.8c-9.2 9.8-21.8 15.2-35 15.2s-25.8-5.4-35-15.2l-256-272c-18.2-19.4-17.2-49.6 2-67.8s49.6-17.2 67.8 2l173.2 184v-423c0-26.6 21.4-48 48-48s48 21.4 48 48v423l173-183.8c18.2-19.4 48.6-20.2 67.8-2s20.2 48.6 2 67.8l-256 272zM48 96c-26.6 0-48-21.4-48-48s21.4-48 48-48h672c26.6 0 48 21.4 48 48s-21.4 48-48 48h-672z" />
<glyph unicode="&#xe996;" glyph-name="arrow-up-from-square" d="M546 946c-18.8 18.8-49.2 18.8-67.8 0l-224.2-224c-18.8-18.8-18.8-49.2 0-67.8s49.2-18.8 67.8 0l142 142v-492.2c0-26.6 21.4-48 48-48s48 21.4 48 48v492.2l142-142c18.8-18.8 49.2-18.8 67.8 0s18.8 49.2 0 67.8l-223.6 224zM144 896c-79.6 0-144-64.4-144-144v-672c0-79.6 64.4-144 144-144h736c79.6 0 144 64.4 144 144v672c0 79.6-64.4 144-144 144h-16c-26.6 0-48-21.4-48-48s21.4-48 48-48h16c26.6 0 48-21.4 48-48v-672c0-26.6-21.4-48-48-48h-736c-26.6 0-48 21.4-48 48v672c0 26.6 21.4 48 48 48h16c26.6 0 48 21.4 48 48s-21.4 48-48 48h-16z" />
<glyph unicode="&#xe997;" glyph-name="arrow-up-from-water-pump" horiz-adv-x="1152" d="M224 960c-53 0-96-43-96-96v-416c-70.6 0-128-57.4-128-128v-210c10.6 6.2 22.4 10.8 35 13.8 20.8 4.8 42.4 14.4 61 27v169.2c0 17.6 14.4 32 32 32h896c17.6 0 32-14.4 32-32v-169.2c18.6-12.6 40.2-22.2 61-27.2 12.6-3 24.2-7.6 35-13.8v210.2c0 70.6-57.4 128-128 128h-80v348.2l78-78c18.8-18.8 49.2-18.8 67.8 0s18.8 49.2 0 67.8l-159.8 160c-18.8 18.8-49.2 18.8-67.8 0l-160.2-160c-18.8-18.8-18.8-49.2 0-67.8s49.2-18.8 67.8 0l78 78 0.2-348.2h-272v416c0 53-43 96-96 96h-256zM223.8 99.8c-18.2 16.2-45.6 16.2-63.8 0-34.4-29.8-78-53.4-122.4-63.4-25.8-5.8-42.2-31.4-36.4-57.4s31.4-42.2 57.4-36.4c57.4 13 104.6 41 133.4 61 56.2-39 122.8-67.6 192-67.6s135.8 28.6 192 67.6c56.2-39 122.8-67.6 192-67.6s135.8 28.6 192 67.6c28.8-20 76-48 133.4-60.8 25.8-5.8 51.6 10.4 57.4 36.4s-10.4 51.6-36.4 57.4c-44 9.8-88.6 33.4-122.6 63.6-18.2 16.2-45.6 16.2-63.8 0-43.2-37.2-102.4-67.8-160-67.8s-117 30.6-160 67.8c-18.2 16.2-45.6 16.2-63.8 0-43-37.2-102.4-67.8-160-67.8s-117 30.6-160 67.8z" />
<glyph unicode="&#xe998;" glyph-name="arrow-up-left" horiz-adv-x="640" d="M48 768c-26.6 0-48-21.4-48-48v-480c0-26.6 21.4-48 48-48s48 21.4 48 48v364.2l462-462.2c18.8-18.8 49.2-18.8 67.8 0s18.8 49.2 0 67.8l-462 462.2h364.2c26.6 0 48 21.4 48 48s-21.4 48-48 48h-480z" />
<glyph unicode="&#xe999;" glyph-name="arrow-up-left-from-circle" horiz-adv-x="1152" d="M384 960h-320c-26.6 0-48-21.4-48-48v-320c0-26.6 21.4-48 48-48s48 21.4 48 48v204.2l494-494.2c18.8-18.8 49.2-18.8 67.8 0s18.8 49.2 0 67.8l-494 494.2h204.2c26.6 0 48 21.4 48 48s-21.4 48-48 48zM608 832c-26.6 0-48-21.4-48-48s21.4-48 48-48c194.4 0 352-157.6 352-352s-157.6-352-352-352-352 157.6-352 352c0 26.6-21.4 48-48 48s-48-21.4-48-48c0-247.4 200.6-448 448-448s448 200.6 448 448-200.6 448-448 448z" />
</font>
</defs>
</svg>
